<svg id="ewoTCp1i7Pd1" xmlns="http://www.w3.org/2000/svg" xmlns:xlink="http://www.w3.org/1999/xlink" viewBox="0 0 236 281" shape-rendering="geometricPrecision" text-rendering="geometricPrecision" project-id="be433d9aae0f49d78bd50af5b060e527" export-id="99932dba8d7d48d4ae7521d18b320aa5" cached="false"><path d="M143.427429,16.965189c0,0,2.285124,7.94624,0,14.924231-1.650012,5.038575-2.823529,10.063901-8.470517,17.344389-6.050369,4.704139-9.666163,5.337974-14.520884,10.959572-5.142238,5.954533-9.088798,12.525428-10.890661,18.888919-1.72787,6.102178-3.752476,13.001202-2.823508,18.554454.473304,2.829353,2.169504,10.640014,9.680569,18.151104s7.260461,8.873873,24.201472,16.134315c12.493547,5.354384,30.700569,9.884091,41.545884,18.077825c6.392429,4.829538,13.853325,13.251727,16.94103,20.644538c2.094417,5.014607,6.871516,14.667317,2.823505,27.024976-2.539796,7.75342-9.186314,17.312956-15.730957,22.184683-7.581791,5.643763-20.410684,9.570553-29.848483,10.083946-8.41388.457694-20.917512-.701347-27.428336-6.050368-4.898702-4.024568-9.140066-13.056724-8.470515-19.361178.524909-4.942517,2.823492-13.310812,14.520884-20.167893c4.594471-2.693306-12.748519-2.239328-17.747747-.403358-5.471194,2.0093-12.648296,7.387971-14.520883,12.907452-2.058672,6.067968.531456,15.60865,4.033577,20.974609c3.375561,5.172043,11.271283,9.248213,16.94103,11.697378c7.418184,3.204438,18.261684,5.354745,26.337107,5.647011c9.610203.347813,22.704784-1.161927,31.746426-4.436937c9.913349-3.590755,22.119052-11.383415,29.848482-18.554463c5.713322-5.300586,13.063825-13.517159,15.327599-20.974611c2.532928-8.344114.849988-20.56851-1.210075-29.041768-1.355708-5.57617-12.958305-20.345774-8.067158-17.344389c17.747744,10.890661,17.600441,10.562513,22.184682,17.747745c3.015073,4.725754,4.905898,12.565097,4.436937,18.151105-.562276,6.697524-4.768995,15.24932-8.873875,20.571251-4.316953,5.596882-12.715147,10.537975-18.554463,14.520884-7.080754,4.829675-17.288912,10.055442-24.604831,14.520883-10.258773,6.26168-24.136364,14.344305-33.882063,21.377968-2.628691,1.897178-4.269354,10.355178-8.351681,10.890662-10.035327,1.316346-18.223705-15.102658-26.740456-20.571251-10.248364-6.580459-26.760216-11.772229-37.51229-18.1511-6.266751-3.717869-14.765687-8.815994-19.76453-14.11753-6.080518-6.448708-14.391164-16.246712-15.730958-25.008189-1.362084-8.907242,2.807525-21.451587,7.663799-29.041767c3.891145-6.081718,22.748859-21.204276,18.554461-15.327599-6.857086,9.60731-11.558886,18.727158-12.504095,27.831694-.818623,7.885219,1.961408,18.796132,5.647009,25.814904c2.361613,4.497401,7.481562,11.528725,17.344388,18.554462c3.313077,2.360055,11.697378,6.857084,11.697378,6.857084s-10.50917-15.049967-11.697378-22.588036c-1.26069-7.997901.929174-19.324271,4.436936-26.621625c3.5336-7.351107,11.724217-15.219206,18.151105-20.241181c4.85471-3.793474,12.291957-7.702296,18.151104-9.607302c4.882329-1.58741,16.941031-2.420147,16.941031-2.420147s-20.723555-7.71858-28.235052-13.31081c-5.086272-3.786676-10.882711-10.277054-14.117525-15.730957-3.338582-5.628856-9.645247-14.476758-7.260442-20.571252c3.630221-9.277222-11.483193,17.005587-16.537673,24.201473C70.52475,123.89627,58.345732,137.97942,51.461811,149.99999c-5.071738,8.856172-12.413491,21.009466-13.714168,31.131844-.874719,6.8074.379033,16.543572,3.630221,22.588041c2.880363,5.355047,9.983262,10.170194,14.924241,13.714167c8.184981,5.87077,29.445125,16.134315,29.445125,16.134315s23.83857,15.918765,33.882061,22.991399c9.225238,6.49642,19.087581,22.184683,30.370686,22.184683c6.334903,0,10.045245-11.940965,15.208754-16.134315c12.775277-10.374962,33.226853-19.316298,46.789514-28.638409c10.312027-7.087832,25.457196-15.484861,33.075345-25.411546c4.227616-5.508715,8.29593-14.458093,8.873873-21.377967.671845-8.044191-2.424386-19.006284-6.050369-26.218262-4.781455-9.51018-15.730565-19.241269-22.991398-27.024978-5.311593-5.694097-14.138284-11.737593-18.554463-18.151104-5.686098-8.257784-13.310809-30.655199-13.310809-30.655199s-12.412678,13.570067-13.714168,20.97461c-1.097535,6.244186.936541,13.802963,2.823528,19.361178c2.710481,7.983858,13.714145,24.531543,13.714145,24.531543s-11.791485-12.064091-15.730957-18.077817c-4.478659-6.836811-12.451476-15.060002-13.714168-22.991399-1.813871-11.393541,8.470515-37.512282,8.470515-37.512282-.268905,0-8.126764,2.619338-18.151104,13.714167-4.299565,4.75871-11.18394,13.768219-12.100735,20.97461-.760626,5.978836,5.362496,19.361178,5.362496,19.361178s-7.606681-5.123681-9.396076-8.470515c-2.767572-5.176389-4.251651-13.667773-2.823505-19.361178c1.500878-5.983353,8.173594-11.881158,12.219581-16.537673c4.417207-5.083751,12.515586-10.299742,15.208755-16.459943c1.857019-4.247639,2.285383-10.684438,1.210073-15.405329-1.298061-5.698829-5.500396-12.571417-8.873873-17.344389-3.557172-5.032873-14.117502-14.924231-14.117502-14.924231Z" transform="translate(-27.477634-6.965189)" fill="#fff" stroke-width="0.6"/></svg>
