<svg id="eX6Os7nJhGt1" xmlns="http://www.w3.org/2000/svg" xmlns:xlink="http://www.w3.org/1999/xlink" viewBox="0 0 236 281" shape-rendering="geometricPrecision" text-rendering="geometricPrecision" project-id="fce5d199c5624790adabedeeae6f4761" export-id="d64c908702e04a9bbb7001b4b7a8abd6" cached="false"><path d="M141.61516,36.14342c7.785,2.32049,18.35888,7.40688,25.44765,11.98502c7.0727,4.56776,15.85029,11.84293,21.34319,18.2238c5.83127,6.77395,12.13394,17.11441,15.76113,25.28347c2.76473,6.22665,6.23878,21.83573,6.23878,21.83573s-8.28743-14.28689-12.97009-19.53723c-3.81559-4.27816-7.07612-8.53428-12.12575-12.60656-5.45307-4.39764,3.71394,22.074,2.6034,31.48707-.83216,7.0535-3.80109,16.36233-7.38803,22.49244-3.20428,5.47614-8.03186,11.81547-12.80592,15.50313-3.56754,2.7557-13.62681,6.3326-13.62681,6.3326s3.68213-9.71365,2.62685-13.79099c-1.3494-5.21376-6.56391-11.61997-11.49249-13.79099-15.02923-6.62032-26.47624,2.4688-29.85199,7.88056c0,0-6.84945,8.27535-8.07322,15.9253-3.66478,22.90899,5.62311,29.30752,11.46568,35.33856s12.48225,7.94649,19.39986,9.64632c6.12531,1.50515,14.82013.53095,21.01484-.65671c7.10006-1.36124,16.16622-5.02482,22.65662-8.20892c4.71072-2.31101,14.77606-9.35817,14.77606-9.35817s-11.17407,16.55516-17.40291,22.32826c-5.42027,5.0237-13.91712,10.31191-20.5223,13.62681-8.08989,4.06003-19.53506,8.36459-28.40286,10.17906-7.29925,1.49352-17.38042,2.24826-24.79094,1.4776-8.17652-.85032-26.43272-7.22385-26.43272-7.22385s19.80714.04028,28.07451-1.64178c4.30504-.8759,13.79099-4.92535,13.79099-4.92535s-12.99349-3.98841-18.18108-6.58473c-14.07764-7.04567-18.39479-10.40058-23.18182-15.83149s-7.71704-12.09958-9.20404-17.97167c-1.59642-6.30415-1.16181-21.98399-1.16181-21.98399s6.20622,10.67464,18.56472,10.16315c8.76344-.3627,13.25221-6.1101,15.92531-11.32831c3.95229-7.71536,4.76311-21.76313-.16418-28.8954-9.91538-14.35254-13.05878-13.87216-20.32012-16.83725s-19.20664-2.091-26.86596.93177-16.3632,11.94686-20.94795,19.18905-6.26982,18.62409-7.38803,26.92526c-.99288,7.37071,0,24.79094,0,24.79094s-4.78748-8.69558-6.73131-14.4477-5.05124-16.19705-5.61988-24.46687.36504-21.29,2.66467-30.04036c2.79015-10.61684,8.95075-24.23786,15.10441-33.32821c4.70619-6.9521,19.37305-20.19394,19.37305-20.19394s-9.18868,12.87113-11.60588,19.13468c-2.26603,5.8718-4.80443,20.81918-4.80443,20.81918s17.67619-16.43782,27.07949-20.23682c8.74696-3.53384,22.04397-6.24325,31.19631-3.95591c15.82883,3.95591,22.0093,11.49249,22.16409,11.49249c0,0-14.61922,2.01186-17.07455,8.04474-4.7204,11.59827-1.19448,19.24331,3.7761,24.95512c6.81333,7.82935,20.84871,14.89645,33.16404,9.8507c11.10889-4.55146,19.75968-8.73968,26.43272-30.04465c3.7156-11.86275-6.1757-29.24909-13.79099-39.07446-7.41449-9.56629-33.49239-22.49244-33.49239-22.49244c11.994.86095,20.586,2.06493,25.776,3.61192l-.00002.00002Z" transform="translate(5.284818 11.744041)" fill="#fff" stroke="#fff" stroke-width="0.562"/></svg>
