<svg id="eN9ioD7qyRw1" xmlns="http://www.w3.org/2000/svg" xmlns:xlink="http://www.w3.org/1999/xlink" viewBox="0 0 300 300" shape-rendering="geometricPrecision" text-rendering="geometricPrecision" project-id="be433d9aae0f49d78bd50af5b060e527" export-id="851d877f1d0745a5b9c0f247699d5576" cached="false"><path d="M46.041897,81.682345c-3.283602,4.326027-6.178431,11.874854-5.465321,17.258908.524891,3.96298,3.84017,9.038553,7.19121,11.21829c2.854362,1.856665,8.95207,2.82095,12.487914,1.811996c4.252464-1.213442,8.536298-6.143265,11.386909-9.578505c5.878427-7.084029,14.314073-15.118047,25.888361-23.299527c13.968151-9.873622,31.310534-11.895678,45.448458-12.944181c12.670445-.939671,30.011327,1.249334,41.996676,5.465321c10.484825,3.68816,22.688735,11.346973,30.766774,18.981065c6.703682,6.335266,19.731679,16.690991,26.941686,36.896406c4.235292,11.869037,6.514822,27.953878,5.574201,41.635359-.941704,13.697241-4.124814,31.645561-10.067697,43.722566-5.278451,10.72676-16.229943,23.005207-25.313066,30.778385-4.643932,3.974195-19.349375,9.970545-19.349375,9.970545q14.180548-11.455112,19.044709-17.500543c4.37491-5.437364,13.411921-14.290538,17.563571-30.151951c3.172095-12.119017,4.350492-29.401656,2.013538-41.709028-2.154331-11.345601-8.758231-25.956056-15.820667-35.093113-6.980926-9.031604-19.472067-18.662873-29.627793-23.874823-8.922038-4.578818-22.204703-8.342922-32.216629-8.917102-11.685405-.670153-28.584825-.107132-38.544895,6.040618-3.790146,2.339428-7.75888,7.713142-8.629455,12.081235-.675103,3.387318.495751,8.470804,2.588835,11.218291c2.199477,2.887144,7.078602,5.068556,10.642992,5.752969c5.119272.982972,12.912994-1.632306,18.167916-3.438686c5.490367-1.887314,14.196242-2.938059,24.979352.84985c8.265353,2.903467,19.460594,7.318404,26.17601,12.944181c8.136681,6.816429,17.356147,18.507056,20.998337,28.477198c4.094906,11.209406,5.227708,28.056958,2.588835,39.695488-2.34084,10.324078-10.276151,22.821803-17.258909,30.778386-5.043221,5.746556-13.342466,12.360509-20.423042,15.245369-9.674788,3.941828-24.071965,4.756343-34.517817,4.602375-9.092755-.134024-22.901401-2.814773-32.396634-5.456548q-8.613516-2.396463-27.721898-10.939415c0,0,13.649674,14.051854,20.998337,17.834203c11.630778,5.986349,28.390626,8.983849,41.467287,9.318951c16.444523.421407,37.108577-4.378974,52.75899-10.809159c10.769181-4.424664,25.72871-12.696075,34.640233-20.946373c11.755846-10.883575,24.033379-29.040687,31.066034-43.434918c4.267041-8.733653,8.547158-21.367998,9.20475-31.066035c1.305364-19.251261-2.089088-45.873866-9.780047-63.570311-7.225217-16.6248-23.52264-35.793031-37.394301-47.461997-10.282464-8.649701-26.435212-17.784941-39.40784-21.285986-18.255037-4.926659-44.690872-7.46227-62.995014-2.013539-14.47033,4.307492-33.886297,11.366969-46.293452,20.030001-10.481221,7.31829-11.581241,7.463467-29.358063,30.883784Z" transform="translate(.000031 0.000007)" fill="#fff" stroke-width="0.6"/><path d="M155.881825,197.43056c4.606844,4.483312,5.77744,14.999888,11.376307,18.158336c3.544631,1.999607,9.92702,2.044917,13.564057.218775c3.613788-1.814468,7.114107-6.967431,7.875904-10.938757c2.945517-15.355279-5.688153-22.752613-5.688153-22.752613s-5.963087-12.381713-26.03424-16.408134c-9.542982-1.914392-23.671686.55502-31.941169,5.688153-7.416686,4.603775-14.672612,15.079075-17.283235,23.408939-2.749068,8.771607-2.594113,22.115995.8751,30.628517c2.629353,6.451731,9.94841,13.209713,15.751796,17.064456c6.104836,4.054973,15.773396,7.983718,22.971388,8.313455c6.584186.301619,15.562661-2.618892,21.221198-5.688151c4.54305-2.464206,13.126506-11.157533,13.126506-11.157533s-10.521501,7.805614-15.75181,9.626105c-5.120435,1.782248-17.939561,2.187751-17.939561,2.187751-5.002302,0-6.584298,1.058386-15.75181-5.469378-4.3421-3.09181-9.03095-9.02432-10.938758-14.001608-2.048538-5.344438-3.180504-13.6232-1.312652-19.033436c1.759203-5.095535,7.480117-10.458436,12.032631-13.345283c6.81916-4.324175,7.984669-3.910049,11.595081-3.500402c4.206187.477245,5.457389.388959,12.25142,7.000808Z" transform="translate(.000015 0.000004)" fill="#fff" stroke-width="0.6"/></svg>
