<svg id="eF8AoCgVUYB1" xmlns="http://www.w3.org/2000/svg" xmlns:xlink="http://www.w3.org/1999/xlink" viewBox="0 0 300 300" shape-rendering="geometricPrecision" text-rendering="geometricPrecision" project-id="be433d9aae0f49d78bd50af5b060e527" export-id="b40b119fc4134bfcb451baf6dda9458a" cached="false"><path d="M104.447855,16.85434c0,0-9.219023,24.612536-9.819062,35.705679-.815619,15.078654,2.058515,35.822196,8.033778,49.690405c3.238496,7.516347,11.4191,21.687618,17.928679,29.861157C124.603358,137.149252,136.056366,147,136.056366,147s-17.766169-4.423572-24.764923-7.853707c-5.167246-2.532501-14.683489-6.106998-21.591795-11.034712-9.500168-6.776496-15.899169-14.851906-15.899169-14.851906s-7.099345-11.802959-8.882462-17.188297c-1.957285-5.911357-3.83766-14.153119-3.316978-20.302667.404883-4.781888.889296-12.465135,3.316978-19.169937c3.827082-10.569676,5.661022-14.810402,10.072652-19.808763c3.330202-3.773108,8.515015-8.450073,14.708979-12.308899c6.939332-4.323188,14.748207-7.626772,14.748207-7.626772Z" fill="#fff" stroke-width="0.6"/><path d="M104.447855,16.85434c0,0-9.219023,24.612536-9.819062,35.705679-.815619,15.078654,2.058515,35.822196,8.033778,49.690405c3.238496,7.516347,11.4191,21.687618,17.928679,29.861157C124.603358,137.149252,136.056366,147,136.056366,147s-17.766169-4.423572-24.764923-7.853707c-5.167246-2.532501-14.683489-6.106998-21.591795-11.034712-9.500168-6.776496-15.899169-14.851906-15.899169-14.851906s-7.099345-11.802959-8.882462-17.188297c-1.957285-5.911357-3.83766-14.153119-3.316978-20.302667.404883-4.781888.889296-12.465135,3.316978-19.169937c3.827082-10.569676,5.661022-14.810402,10.072652-19.808763c3.330202-3.773108,8.515015-8.450073,14.708979-12.308899c6.939332-4.323188,14.748207-7.626772,14.748207-7.626772Z" transform="matrix(-1 0 0 1 306.056366 0)" fill="#fff" stroke-width="0.6"/><path d="M43.442026,56.598774c0,0,2.897743,17.950803,5.317042,25.328396c2.087058,6.364433,6.053659,14.433351,9.242838,20.323254c2.910102,5.374491,6.792718,12.691001,10.919909,17.198787c6.560839,7.165858,17.600257,14.342157,25.706977,19.697081c9.641052,6.368432,24.442078,11.808873,33.543642,18.927042c7.166289,5.604625,16.029863,11.369147,20.827565,22.04204.67962,1.511871,2.56554,6.788511,2.56554,6.788511s1.844682-4.627526,2.693345-6.586291c3.618006-8.350573,11.362687-15.008935,17.593188-20.019834c6.427399-5.169255,16.666669-9.649679,24.064245-13.297761c5.283454-2.605512,13.579611-5.535124,18.552351-8.693515c7.562552-4.803287,16.065813-12.438981,21.891758-18.857273c4.243965-4.675466,9.14884-11.634201,12.133232-17.198788c3.091012-5.763387,6.080854-14.037535,7.886602-20.323253c2.136198-7.435997,4.853293-25.328396,4.853293-25.328396s6.155616,13.197053,7.886601,19.169936c2.245233,7.747332,4.887726,18.41907,4.651073,26.481714-.215829,7.353194-2.235383,17.345858-5.651073,23.861156-2.443547,4.660973-8.134601,9.200986-11.739894,13.034712-5.936893,6.313056-13.620798,8.460793-20.019834,10.853707-7.858657,2.938738-19.111718,4.242922-27.299774,6.073335-5.643252,1.261531-13.441967,2.065856-18.806511,4.224426-6.31145,2.539584-14.221619,7.330039-19.402069,11.739895-2.665477,2.268987-7.389703,5.555123-11.021668,12.94277-2.056427,4.182902-4.523907,10.534521-4.57152,15.334798-.047516,4.790476,1.683078,11.35091,4.257734,15.390967c2.613378,4.100819,8.176842,7.995069,12.335454,10.515468c2.909525,1.763368,7.113677,4.195406,10.515468,4.246632c4.203036.063291,8.979228-4.28637,13.144335-4.853293c2.171529-.295572,9.065202-.66446,7.27994.606661-7.947855,5.658936-9.239891,8.309913-12.942115,12.133233-3.707991,3.829276-11.728791,13.346556-11.728791,13.346556s-10.947119,15.787392-15.166541,22.850922c-3.563134,5.96487-3.983703,20.018496-10.91991,20.424275-8.50104.497324-8.371311-14.002245-11.931012-20.019834-3.904176-6.599916-8.251759-15.975571-12.942115-22.04204-4.460588-5.769289-12.120598-11.945138-17.188746-17.188746-2.628881-2.719893-8.552128-10.892883-8.042309-10.383067-.20222,0,8.44675.069819,8.44675.069819s6.162189,3.517776,9.099924,3.63997c3.930557.16349,9.127204-1.8814,12.537674-3.842191c3.79621-2.182566,8.231652-6.304029,10.717689-9.908806c2.67342-3.876485,5.732429-9.852769,5.864396-14.55988.128228-4.573723-2.758588-10.399057-4.896626-14.444324-2.927943-5.539803-7.63599-12.816449-12.566563-16.683195-5.453326-4.276709-14.622682-7.018911-21.233157-9.099925-7.915855-2.491954-18.947263-3.891745-26.988666-5.896809-6.25154-1.558775-14.83484-3.087652-20.677605-5.803094-5.771152-2.682159-12.97272-7.495027-17.549855-11.916567-3.010886-2.908534-6.377045-7.514314-8.233265-11.266574-1.963691-3.969507-5.793783-10.818507-6.283281-21.233157-.353533-7.521821,1.017718-17.661105,3.033308-24.91646c2.013155-7.246592,10.241027-22.88299,10.241027-22.88299Z" transform="translate(.198111 0.198111)" fill="#fff" stroke-width="0.6"/></svg>
