<?xml version="1.0" encoding="UTF-8"?>
<svg version="1.1" xmlns="http://www.w3.org/2000/svg" width="512" height="512">
<path d="M0 0 C4.97203286 1.55448803 9.2270161 4.10976906 13.7109375 6.73046875 C14.72260986 7.31207764 15.73428223 7.89368652 16.77661133 8.49291992 C19.96925973 10.33245482 23.15356203 12.1857264 26.3359375 14.04296875 C27.3151416 14.61305664 28.2943457 15.18314453 29.30322266 15.77050781 C33.20437536 18.04239812 37.10392672 20.31696281 40.99951172 22.59838867 C48.74819474 27.13330635 56.53514329 31.59862942 64.3359375 36.04296875 C74.05727849 41.58265774 83.74488842 47.17671938 93.40283203 52.82641602 C103.92678375 58.98063617 114.48973887 65.06666871 125.05371094 71.15185547 C131.54930066 74.89440516 138.04199792 78.64197118 144.53491211 82.38916016 C149.62218782 85.32479634 154.71019854 88.25913487 159.8008728 91.18887329 C162.21137498 92.5762497 164.62145126 93.96436499 167.03149414 95.35253906 C168.73737718 96.3347069 170.44387736 97.3158026 172.15039062 98.296875 C173.17970703 98.88984375 174.20902344 99.4828125 175.26953125 100.09375 C176.17759521 100.61622314 177.08565918 101.13869629 178.02124023 101.67700195 C179.82719951 102.74274841 181.59114879 103.87977627 183.3359375 105.04296875 C183.6632118 107.8799026 183.79246479 110.50403296 183.79763794 113.34718323 C183.8107847 114.21642219 183.82393146 115.08566115 183.83747661 115.98124069 C183.87773179 118.91142244 183.89619648 121.8413334 183.91455078 124.77172852 C183.93824711 126.86578098 183.96305354 128.95982113 183.9888916 131.05384827 C184.06764632 137.94723765 184.11349039 144.84068251 184.15625 151.734375 C184.17232653 154.10599238 184.18845904 156.47760938 184.20464706 158.849226 C184.26955351 168.71521164 184.32576211 178.58118238 184.35951424 188.44732761 C184.40822048 202.59267431 184.50768766 216.73554683 184.67871678 230.8799606 C184.79482889 240.82146098 184.85341352 250.7622999 184.86927593 260.70446056 C184.88023825 266.64429751 184.91629406 272.581498 185.01358414 278.52060127 C185.10386408 284.11217831 185.12276342 289.69952701 185.08743286 295.29167747 C185.08677074 297.34084474 185.11168658 299.39020842 185.16439438 301.43869781 C185.53083803 316.50399631 185.53083803 316.50399631 181.88058805 320.72645831 C178.33269591 323.62816766 174.44054457 325.51746787 170.21703506 327.23868263 C167.35861591 328.46083447 164.75206189 330.06684519 162.09765625 331.67578125 C160.07368443 332.84117816 158.04892699 334.00521159 156.0234375 335.16796875 C153.75648974 336.47262032 151.48956326 337.77730888 149.22265625 339.08203125 C148.08103027 339.73848633 146.9394043 340.39494141 145.76318359 341.07128906 C140.28437953 344.22322107 134.81032637 347.38337672 129.3359375 350.54296875 C127.16929524 351.79301105 125.00262853 353.04301099 122.8359375 354.29296875 C121.7634375 354.91171875 120.6909375 355.53046875 119.5859375 356.16796875 C57.83593749 391.79296876 57.83593749 391.79296876 54.58251953 393.66992188 C52.42722439 394.91337385 50.27195077 396.15686311 48.11669922 397.40039062 C43.11256076 400.2875975 38.1082323 403.17447305 33.10308838 406.05993652 C31.35252509 407.06915979 29.60203339 408.07850711 27.8515625 409.08789062 C25.67201585 410.34464535 23.49233918 411.60117461 21.3125 412.85742188 C20.3121875 413.43427734 19.311875 414.01113281 18.28125 414.60546875 C17.29672852 415.1571875 16.31220703 415.70890625 15.29785156 416.27734375 C12.2662409 418.02057212 12.2662409 418.02057212 9.33496094 420.24609375 C6.32909556 422.35478788 3.84364652 423.94491821 0.3359375 425.04296875 C-4.2978103 424.01332986 -7.76239114 421.6739958 -11.6640625 419.04296875 C-13.47062822 418.00393612 -15.28304697 416.97500462 -17.1015625 415.95703125 C-18.95776277 414.86412364 -20.81185832 413.76763514 -22.6640625 412.66796875 C-32.54994874 406.8460868 -42.48599399 401.12041914 -52.46435547 395.45904541 C-54.17750932 394.48704112 -55.88955137 393.51307808 -57.6015625 392.5390625 C-58.65085938 391.94464355 -59.70015625 391.35022461 -60.78125 390.73779297 C-63.34122143 389.23276912 -65.77575602 387.62675 -68.2265625 385.953125 C-69.3609375 385.32277344 -70.4953125 384.69242187 -71.6640625 384.04296875 C-73.72697862 384.82400568 -73.72697862 384.82400568 -75.6640625 386.04296875 C-78.79448266 386.9820948 -81.91545399 387.8636397 -85.09375 388.625 C-92.06549239 390.43680539 -96.95432158 392.91805156 -100.98046875 399.046875 C-104.33352376 405.57773823 -105.03874698 412.51212092 -102.8984375 419.56640625 C-101.42685086 423.08186322 -99.90407916 425.76294931 -97.4140625 428.66796875 C-95.56508293 431.17729816 -94.95407533 432.82423673 -95.03955078 435.94775391 C-96.52210706 440.92167806 -101.09510785 444.41764253 -104.7265625 447.91796875 C-105.57412109 448.78421875 -106.42167969 449.65046875 -107.29492188 450.54296875 C-110.90972675 454.10473788 -113.6015781 456.68479102 -118.453125 458.3203125 C-122.26985957 457.99064321 -123.93981073 457.02992115 -126.9765625 454.73046875 C-133.50955492 450.26193768 -139.3639716 448.25378444 -147.2890625 449.54296875 C-153.61134818 451.29978088 -158.06685086 454.92774253 -161.9765625 460.10546875 C-164.21925434 464.48265239 -164.95748312 469.35565031 -165.85546875 474.15234375 C-166.7289159 477.27481183 -167.07143559 478.19109238 -169.6640625 480.04296875 C-172.80273437 480.44702148 -172.80273437 480.44702148 -176.6328125 480.4765625 C-177.30953003 480.48180435 -177.98624756 480.4870462 -178.68347168 480.4924469 C-180.11237212 480.49886233 -181.54132541 480.49753619 -182.97021484 480.48901367 C-185.15687958 480.48049673 -187.34093676 480.50927508 -189.52734375 480.54101562 C-190.91666588 480.54262762 -192.30599264 480.54205013 -193.6953125 480.5390625 C-194.95923828 480.54091553 -196.22316406 480.54276855 -197.52539062 480.54467773 C-200.6640625 480.04296875 -200.6640625 480.04296875 -202.54907227 478.20092773 C-203.99376594 475.40485867 -204.52167129 472.75832066 -205.1015625 469.66796875 C-206.83272132 461.76293232 -209.70001724 456.97582711 -216.33203125 452.3125 C-222.21523066 449.10975325 -228.31990177 448.36540688 -234.7890625 450.04296875 C-239.23694329 451.59373543 -242.72750757 453.96849677 -246.36328125 456.93359375 C-248.95262862 458.18210759 -250.83226536 458.45216415 -253.66821289 457.8984375 C-258.27781395 455.92265253 -261.60011463 451.95724249 -265.0390625 448.41796875 C-266.26689453 447.22494141 -266.26689453 447.22494141 -267.51953125 446.0078125 C-274.05995768 439.4023072 -274.05995768 439.4023072 -274.80859375 435.140625 C-274.61701783 431.03468694 -273.12507731 429.30215053 -270.6640625 426.04296875 C-266.45571342 418.91215503 -264.70983559 412.50161906 -266.81640625 404.3125 C-269.15027291 398.06376024 -273.50692719 393.38280141 -279.23828125 390.06640625 C-283.31684906 388.34565784 -287.56950198 387.53880792 -291.90625 386.71875 C-294.6640625 386.04296875 -294.6640625 386.04296875 -296.6640625 384.04296875 C-297.06354721 379.64295538 -296.99307811 375.22838713 -296.97973633 370.81225586 C-296.97657933 368.61716954 -297.00002011 366.4234349 -297.02539062 364.22851562 C-297.02766393 362.83463712 -297.02836697 361.44075498 -297.02734375 360.046875 C-297.03032471 358.77658447 -297.03330566 357.50629395 -297.03637695 356.19750977 C-296.6640625 353.04296875 -296.6640625 353.04296875 -295.36303711 351.16503906 C-292.5140633 349.2834636 -289.21094142 348.89343623 -285.9140625 348.23046875 C-278.52435663 346.54694682 -273.73691624 344.64270634 -269.40625 338.16015625 C-265.83808298 331.79734094 -264.74011823 325.36070768 -266.71484375 318.24609375 C-268.35501754 314.43927063 -270.84030427 311.1700014 -273.30078125 307.8515625 C-275.24340031 303.84943327 -275.09880364 302.29015353 -273.6640625 298.04296875 C-270.9246917 294.41259153 -267.78540947 291.28176806 -264.5390625 288.10546875 C-263.27449219 286.79352539 -263.27449219 286.79352539 -261.984375 285.45507812 C-255.74763444 279.2522329 -255.74763444 279.2522329 -250.80078125 278.296875 C-247.60756916 279.05640615 -246.03040858 279.76243232 -243.6015625 281.91796875 C-237.8999142 286.53151623 -232.81777032 287.58232322 -225.54296875 287.4140625 C-219.00976176 286.57192591 -213.55501927 283.56293771 -209.2265625 278.60546875 C-206.02497139 273.92828397 -205.37591903 268.74111278 -204.59765625 263.21484375 C-203.6640625 260.04296875 -203.6640625 260.04296875 -198.6640625 256.04296875 C-194.0440625 256.04296875 -189.4240625 256.04296875 -184.6640625 256.04296875 C-184.6640625 206.21296875 -184.6640625 156.38296875 -184.6640625 105.04296875 C-176.4140625 100.42296875 -168.1640625 95.80296875 -159.6640625 91.04296875 C-150.7009206 85.83766528 -150.7009206 85.83766528 -141.75390625 80.60546875 C-135.44835831 76.91083565 -129.12111814 73.25444194 -122.7890625 69.60546875 C-121.70890869 68.98293213 -120.62875488 68.36039551 -119.51586914 67.71899414 C-117.32609916 66.45720049 -115.13623895 65.19556341 -112.94628906 63.93408203 C-107.51746308 60.80616727 -102.09086969 57.67438427 -96.6640625 54.54296875 C-94.49740667 53.29294996 -92.33074 52.04294997 -90.1640625 50.79296875 C-89.0915625 50.17421875 -88.0190625 49.55546875 -86.9140625 48.91796875 C-77.1640625 43.29296875 -77.1640625 43.29296875 -73.91357422 41.41772461 C-71.74849179 40.16861357 -69.58345268 38.91942746 -67.41845703 37.67016602 C-61.97790544 34.53094566 -56.53659034 31.39306312 -51.09375 28.2578125 C-40.16518392 21.96095799 -29.24659243 15.64771055 -18.3515625 9.29296875 C-17.34915527 8.70829834 -16.34674805 8.12362793 -15.31396484 7.52124023 C-10.13271413 4.50904157 -10.13271413 4.50904157 -5.02905273 1.36889648 C-2.6640625 0.04296875 -2.6640625 0.04296875 0 0 Z M-227.6640625 336.04296875 C-237.45477532 350.02706234 -239.83004549 364.44261043 -237.16015625 381.20703125 C-236.4946848 383.60272846 -235.678113 385.77480681 -234.6640625 388.04296875 C-234.35855469 388.831875 -234.05304688 389.62078125 -233.73828125 390.43359375 C-228.57720855 402.36974734 -218.12469175 412.62886698 -206.12109375 417.47265625 C-190.82184029 423.08192932 -176.53648624 423.38081316 -161.4140625 416.5234375 C-157.04860571 414.17328391 -153.35584747 411.33486986 -149.6640625 408.04296875 C-149.04917969 407.52089844 -148.43429688 406.99882812 -147.80078125 406.4609375 C-137.33913024 396.9271491 -133.00919578 383.94160542 -131.3203125 370.2578125 C-130.78222357 356.46928373 -136.36626812 343.2323725 -144.9765625 332.66796875 C-155.50016259 321.53498424 -169.66700681 315.36327337 -184.8515625 314.66796875 C-201.92032478 315.07781191 -216.88862448 322.97448769 -227.6640625 336.04296875 Z " fill="#D8AC8C" transform="translate(312.6640625,15.95703125)"/>
<path d="M0 0 C0.495 0.99 0.495 0.99 1 2 C1.86109375 2.28488281 2.7221875 2.56976563 3.609375 2.86328125 C7.4931637 4.16533483 10.77459765 6.06988196 14.25 8.1875 C15.76618915 9.09498405 17.28316888 10.00114806 18.80078125 10.90625 C19.62916504 11.40125 20.45754883 11.89625 21.31103516 12.40625 C26.32667865 15.3790229 31.38418227 18.27939472 36.4375 21.1875 C37.54319336 21.82453857 38.64888672 22.46157715 39.78808594 23.11791992 C42.06024082 24.42700657 44.33254009 25.73584262 46.60498047 27.04443359 C52.0716998 30.19332054 57.53574887 33.34683264 63 36.5 C65.16665311 37.7500235 67.33331979 39.00002347 69.5 40.25 C73.83333333 42.75 78.16666667 45.25 82.5 47.75 C83.57266113 48.36883057 84.64532227 48.98766113 85.75048828 49.62524414 C87.91557071 50.87435518 90.08060982 52.12354129 92.24560547 53.37280273 C97.68615706 56.51202309 103.12747216 59.64990563 108.5703125 62.78515625 C119.99329243 69.36709803 131.39938064 75.97591835 142.77685547 82.63623047 C148.36193934 85.89889575 153.96421879 89.12914523 159.5859375 92.328125 C160.22510101 92.69204849 160.86426453 93.05597198 161.52279663 93.43092346 C164.65078819 95.2111604 167.78070839 96.98787671 170.91357422 98.75952148 C172.04037598 99.39962158 173.16717773 100.03972168 174.328125 100.69921875 C175.3274707 101.26471436 176.32681641 101.83020996 177.35644531 102.4128418 C178.22881836 102.936604 179.10119141 103.46036621 180 104 C180.70460232 104.35429738 181.40920464 104.70859476 182.13515854 105.07362843 C185.04834406 108.08293398 184.53758677 111.44663871 184.48101807 115.40910339 C184.48443577 116.27737977 184.48785347 117.14565614 184.49137473 118.04024392 C184.49798374 120.96099893 184.47592783 123.8808428 184.45410156 126.80151367 C184.45297374 128.89059935 184.45360567 130.97968661 184.45587158 133.06877136 C184.45702219 138.75036872 184.43345667 144.43163029 184.40557575 150.1131494 C184.38061986 156.04687673 184.37822469 161.98061122 184.37347412 167.91438293 C184.36102724 179.15538553 184.32818242 190.39623305 184.28807616 201.63716727 C184.24341174 214.43261846 184.22138482 227.22807694 184.20129442 240.02358663 C184.15945133 266.34914382 184.08906598 292.67456323 184 319 C179.17012699 317.46856653 175.0619332 315.44005964 170.75 312.8125 C169.23905751 311.90755681 167.72728256 311.00400264 166.21484375 310.1015625 C164.97323486 309.3595459 164.97323486 309.3595459 163.70654297 308.60253906 C157.50240658 304.92908144 151.23591433 301.36138701 144.97900391 297.77880859 C139.46849281 294.61418929 133.99517772 291.40698053 128.58203125 288.078125 C127.5768042 287.46493408 126.57157715 286.85174316 125.53588867 286.2199707 C123.63321582 285.05487681 121.73840904 283.87681222 119.8527832 282.68432617 C119.00675537 282.16845947 118.16072754 281.65259277 117.2890625 281.12109375 C116.55381348 280.6614624 115.81856445 280.20183105 115.06103516 279.72827148 C112.98975097 278.74401275 112.98975097 278.74401275 110.92724609 279.80883789 C110.29125488 280.20192139 109.65526367 280.59500488 109 281 C105.86957984 281.93912605 102.74860851 282.82067095 99.5703125 283.58203125 C92.59857011 285.39383664 87.70974092 287.87508281 83.68359375 294.00390625 C80.33053874 300.53476948 79.62531552 307.46915217 81.765625 314.5234375 C83.23721164 318.03889447 84.75998334 320.71998056 87.25 323.625 C89.09897957 326.13432941 89.70998717 327.78126798 89.62451172 330.90478516 C88.14195544 335.87870931 83.56895465 339.37467378 79.9375 342.875 C79.08994141 343.74125 78.24238281 344.6075 77.36914062 345.5 C73.75433575 349.06176913 71.0624844 351.64182227 66.2109375 353.27734375 C62.39420293 352.94767446 60.72425177 351.9869524 57.6875 349.6875 C51.15450758 345.21896893 45.3000909 343.21081569 37.375 344.5 C31.05271432 346.25681213 26.59721164 349.88477378 22.6875 355.0625 C20.44480816 359.43968364 19.70657938 364.31268156 18.80859375 369.109375 C17.9351466 372.23184308 17.59262691 373.14812363 15 375 C11.86132813 375.40405273 11.86132813 375.40405273 8.03125 375.43359375 C7.35453247 375.4388356 6.67781494 375.44407745 5.98059082 375.44947815 C4.55169038 375.45589358 3.12273709 375.45456744 1.69384766 375.44604492 C-0.49281708 375.43752798 -2.67687426 375.46630633 -4.86328125 375.49804688 C-6.25260338 375.49965887 -7.64193014 375.49908138 -9.03125 375.49609375 C-10.29517578 375.49794678 -11.55910156 375.4997998 -12.86132812 375.50170898 C-16 375 -16 375 -17.88500977 373.15795898 C-19.32970344 370.36188992 -19.85760879 367.71535191 -20.4375 364.625 C-22.16865882 356.71996357 -25.03595474 351.93285836 -31.66796875 347.26953125 C-37.55116816 344.0667845 -43.65583927 343.32243813 -50.125 345 C-54.57288079 346.55076668 -58.06344507 348.92552802 -61.69921875 351.890625 C-64.28856612 353.13913884 -66.16820286 353.4091954 -69.00415039 352.85546875 C-73.61375145 350.87968378 -76.93605213 346.91427374 -80.375 343.375 C-81.60283203 342.18197266 -81.60283203 342.18197266 -82.85546875 340.96484375 C-89.39589518 334.35933845 -89.39589518 334.35933845 -90.14453125 330.09765625 C-89.95295533 325.99171819 -88.46101481 324.25918178 -86 321 C-81.79165092 313.86918628 -80.04577309 307.45865031 -82.15234375 299.26953125 C-84.48621041 293.02079149 -88.84286469 288.33983266 -94.57421875 285.0234375 C-98.65278656 283.30268909 -102.90543948 282.49583917 -107.2421875 281.67578125 C-110 281 -110 281 -112 279 C-112.39948471 274.59998663 -112.32901561 270.18541838 -112.31567383 265.76928711 C-112.31251683 263.57420079 -112.33595761 261.38046615 -112.36132812 259.18554688 C-112.36360143 257.79166837 -112.36430447 256.39778623 -112.36328125 255.00390625 C-112.36626221 253.73361572 -112.36924316 252.4633252 -112.37231445 251.15454102 C-112 248 -112 248 -110.69897461 246.12207031 C-107.8500008 244.24049485 -104.54687892 243.85046748 -101.25 243.1875 C-93.86029413 241.50397807 -89.07285374 239.59973759 -84.7421875 233.1171875 C-81.17402048 226.75437219 -80.07605573 220.31773893 -82.05078125 213.203125 C-83.69095504 209.39630188 -86.17624177 206.12703265 -88.63671875 202.80859375 C-90.57933781 198.80646452 -90.43474114 197.24718478 -89 193 C-86.2606292 189.36962278 -83.12134697 186.23879931 -79.875 183.0625 C-78.61042969 181.75055664 -78.61042969 181.75055664 -77.3203125 180.41210938 C-71.08357194 174.20926415 -71.08357194 174.20926415 -66.13671875 173.25390625 C-62.94350666 174.0134374 -61.36634608 174.71946357 -58.9375 176.875 C-53.2358517 181.48854748 -48.15370782 182.53935447 -40.87890625 182.37109375 C-34.34569926 181.52895716 -28.89095677 178.51996896 -24.5625 173.5625 C-21.36090889 168.88531522 -20.71185653 163.69814403 -19.93359375 158.171875 C-19 155 -19 155 -14 151 C-9.38 151 -4.76 151 0 151 C0 101.17 0 51.34 0 0 Z M-43 231 C-52.79071282 244.98409359 -55.16598299 259.39964168 -52.49609375 276.1640625 C-51.8306223 278.55975971 -51.0140505 280.73183806 -50 283 C-49.69449219 283.78890625 -49.38898438 284.5778125 -49.07421875 285.390625 C-43.91314605 297.32677859 -33.46062925 307.58589823 -21.45703125 312.4296875 C-6.15777779 318.03896057 8.12757626 318.33784441 23.25 311.48046875 C27.61545679 309.13031516 31.30821503 306.29190111 35 303 C35.61488281 302.47792969 36.22976562 301.95585937 36.86328125 301.41796875 C47.32493226 291.88418035 51.65486672 278.89863667 53.34375 265.21484375 C53.88183893 251.42631498 48.29779438 238.18940375 39.6875 227.625 C29.16389991 216.49201549 14.99705569 210.32030462 -0.1875 209.625 C-17.25626228 210.03484316 -32.22456198 217.93151894 -43 231 Z " fill="#C79E81" transform="translate(128,121)"/>
<path d="M0 0 C1.22332031 0.03996094 2.44664063 0.07992188 3.70703125 0.12109375 C5.61548828 0.21583984 5.61548828 0.21583984 7.5625 0.3125 C8.84511719 0.34472656 10.12773437 0.37695312 11.44921875 0.41015625 C20.8550495 0.79346597 20.8550495 0.79346597 23.89453125 3.0234375 C25.83288706 5.68356983 26.22925508 7.43966236 26.625 10.6875 C27.73194761 17.86357419 29.88411274 22.60064675 35.5625 27.3125 C41.95465269 31.45261313 47.92339157 33.81430615 55.5625 32.3125 C59.95746622 30.64697246 63.94007611 28.579449 67.6484375 25.68359375 C69.5625 24.3125 69.5625 24.3125 72.8125 23.6875 C78.26418761 24.5961146 80.75709032 27.47323436 84.5625 31.3125 C85.45195312 32.17746094 86.34140625 33.04242188 87.2578125 33.93359375 C95.35846154 41.88423077 95.35846154 41.88423077 96 46.375 C95.47630079 51.08829287 93.85708829 53.37239876 91.0703125 57.1015625 C87.50890042 62.32373669 86.77290164 67.14193505 87.5625 73.3125 C89.25967413 79.48654426 91.50312065 84.21681196 96.5625 88.3125 C97.408125 89.034375 98.25375 89.75625 99.125 90.5 C103.32481938 92.71445022 107.06951199 93.14781929 111.7578125 93.625 C115.26136079 94.48380849 116.35479815 95.475105 118.5625 98.3125 C119.06420898 101.47290039 119.06420898 101.47290039 119.05859375 105.16015625 C119.06004898 105.81326279 119.06150421 106.46636932 119.06300354 107.13926697 C119.06134854 108.51517209 119.04983152 109.89109649 119.02905273 111.2668457 C119.00004058 113.3720554 119.00845972 115.47475355 119.02148438 117.58007812 C119.01524797 118.91928306 119.00685778 120.25848006 118.99609375 121.59765625 C118.98634521 122.81332275 118.97659668 124.02898926 118.96655273 125.28149414 C118.5625 128.3125 118.5625 128.3125 117.22753906 130.18603516 C114.62908445 131.94399257 111.94888954 132.1365008 108.875 132.625 C101.28431441 134.15878802 96.51835921 136.1728446 91.97265625 142.5390625 C88.46345079 148.66316066 87.45332118 154.34197254 88.5625 161.3125 C89.93701544 165.81281704 91.74870406 169.36307141 94.8125 172.9375 C96.66147957 175.44682941 97.27248717 177.09376798 97.18701172 180.21728516 C95.70445544 185.19120931 91.13145465 188.68717378 87.5 192.1875 C86.65244141 193.05375 85.80488281 193.92 84.93164062 194.8125 C81.31683575 198.37426913 78.6249844 200.95432227 73.7734375 202.58984375 C69.95670293 202.26017446 68.28675177 201.2994524 65.25 199 C58.71700758 194.53146893 52.8625909 192.52331569 44.9375 193.8125 C38.61521432 195.56931213 34.15971164 199.19727378 30.25 204.375 C28.00730816 208.75218364 27.26907938 213.62518156 26.37109375 218.421875 C25.4976466 221.54434308 25.15512691 222.46062363 22.5625 224.3125 C19.42382812 224.71655273 19.42382812 224.71655273 15.59375 224.74609375 C14.57867371 224.75395653 14.57867371 224.75395653 13.54309082 224.76197815 C12.11419038 224.76839358 10.68523709 224.76706744 9.25634766 224.75854492 C7.06968292 224.75002798 4.88562574 224.77880633 2.69921875 224.81054688 C1.30989662 224.81215887 -0.07943014 224.81158138 -1.46875 224.80859375 C-2.73267578 224.81044678 -3.99660156 224.8122998 -5.29882812 224.81420898 C-8.4375 224.3125 -8.4375 224.3125 -10.32250977 222.47045898 C-11.76720344 219.67438992 -12.29510879 217.02785191 -12.875 213.9375 C-14.60615882 206.03246357 -17.47345474 201.24535836 -24.10546875 196.58203125 C-29.98866816 193.3792845 -36.09333927 192.63493813 -42.5625 194.3125 C-47.01038079 195.86326668 -50.50094507 198.23802802 -54.13671875 201.203125 C-56.72606612 202.45163884 -58.60570286 202.7216954 -61.44165039 202.16796875 C-66.05125145 200.19218378 -69.37355213 196.22677374 -72.8125 192.6875 C-74.04033203 191.49447266 -74.04033203 191.49447266 -75.29296875 190.27734375 C-81.83339518 183.67183845 -81.83339518 183.67183845 -82.58203125 179.41015625 C-82.39045533 175.30421819 -80.89851481 173.57168178 -78.4375 170.3125 C-74.22915092 163.18168628 -72.48327309 156.77115031 -74.58984375 148.58203125 C-76.92371041 142.33329149 -81.28036469 137.65233266 -87.01171875 134.3359375 C-91.09028656 132.61518909 -95.34293948 131.80833917 -99.6796875 130.98828125 C-102.4375 130.3125 -102.4375 130.3125 -104.4375 128.3125 C-104.83698471 123.91248663 -104.76651561 119.49791838 -104.75317383 115.08178711 C-104.75001683 112.88670079 -104.77345761 110.69296615 -104.79882812 108.49804688 C-104.80110143 107.10416837 -104.80180447 105.71028623 -104.80078125 104.31640625 C-104.80376221 103.04611572 -104.80674316 101.7758252 -104.80981445 100.46704102 C-104.4375 97.3125 -104.4375 97.3125 -103.13647461 95.43457031 C-100.2875008 93.55299485 -96.98437892 93.16296748 -93.6875 92.5 C-86.29779413 90.81647807 -81.51035374 88.91223759 -77.1796875 82.4296875 C-73.61152048 76.06687219 -72.51355573 69.63023893 -74.48828125 62.515625 C-76.12845504 58.70880188 -78.61374177 55.43953265 -81.07421875 52.12109375 C-83.01683781 48.11896452 -82.87224114 46.55968478 -81.4375 42.3125 C-78.6981292 38.68212278 -75.55884697 35.55129931 -72.3125 32.375 C-71.04792969 31.06305664 -71.04792969 31.06305664 -69.7578125 29.72460938 C-63.52107194 23.52176415 -63.52107194 23.52176415 -58.57421875 22.56640625 C-55.38100666 23.3259374 -53.80384608 24.03196357 -51.375 26.1875 C-45.6733517 30.80104748 -40.59120782 31.85185447 -33.31640625 31.68359375 C-26.78319926 30.84145716 -21.32845677 27.83246896 -17 22.875 C-13.79840889 18.19781522 -13.14935653 13.01064403 -12.37109375 7.484375 C-10.46146313 0.99642496 -6.31604598 -0.21175183 0 0 Z M-35.4375 80.3125 C-45.22821282 94.29659359 -47.60348299 108.71214168 -44.93359375 125.4765625 C-44.2681223 127.87225971 -43.4515505 130.04433806 -42.4375 132.3125 C-42.13199219 133.10140625 -41.82648438 133.8903125 -41.51171875 134.703125 C-36.35064605 146.63927859 -25.89812925 156.89839823 -13.89453125 161.7421875 C1.40472221 167.35146057 15.69007626 167.65034441 30.8125 160.79296875 C35.17795679 158.44281516 38.87071503 155.60440111 42.5625 152.3125 C43.17738281 151.79042969 43.79226562 151.26835937 44.42578125 150.73046875 C54.88743226 141.19668035 59.21736672 128.21113667 60.90625 114.52734375 C61.44433893 100.73881498 55.86029438 87.50190375 47.25 76.9375 C36.72639991 65.80451549 22.55955569 59.63280462 7.375 58.9375 C-9.69376228 59.34734316 -24.66206198 67.24401894 -35.4375 80.3125 Z " fill="#636C76" transform="translate(120.4375,271.6875)"/>
<path d="M0 0 C2.62162221 1.3490186 5.18603266 2.73614456 7.75 4.1875 C8.53584473 4.62819824 9.32168945 5.06889648 10.13134766 5.52294922 C17.60478958 9.73446208 25.00816444 14.0659669 32.40917969 18.40307617 C40.24228207 22.98957991 48.11298111 27.50721119 56 32 C65.72143706 37.53951839 75.40895317 43.13375194 85.06689453 48.78344727 C95.59084625 54.93766742 106.15380137 61.02369996 116.71777344 67.10888672 C123.21847963 70.85438435 129.71625032 74.60497265 136.21435547 78.35498047 C141.23653702 81.25294889 146.25927066 84.14994287 151.28442383 87.04275513 C153.05045522 88.05947198 154.81627431 89.07655658 156.58203125 90.09375 C158.78734155 91.36400873 160.99304216 92.63359018 163.19921875 93.90234375 C164.20597656 94.48242188 165.21273437 95.0625 166.25 95.66015625 C167.12140625 96.16168213 167.9928125 96.66320801 168.890625 97.17993164 C169.91671875 97.7805542 170.9428125 98.38117676 172 99 C172.83445145 99.28082428 173.66890289 99.56164856 174.52864075 99.85098267 C177.80495806 101.20152791 179.65207809 102.31835586 182 105 C184.07158574 111.23063343 183.58025148 118.22052552 183.57421875 124.703125 C183.59875269 126.66601994 183.62521597 128.62889162 183.65351868 130.59173584 C183.69981383 134.70454169 183.70641817 138.81521896 183.68823242 142.92822266 C183.67046198 148.18207802 183.77567389 153.42533128 183.91435528 158.67708206 C184.00338514 162.73216745 184.01374682 166.78472692 184.00229836 170.8406601 C184.00852914 172.77527292 184.04169211 174.71000469 184.10306358 176.64365387 C184.5181043 191.30646693 184.5181043 191.30646693 180.34926605 195.76573563 C176.28553043 198.91272632 171.84890654 201.06023284 167.13448906 203.05620956 C163.89140521 204.49017874 160.93605097 206.29042318 157.8984375 208.1171875 C155.72439529 209.37054991 153.54992449 210.62316922 151.375 211.875 C150.27027344 212.51179687 149.16554688 213.14859375 148.02734375 213.8046875 C145.93031966 215.01305672 143.83240476 216.21988201 141.73339844 217.42480469 C140.0652886 218.38609842 138.40086826 219.3538792 136.74316406 220.33300781 C132.20763828 223 132.20763828 223 130 223 C130 193.63 130 164.26 130 134 C128.35 133.34 126.7 132.68 125 132 C123.19848416 131.05954766 121.41280792 130.08837437 119.640625 129.09375 C118.10450562 128.23342163 118.10450562 128.23342163 116.53735352 127.35571289 C115.45252686 126.74332764 114.3677002 126.13094238 113.25 125.5 C112.12327881 124.86634521 110.99655762 124.23269043 109.83569336 123.57983398 C103.04482257 119.74999436 96.29015254 115.86664399 89.5847168 111.8894043 C83.27275475 108.14695337 76.92058399 104.47596521 70.5625 100.8125 C69.45527588 100.17449463 68.34805176 99.53648926 67.20727539 98.87915039 C64.93662932 97.57110523 62.66587642 96.26324552 60.39501953 94.95556641 C54.92830025 91.80667949 49.46422354 88.6532151 44 85.5 C37.47767561 81.73634635 30.95486237 77.97355377 24.4296875 74.21484375 C13.00528793 67.63208398 1.59827577 61.02161561 -9.78125 54.36157227 C-15.34251316 51.11336425 -20.91972433 47.89506831 -26.515625 44.70703125 C-27.15005524 44.3454744 -27.78448547 43.98391754 -28.43814087 43.61140442 C-31.53602728 41.84684654 -34.63566962 40.08546729 -37.73779297 38.32836914 C-38.85814941 37.6914917 -39.97850586 37.05461426 -41.1328125 36.3984375 C-42.61612061 35.55804932 -42.61612061 35.55804932 -44.12939453 34.70068359 C-47.16786966 32.90054601 -50.07860156 30.98317072 -53 29 C-50.18666679 25.96395822 -47.47348294 23.94363695 -43.84375 21.96875 C-42.32334106 21.13162476 -42.32334106 21.13162476 -40.7722168 20.27758789 C-39.69238525 19.69098389 -38.61255371 19.10437988 -37.5 18.5 C-28.22932821 13.4118194 -19.10629349 8.16730838 -10.1953125 2.46875 C-9.43347656 1.99566406 -8.67164063 1.52257813 -7.88671875 1.03515625 C-7.22889404 0.6162915 -6.57106934 0.19742676 -5.89331055 -0.23413086 C-3.46937629 -1.2146443 -2.42157866 -0.9064829 0 0 Z " fill="#EEC6A3" transform="translate(248,55)"/>
<path d="M0 0 C0.39485432 11.43018184 0.69640429 22.8587298 0.88080692 34.29435539 C0.96934507 39.60559667 1.08925581 44.91215713 1.2824707 50.22070312 C1.46797874 55.34993992 1.56897149 60.47469578 1.61291313 65.60702896 C1.64419523 67.55882508 1.7053021 69.51038984 1.79741096 71.4602623 C2.35929022 83.85419945 2.35929022 83.85419945 0 89 C-4.05781823 93.40452372 -9.42057014 95.77357718 -14.85984612 98.05960846 C-18.10874573 99.48718698 -21.06233822 101.28788952 -24.1015625 103.1171875 C-26.27560471 104.37054991 -28.45007551 105.62316922 -30.625 106.875 C-32.28208984 107.83019531 -32.28208984 107.83019531 -33.97265625 108.8046875 C-36.06968034 110.01305672 -38.16759524 111.21988201 -40.26660156 112.42480469 C-41.9347114 113.38609842 -43.59913174 114.3538792 -45.25683594 115.33300781 C-49.79236172 118 -49.79236172 118 -52 118 C-52 88.63 -52 59.26 -52 29 C-48.04 27.02 -44.08 25.04 -40 23 C-38.02069815 21.91529786 -36.05139473 20.81146629 -34.10546875 19.66796875 C-33.13681885 19.10094238 -32.16816895 18.53391602 -31.17016602 17.94970703 C-30.18588623 17.36817871 -29.20160645 16.78665039 -28.1875 16.1875 C-27.15230225 15.58019043 -26.11710449 14.97288086 -25.05053711 14.34716797 C-18.40585736 10.44218376 -11.78003472 6.50528987 -5.2019043 2.48901367 C-1.10436479 0 -1.10436479 0 0 0 Z " fill="#E5BC9A" transform="translate(430,160)"/>
</svg>
