<?xml version="1.0" encoding="UTF-8"?>
<svg version="1.1" xmlns="http://www.w3.org/2000/svg" width="512" height="512">
<path d="M0 0 C1.15456192 -0.0071553 2.30912384 -0.01431061 3.49867249 -0.02168274 C5.92480709 -0.02941943 8.35101199 -0.02453401 10.77709961 -0.00756836 C14.46017587 0.01165361 18.13947169 -0.02779397 21.82226562 -0.07226562 C24.19401263 -0.07255605 26.56576305 -0.06941432 28.9375 -0.0625 C30.02224106 -0.07778244 31.10698212 -0.09306488 32.22459412 -0.10881042 C42.4590494 0.04484971 50.77319351 3.62947838 58.03515625 10.88671875 C67.41493031 21.31554649 66.72467565 36.79542404 67.66015625 49.94921875 C67.89227084 53.08493727 68.12895748 56.22016447 68.37374878 59.35491943 C68.52430265 61.29429438 68.66725261 63.23428 68.80130005 65.17486572 C69.18697942 70.26722425 69.7740881 74.88751311 71.53515625 79.69921875 C74.35758736 81.1104343 76.40604187 80.96256006 79.53515625 80.69921875 C81.90665999 79.41299269 81.90665999 79.41299269 84.03515625 77.44921875 C84.89238281 76.72089844 85.74960937 75.99257812 86.6328125 75.2421875 C88.06947266 73.98341797 88.06947266 73.98341797 89.53515625 72.69921875 C90.65757074 71.7354824 91.78132947 70.77330999 92.90625 69.8125 C95.29894121 67.76690589 97.68780846 65.71697934 100.07421875 63.6640625 C124.02217643 43.11171076 124.02217643 43.11171076 140.7734375 43.390625 C155.57372836 44.60477139 164.9681084 56.89989622 174.88183594 66.75073242 C176.15344239 68.01075806 177.42951886 69.26628815 178.70996094 70.51733398 C180.58355609 72.34808632 182.44338253 74.1918963 184.30078125 76.0390625 C184.86750549 76.58827866 185.43422974 77.13749481 186.01812744 77.70335388 C193.00364525 84.72710973 195.65604038 92.00138397 195.84765625 101.82421875 C195.80584683 114.7046174 190.30290739 121.79338905 182.02294922 131.03027344 C178.24212088 135.27145207 174.59941989 139.63477327 170.95849609 143.99609375 C169.97014512 145.17872435 168.97800576 146.35819511 167.98291016 147.53515625 C166.42206752 149.38988944 164.88290439 151.26077512 163.34765625 153.13671875 C162.86554688 153.70382568 162.3834375 154.27093262 161.88671875 154.85522461 C159.70105226 157.56687719 158.57255617 159.45237929 158.046875 162.921875 C158.35399996 165.64359919 158.35399996 165.64359919 159.625 167.51171875 C162.420963 169.24990434 164.81641926 169.3707529 168.09765625 169.69921875 C168.80293457 169.77479004 169.50821289 169.85036133 170.23486328 169.92822266 C175.02591653 170.42123341 179.82449058 170.8051519 184.62638855 171.17596436 C187.62946752 171.4093171 190.6316897 171.65301258 193.63400269 171.89599609 C195.86797811 172.0709162 198.10273866 172.22727428 200.33813477 172.3828125 C210.72787395 173.16825451 220.90666491 174.45477699 228.91015625 181.76171875 C230.06644531 182.76912109 230.06644531 182.76912109 231.24609375 183.796875 C237.63790721 191.9011709 239.29939671 200.04631948 239.234375 210.1640625 C239.24510796 211.89590538 239.24510796 211.89590538 239.25605774 213.66273499 C239.26379443 216.08886959 239.25890901 218.51507449 239.24194336 220.94116211 C239.22272139 224.62423837 239.26216897 228.30353419 239.30664062 231.98632812 C239.30693105 234.35807513 239.30378932 236.72982555 239.296875 239.1015625 C239.31215744 240.18630356 239.32743988 241.27104462 239.34318542 242.38865662 C239.18952529 252.6231119 235.60489662 260.93725601 228.34765625 268.19921875 C217.91882851 277.57899281 202.43895096 276.88873815 189.28515625 277.82421875 C186.14943773 278.05633334 183.01421053 278.29301998 179.87945557 278.53781128 C177.94008062 278.68836515 176.000095 278.83131511 174.05950928 278.96536255 C168.96715075 279.35104192 164.34686189 279.9381506 159.53515625 281.69921875 C158.1239407 284.52164986 158.27181494 286.57010437 158.53515625 289.69921875 C159.82138231 292.07072249 159.82138231 292.07072249 161.78515625 294.19921875 C162.87763672 295.48505859 162.87763672 295.48505859 163.9921875 296.796875 C165.25095703 298.23353516 165.25095703 298.23353516 166.53515625 299.69921875 C167.4988926 300.82163324 168.46106501 301.94539197 169.421875 303.0703125 C171.46746911 305.46300371 173.51739566 307.85187096 175.5703125 310.23828125 C196.12266424 334.18623893 196.12266424 334.18623893 195.84375 350.9375 C194.62960361 365.73779086 182.33447878 375.1321709 172.48364258 385.04589844 C171.22361694 386.31750489 169.96808685 387.59358136 168.71704102 388.87402344 C166.88628868 390.74761859 165.0424787 392.60744503 163.1953125 394.46484375 C162.64609634 395.03156799 162.09688019 395.59829224 161.53102112 396.18218994 C154.50726527 403.16770775 147.23299103 405.82010288 137.41015625 406.01171875 C124.5297576 405.96990933 117.44098595 400.46696989 108.20410156 392.18701172 C103.96292293 388.40618338 99.59960173 384.76348239 95.23828125 381.12255859 C94.05565065 380.13420762 92.87617989 379.14206826 91.69921875 378.14697266 C89.84448556 376.58613002 87.97359988 375.04696689 86.09765625 373.51171875 C85.53054932 373.02960938 84.96344238 372.5475 84.37915039 372.05078125 C81.66749781 369.86511476 79.78199571 368.73661867 76.3125 368.2109375 C73.59077581 368.51806246 73.59077581 368.51806246 71.72265625 369.7890625 C69.98447066 372.5850255 69.8636221 374.98048176 69.53515625 378.26171875 C69.42179932 379.31963623 69.42179932 379.31963623 69.30615234 380.39892578 C68.81314159 385.18997903 68.4292231 389.98855308 68.05841064 394.79045105 C67.8250579 397.79353002 67.58136242 400.7957522 67.33837891 403.79806519 C67.1634588 406.03204061 67.00710072 408.26680116 66.8515625 410.50219727 C66.06612049 420.89193645 64.77959801 431.07072741 57.47265625 439.07421875 C56.80105469 439.84507812 56.12945312 440.6159375 55.4375 441.41015625 C47.3332041 447.80196971 39.18805552 449.46345921 29.0703125 449.3984375 C27.91575058 449.4055928 26.76118866 449.41274811 25.57164001 449.42012024 C23.14550541 449.42785693 20.71930051 449.42297151 18.29321289 449.40600586 C14.61013663 449.38678389 10.93084081 449.42623147 7.24804688 449.47070312 C4.87629987 449.47099355 2.50454945 449.46785182 0.1328125 449.4609375 C-0.95192856 449.47621994 -2.03666962 449.49150238 -3.15428162 449.50724792 C-13.3887369 449.35358779 -21.70288101 445.76895912 -28.96484375 438.51171875 C-38.34461781 428.08289101 -37.65436315 412.60301346 -38.58984375 399.44921875 C-38.82195834 396.31350023 -39.05864498 393.17827303 -39.30343628 390.04351807 C-39.45399015 388.10414312 -39.59694011 386.1641575 -39.73098755 384.22357178 C-40.11666692 379.13121325 -40.7037756 374.51092439 -42.46484375 369.69921875 C-45.28727486 368.2880032 -47.33572937 368.43587744 -50.46484375 368.69921875 C-52.83634749 369.98544481 -52.83634749 369.98544481 -54.96484375 371.94921875 C-56.25068359 373.04169922 -56.25068359 373.04169922 -57.5625 374.15625 C-58.52027344 374.99542969 -59.47804687 375.83460938 -60.46484375 376.69921875 C-61.58725824 377.6629551 -62.71101697 378.62512751 -63.8359375 379.5859375 C-66.22862871 381.63153161 -68.61749596 383.68145816 -71.00390625 385.734375 C-94.95186393 406.28672674 -94.95186393 406.28672674 -111.703125 406.0078125 C-126.50341586 404.79366611 -135.8977959 392.49854128 -145.81152344 382.64770508 C-147.08312989 381.38767944 -148.35920636 380.13214935 -149.63964844 378.88110352 C-151.51324359 377.05035118 -153.37307003 375.2065412 -155.23046875 373.359375 C-156.08055511 372.53555077 -156.08055511 372.53555077 -156.94781494 371.69508362 C-163.93333275 364.67132777 -166.58572788 357.39705353 -166.77734375 347.57421875 C-166.73553433 334.6938201 -161.23259489 327.60504845 -152.95263672 318.36816406 C-149.17180838 314.12698543 -145.52910739 309.76366423 -141.88818359 305.40234375 C-140.89983262 304.21971315 -139.90769326 303.04024239 -138.91259766 301.86328125 C-137.35175502 300.00854806 -135.81259189 298.13766238 -134.27734375 296.26171875 C-133.79523438 295.69461182 -133.313125 295.12750488 -132.81640625 294.54321289 C-130.63073976 291.83156031 -129.50224367 289.94605821 -128.9765625 286.4765625 C-129.28368746 283.75483831 -129.28368746 283.75483831 -130.5546875 281.88671875 C-133.3506505 280.14853316 -135.74610676 280.0276846 -139.02734375 279.69921875 C-140.08526123 279.58586182 -140.08526123 279.58586182 -141.16455078 279.47021484 C-145.95560403 278.97720409 -150.75417808 278.5932856 -155.55607605 278.22247314 C-158.55915502 277.9891204 -161.5613772 277.74542492 -164.56369019 277.50244141 C-166.79766561 277.3275213 -169.03242616 277.17116322 -171.26782227 277.015625 C-181.65756145 276.23018299 -191.83635241 274.94366051 -199.83984375 267.63671875 C-200.61070312 266.96511719 -201.3815625 266.29351562 -202.17578125 265.6015625 C-208.56759471 257.4972666 -210.22908421 249.35211802 -210.1640625 239.234375 C-210.1712178 238.07981308 -210.17837311 236.92525116 -210.18574524 235.73570251 C-210.19348193 233.30956791 -210.18859651 230.88336301 -210.17163086 228.45727539 C-210.15240889 224.77419913 -210.19185647 221.09490331 -210.23632812 217.41210938 C-210.23661855 215.04036237 -210.23347682 212.66861195 -210.2265625 210.296875 C-210.24184494 209.21213394 -210.25712738 208.12739288 -210.27287292 207.00978088 C-210.11921279 196.7753256 -206.53458412 188.46118149 -199.27734375 181.19921875 C-188.84851601 171.81944469 -173.36863846 172.50969935 -160.21484375 171.57421875 C-157.07912523 171.34210416 -153.94389803 171.10541752 -150.80914307 170.86062622 C-148.86976812 170.71007235 -146.9297825 170.56712239 -144.98919678 170.43307495 C-139.89683825 170.04739558 -135.27654939 169.4602869 -130.46484375 167.69921875 C-129.0536282 164.87678764 -129.20150244 162.82833313 -129.46484375 159.69921875 C-130.75106981 157.32771501 -130.75106981 157.32771501 -132.71484375 155.19921875 C-133.44316406 154.34199219 -134.17148438 153.48476562 -134.921875 152.6015625 C-135.76105469 151.64378906 -136.60023438 150.68601563 -137.46484375 149.69921875 C-138.4285801 148.57680426 -139.39075251 147.45304553 -140.3515625 146.328125 C-142.39715661 143.93543379 -144.44708316 141.54656654 -146.5 139.16015625 C-167.05235174 115.21219857 -167.05235174 115.21219857 -166.7734375 98.4609375 C-165.55929111 83.66064664 -153.26416628 74.2662666 -143.41333008 64.35253906 C-142.15330444 63.08093261 -140.89777435 61.80485614 -139.64672852 60.52441406 C-137.81597618 58.65081891 -135.9721662 56.79099247 -134.125 54.93359375 C-133.57578384 54.36686951 -133.02656769 53.80014526 -132.46070862 53.21624756 C-125.43695277 46.23072975 -118.16267853 43.57833462 -108.33984375 43.38671875 C-95.4594451 43.42852817 -88.37067345 48.93146761 -79.13378906 57.21142578 C-74.89261043 60.99225412 -70.52928923 64.63495511 -66.16796875 68.27587891 C-64.98533815 69.26422988 -63.80586739 70.25636924 -62.62890625 71.25146484 C-60.77417306 72.81230748 -58.90328738 74.35147061 -57.02734375 75.88671875 C-56.46023682 76.36882812 -55.89312988 76.8509375 -55.30883789 77.34765625 C-52.59718531 79.53332274 -50.71168321 80.66181883 -47.2421875 81.1875 C-44.52046331 80.88037504 -44.52046331 80.88037504 -42.65234375 79.609375 C-40.91415816 76.813412 -40.7933096 74.41795574 -40.46484375 71.13671875 C-40.38927246 70.43144043 -40.31370117 69.72616211 -40.23583984 68.99951172 C-39.74282909 64.20845847 -39.3589106 59.40988442 -38.98809814 54.60798645 C-38.7547454 51.60490748 -38.51104992 48.6026853 -38.26806641 45.60037231 C-38.0931463 43.36639689 -37.93678822 41.13163634 -37.78125 38.89624023 C-36.99580799 28.50650105 -35.70928551 18.32771009 -28.40234375 10.32421875 C-27.39494141 9.16792969 -27.39494141 9.16792969 -26.3671875 7.98828125 C-18.2628916 1.59646779 -10.11774302 -0.06502171 0 0 Z M-40.04296875 177.91015625 C-54.90884566 195.02989192 -57.82317263 214.82901344 -56.46484375 236.69921875 C-54.12072247 254.61745313 -42.77148023 270.12823051 -29.46484375 281.69921875 C-20.75998909 288.17409114 -11.7965946 291.77419087 -1.46484375 294.69921875 C-0.53248901 294.96641724 -0.53248901 294.96641724 0.41870117 295.23901367 C14.31086429 298.25974588 29.60060756 296.17791324 42.53515625 290.69921875 C43.48519531 290.30347656 44.43523437 289.90773438 45.4140625 289.5 C61.24604004 282.22454162 75.02581223 268.01046815 81.10546875 251.67578125 C82.36768443 248.05065614 83.48942205 244.39294941 84.53515625 240.69921875 C84.71401367 240.07909912 84.89287109 239.45897949 85.07714844 238.82006836 C88.93915082 220.93669167 84.6838823 202.15284998 75.53515625 186.69921875 C64.50272312 170.08280226 48.65669373 158.62220494 29.16967773 154.15722656 C2.27494931 149.48161628 -21.32484054 158.66885054 -40.04296875 177.91015625 Z " fill="#B3ABBB" transform="translate(241.46484375,31.30078125)"/>
<path d="M0 0 C2.41071567 2.13773757 4.76693309 4.3145941 7.09375 6.54296875 C7.939375 7.34734375 8.785 8.15171875 9.65625 8.98046875 C10.8628125 10.24890625 10.8628125 10.24890625 12.09375 11.54296875 C12.73570312 12.19007813 13.37765625 12.8371875 14.0390625 13.50390625 C28.78611348 28.97032557 38.35638258 48.863984 43.09375 69.54296875 C43.48714743 70.91866766 43.88248734 72.29381542 44.28125 73.66796875 C50.93398822 105.39641257 43.65878572 139.06325907 27.09375 166.54296875 C20.83899041 176.06609656 13.34531773 184.69391652 5.09375 192.54296875 C4.44664062 193.18492187 3.79953125 193.826875 3.1328125 194.48828125 C-21.30106153 217.78569602 -54.65768707 227.28683072 -87.73828125 226.73046875 C-93.93283307 226.55185489 -99.84548407 225.83851331 -105.90625 224.54296875 C-107.20304687 224.29804688 -108.49984375 224.053125 -109.8359375 223.80078125 C-140.71510165 217.60416161 -169.58252286 197.8176344 -187.47241211 171.9453125 C-206.23311695 143.58913669 -214.201424 109.87436588 -208.64453125 76.1171875 C-204.32796427 55.21952194 -196.29711696 36.27895531 -182.90625 19.54296875 C-182.27154785 18.73327637 -182.27154785 18.73327637 -181.62402344 17.90722656 C-176.57322096 11.48554669 -171.35029087 5.59620943 -164.90625 0.54296875 C-164.02453125 -0.1634375 -163.1428125 -0.86984375 -162.234375 -1.59765625 C-114.50901193 -38.71738308 -46.73984694 -39.51527382 0 0 Z M-136.484375 51.75390625 C-151.35025191 68.87364192 -154.26457888 88.67276344 -152.90625 110.54296875 C-150.56212872 128.46120313 -139.21288648 143.97198051 -125.90625 155.54296875 C-117.20139534 162.01784114 -108.23800085 165.61794087 -97.90625 168.54296875 C-96.97389526 168.81016724 -96.97389526 168.81016724 -96.02270508 169.08276367 C-82.13054196 172.10349588 -66.84079869 170.02166324 -53.90625 164.54296875 C-52.95621094 164.14722656 -52.00617188 163.75148438 -51.02734375 163.34375 C-35.19536621 156.06829162 -21.41559402 141.85421815 -15.3359375 125.51953125 C-14.07372182 121.89440614 -12.9519842 118.23669941 -11.90625 114.54296875 C-11.72739258 113.92284912 -11.54853516 113.30272949 -11.36425781 112.66381836 C-7.50225543 94.78044167 -11.75752395 75.99659998 -20.90625 60.54296875 C-31.93868313 43.92655226 -47.78471252 32.46595494 -67.27172852 28.00097656 C-94.16645694 23.32536628 -117.76624679 32.51260054 -136.484375 51.75390625 Z " fill="#998EA4" transform="translate(337.90625,157.45703125)"/>
<path d="M0 0 C18.21663832 14.41352518 30.60018075 34.93198575 34 58 C35.31610387 71.42667431 34.05280143 84.16389215 30 97 C29.649375 98.13695312 29.29875 99.27390625 28.9375 100.4453125 C21.6681834 121.39507908 5.88749888 138.22550297 -13.4375 148.6875 C-36.91940044 159.71961129 -61.28649169 161.48470607 -85.8046875 152.6796875 C-107.9029825 143.83069847 -125.75885299 126.86073029 -135.22558594 104.95947266 C-144.3129261 81.96609557 -145.03886908 57.52402918 -135.203125 34.68359375 C-124.97755133 12.43620257 -107.57518703 -3.65435806 -85 -13 C-56.02299293 -22.77563398 -24.48311115 -18.67663866 0 0 Z M-108.578125 23.2109375 C-123.44400191 40.33067317 -126.35832888 60.12979469 -125 82 C-122.65587872 99.91823438 -111.30663648 115.42901176 -98 127 C-89.29514534 133.47487239 -80.33175085 137.07497212 -70 140 C-69.06764526 140.26719849 -69.06764526 140.26719849 -68.11645508 140.53979492 C-54.22429196 143.56052713 -38.93454869 141.47869449 -26 136 C-25.04996094 135.60425781 -24.09992188 135.20851563 -23.12109375 134.80078125 C-7.28911621 127.52532287 6.49065598 113.3112494 12.5703125 96.9765625 C13.83252818 93.35143739 14.9542658 89.69373066 16 86 C16.17885742 85.37988037 16.35771484 84.75976074 16.54199219 84.12084961 C20.40399457 66.23747292 16.14872605 47.45363123 7 32 C-4.03243313 15.38358351 -19.87846252 3.92298619 -39.36547852 -0.54199219 C-66.26020694 -5.21760247 -89.85999679 3.96963179 -108.578125 23.2109375 Z " fill="#CBC2D4" transform="translate(310,186)"/>
<path d="M0 0 C1.36089276 1.13783667 2.71565895 2.28306482 4.0625 3.4375 C4.65160156 3.88351563 5.24070312 4.32953125 5.84765625 4.7890625 C19.8988816 15.73557519 29.09157735 34.73914482 31.77685547 52.11132812 C34.42040497 73.63931075 29.79388106 94.94328842 16.5 112.375 C15.36216333 113.73589276 14.21693518 115.09065895 13.0625 116.4375 C12.61648438 117.02660156 12.17046875 117.61570312 11.7109375 118.22265625 C0.42915401 132.70424383 -19.04621322 141.60921488 -36.9375 144.4375 C-59.81383745 146.65325977 -81.10610928 141.05339403 -98.9375 126.4375 C-99.64132813 125.89609375 -100.34515625 125.3546875 -101.0703125 124.796875 C-115.82042904 112.88109458 -125.65152887 93.24366263 -127.75 74.52636719 C-129.86357701 50.97979829 -123.85900475 29.68372281 -108.625 11.40234375 C-81.28625678 -19.64522162 -33.08657384 -25.23269015 0 0 Z M-102.515625 17.6484375 C-117.38150191 34.76817317 -120.29582888 54.56729469 -118.9375 76.4375 C-116.59337872 94.35573438 -105.24413648 109.86651176 -91.9375 121.4375 C-83.23264534 127.91237239 -74.26925085 131.51247212 -63.9375 134.4375 C-63.00514526 134.70469849 -63.00514526 134.70469849 -62.05395508 134.97729492 C-48.16179196 137.99802713 -32.87204869 135.91619449 -19.9375 130.4375 C-18.98746094 130.04175781 -18.03742188 129.64601563 -17.05859375 129.23828125 C-1.22661621 121.96282287 12.55315598 107.7487494 18.6328125 91.4140625 C19.89502818 87.78893739 21.0167658 84.13123066 22.0625 80.4375 C22.24135742 79.81738037 22.42021484 79.19726074 22.60449219 78.55834961 C26.46649457 60.67497292 22.21122605 41.89113123 13.0625 26.4375 C2.03006687 9.82108351 -13.81596252 -1.63951381 -33.30297852 -6.10449219 C-60.19770694 -10.78010247 -83.79749679 -1.59286821 -102.515625 17.6484375 Z " fill="#998EA4" transform="translate(303.9375,191.5625)"/>
</svg>
