<?xml version="1.0" encoding="UTF-8"?>
<svg version="1.1" xmlns="http://www.w3.org/2000/svg" width="512" height="512">
<path d="M0 0 C11.759884 0.56099258 23.25465587 2.25884129 34.875 4.0625 C36.73820378 4.34751211 38.60148465 4.63202075 40.46484375 4.91601562 C44.97747047 5.60488745 49.48900526 6.30052445 54 7 C53.87882812 7.81041748 53.75765625 8.62083496 53.6328125 9.45581055 C53.17806843 12.5281752 52.73187373 15.60163989 52.29101562 18.67602539 C52.00765972 20.63455665 51.7148968 22.59171967 51.421875 24.54882812 C48.77716864 39.1111164 48.77716864 39.1111164 51.75 53.125 C55.04703607 57.33787942 57.72945501 59.46304485 63.09375 60.34375 C75.40585417 61.14323728 84.74242009 51.02065825 93.80664062 43.80029297 C94.54978516 43.21006348 95.29292969 42.61983398 96.05859375 42.01171875 C96.72173584 41.48022217 97.38487793 40.94872559 98.06811523 40.40112305 C99.97402677 39.0188374 101.86692959 37.98739511 104 37 C110.93852053 45.16836412 117.28360423 53.71665698 123.6015625 62.3671875 C125.67513435 65.20513486 127.76594295 68.02637052 129.8984375 70.8203125 C130.32253906 71.37662354 130.74664062 71.93293457 131.18359375 72.50610352 C132.29342545 73.95593488 133.4082368 75.40195062 134.5234375 76.84765625 C136 79 136 79 136 81 C134.41455078 82.38525391 134.41455078 82.38525391 132.1953125 83.9765625 C130.98500366 84.85344727 130.98500366 84.85344727 129.75024414 85.74804688 C128.88391357 86.36744141 128.01758301 86.98683594 127.125 87.625 C125.37540131 88.89719962 123.62669519 90.17062772 121.87890625 91.4453125 C121.03473145 92.05922852 120.19055664 92.67314453 119.32080078 93.30566406 C108.30838475 100.92659017 108.30838475 100.92659017 102.0625 112.375 C101.96059578 118.28544488 103.62607051 122.29187145 107.3125 126.875 C112.23557975 130.76766771 117.94335366 131.44414107 124.0234375 132.2890625 C124.76961334 132.39721283 125.51578918 132.50536316 126.28457642 132.61679077 C128.64734039 132.95804415 131.01111119 133.29163724 133.375 133.625 C134.98574995 133.85626392 136.59642792 134.08802967 138.20703125 134.3203125 C142.13721225 134.88601607 146.06831408 135.44485635 150 136 C150.14338159 142.08078244 149.61295531 147.81758274 148.72265625 153.828125 C148.52644936 155.19526642 148.52644936 155.19526642 148.32627869 156.59002686 C148.05064251 158.50310823 147.77232703 160.41580531 147.49145508 162.328125 C147.06185844 165.25437007 146.64058508 168.18172174 146.22070312 171.109375 C145.95100344 172.9740282 145.68083743 174.83861402 145.41015625 176.703125 C145.28407486 177.57608215 145.15799347 178.44903931 145.02809143 179.34844971 C144.90804245 180.16319763 144.78799347 180.97794556 144.66430664 181.81738281 C144.50775352 182.88705292 144.50775352 182.88705292 144.34803772 183.97833252 C143.99681295 186.01851281 143.52771472 187.99887459 143 190 C142.15405273 189.87882813 141.30810547 189.75765625 140.43652344 189.6328125 C137.23917203 189.17891604 134.04087313 188.73257826 130.84179688 188.29101562 C129.46833894 188.09993698 128.0952727 187.90601699 126.72265625 187.70898438 C111.61425995 184.83846212 111.61425995 184.83846212 97 187.5625 C92.86169164 190.92487554 90.67181053 193.85709511 89.55078125 199.1015625 C88.62404695 210.75782058 99.80687345 221.16015747 106.51757812 229.671875 C107.20916016 230.56132812 107.90074219 231.45078125 108.61328125 232.3671875 C109.24016846 233.16237793 109.86705566 233.95756836 110.51293945 234.77685547 C111.94655026 236.92009303 112.57520831 238.4800249 113 241 C112.53440674 241.3403125 112.06881348 241.680625 111.58911133 242.03125 C109.32868831 243.68539243 107.07026434 245.34223035 104.8125 247 C103.55179687 247.92558716 103.55179687 247.92558716 102.265625 248.86987305 C94.68716259 254.45396653 87.20610962 260.16102672 79.76879883 265.93164062 C78.92728271 266.57939453 78.0857666 267.22714844 77.21875 267.89453125 C76.47560547 268.47050049 75.73246094 269.04646973 74.96679688 269.63989258 C73 271 73 271 70 272 C64.07964835 264.94341924 58.46488361 257.71164524 52.98730469 250.30859375 C52.4977832 249.64859375 52.00826172 248.98859375 51.50390625 248.30859375 C51.06892822 247.71876709 50.6339502 247.12894043 50.18579102 246.52124023 C48.93750056 244.85551579 48.93750056 244.85551579 47 243 C46.73896484 243.62342285 46.47792969 244.2468457 46.20898438 244.88916016 C31.88435243 278.92584036 12.68202578 306.1874576 -17.9375 327.25 C-30.47955076 335.93008433 -37.78429957 346.01632566 -41.40625 361.1015625 C-42.91591799 371.0137247 -42.40722523 381.24706117 -42.36035156 391.25146484 C-42.35173168 394.29572148 -42.37352738 397.33867109 -42.3984375 400.3828125 C-42.38509369 401.29974884 -42.37174988 402.21668518 -42.35800171 403.16140747 C-42.45068314 411.36376073 -45.17151243 417.75758742 -50.5625 423.9375 C-51.366875 424.618125 -52.17125 425.29875 -53 426 C-53.70125 426.598125 -54.4025 427.19625 -55.125 427.8125 C-57 429 -57 429 -60 429 C-59.99555878 429.56661346 -59.99111755 430.13322693 -59.98654175 430.7170105 C-59.94203216 436.65506448 -59.91201975 442.59307047 -59.89013672 448.53125 C-59.88012653 450.74253263 -59.86651432 452.95380218 -59.84912109 455.16503906 C-59.82465262 458.35745487 -59.81346675 461.54969449 -59.8046875 464.7421875 C-59.78920364 466.20686966 -59.78920364 466.20686966 -59.77340698 467.70114136 C-59.77176182 477.94072012 -60.64944048 486.40496511 -68 494 C-75.67973944 501.27554262 -83.99411681 502.31253871 -94.27734375 502.30078125 C-95.12873428 502.30506638 -95.98012482 502.3093515 -96.85731506 502.31376648 C-98.6446952 502.31946852 -100.43209852 502.3200408 -102.21948242 502.31567383 C-104.9273296 502.31251188 -107.63408405 502.33603158 -110.34179688 502.36132812 C-121.77482191 502.40406114 -131.96824736 502.27413018 -141.2421875 494.74609375 C-145.76452149 490.25390866 -148.82253502 485.05222521 -149.10438538 478.61647034 C-149.09150734 477.29340126 -149.09150734 477.29340126 -149.07836914 475.94360352 C-149.07249283 474.93898575 -149.06661652 473.93436798 -149.06056213 472.89930725 C-149.05217819 471.82007492 -149.04379425 470.74084259 -149.03515625 469.62890625 C-149.03886811 467.3404903 -149.04479572 465.05207706 -149.05273438 462.76367188 C-149.06330849 459.15740737 -149.06240059 455.55312334 -149.02416992 451.94702148 C-148.9911064 448.46488543 -149.00860633 444.98603289 -149.03515625 441.50390625 C-149.00132591 439.8880941 -149.00132591 439.8880941 -148.96681213 438.23963928 C-148.91240553 432.72988601 -148.91240553 432.72988601 -151.72897339 428.2897644 C-153.80580201 426.95232908 -153.80580201 426.95232908 -155.96043396 426.00059509 C-160.26320608 423.88968886 -163.08565428 420.20459721 -164.90071106 415.82827759 C-166.87180498 409.45714508 -167.46721317 403.60955847 -167.51171875 396.9609375 C-167.52966995 395.95406891 -167.54762115 394.94720032 -167.56611633 393.90982056 C-167.6197813 390.73158814 -167.65397353 387.55350204 -167.6875 384.375 C-167.72071179 382.20440691 -167.75520495 380.03383302 -167.79101562 377.86328125 C-167.8754818 372.57565225 -167.94401458 367.28800322 -168 362 C-172.09370867 365.4299357 -176.0122924 368.90422944 -179.69921875 372.77734375 C-180.92415039 374.04094727 -180.92415039 374.04094727 -182.17382812 375.33007812 C-183.86893279 377.08840348 -185.55629161 378.85422494 -187.23632812 380.62695312 C-188.04908203 381.46033203 -188.86183594 382.29371094 -189.69921875 383.15234375 C-190.42971436 383.91538818 -191.16020996 384.67843262 -191.9128418 385.46459961 C-194 387 -194 387 -195.92944336 386.9675293 C-198.65389248 385.69444925 -200.97597268 384.10814266 -203.4296875 382.3671875 C-204.47253906 381.64402344 -205.51539063 380.92085938 -206.58984375 380.17578125 C-208.23644702 379.02645118 -209.87883246 377.87226416 -211.51318359 376.70556641 C-213.09945089 375.57728906 -214.70193444 374.47192111 -216.3046875 373.3671875 C-217.25327637 372.69800293 -218.20186523 372.02881836 -219.17919922 371.33935547 C-222.63878189 369.69669747 -224.36702695 369.96035236 -228 371 C-231.04696284 373.13354072 -231.62695208 375.45574079 -232.4375 379 C-232.67984375 380.04671875 -232.9221875 381.0934375 -233.171875 382.171875 C-234.81652076 389.77448277 -236.42220243 397.38304623 -238 405 C-250.21 405 -262.42 405 -275 405 C-278.3125 389.6875 -278.3125 389.6875 -279.3371582 384.8659668 C-279.75227661 382.98905151 -279.75227661 382.98905151 -280.17578125 381.07421875 C-280.45333252 379.79119873 -280.73088379 378.50817871 -281.0168457 377.1862793 C-282.15621577 373.42708923 -282.15621577 373.42708923 -285 371 C-287.81098012 370.05384172 -289.33712286 369.76168078 -292.1472168 370.77197266 C-293.19389526 371.39918213 -293.19389526 371.39918213 -294.26171875 372.0390625 C-295.03950684 372.50473633 -295.81729492 372.97041016 -296.61865234 373.45019531 C-301.23962217 376.45756834 -305.65179781 379.73793255 -310.04492188 383.06640625 C-310.75841797 383.58847656 -311.47191406 384.11054688 -312.20703125 384.6484375 C-312.8410083 385.12458496 -313.47498535 385.60073242 -314.12817383 386.09130859 C-316 387 -316 387 -317.87084961 386.99487305 C-321.12985045 385.47206277 -323.38666171 382.9790687 -325.859375 380.43359375 C-326.40861633 379.88010757 -326.95785767 379.3266214 -327.52374268 378.75636292 C-329.27300464 376.99033441 -331.01153644 375.21415308 -332.75 373.4375 C-333.935505 372.23694559 -335.12169524 371.0370674 -336.30859375 369.83789062 C-339.21373293 366.89970905 -342.10929337 363.95237926 -345 361 C-341.93924029 355.25892326 -338.66851024 349.86357367 -334.8125 344.625 C-333.94369664 343.42991555 -333.07519573 342.23461114 -332.20703125 341.0390625 C-331.47871094 340.03617187 -330.75039063 339.03328125 -330 338 C-327.53675931 334.30513897 -327.61008312 332.36706908 -328 328 C-330.40932804 324.50175857 -333.7850394 324.00378749 -337.75 323 C-338.40307129 322.83266357 -339.05614258 322.66532715 -339.72900391 322.49291992 C-345.822774 320.96547504 -351.97281516 319.75762535 -358.1484375 318.61328125 C-361 318 -361 318 -362 317 C-362.08855161 314.3337397 -362.11524673 311.69352886 -362.09765625 309.02734375 C-362.0962413 308.22970108 -362.09482635 307.43205841 -362.09336853 306.61024475 C-362.08775316 304.05262565 -362.07519812 301.49509282 -362.0625 298.9375 C-362.05748698 297.20768355 -362.05292373 295.47786574 -362.04882812 293.74804688 C-362.03777875 289.49866447 -362.02050386 285.24934688 -362 281 C-346.32720845 277.05479661 -346.32720845 277.05479661 -341.0078125 275.83984375 C-339.72648437 275.54207031 -338.44515625 275.24429687 -337.125 274.9375 C-336.45082031 274.78990234 -335.77664063 274.64230469 -335.08203125 274.49023438 C-330.77153633 273.48051079 -330.77153633 273.48051079 -328 270 C-327.50559286 265.33482492 -328.26643258 262.84673537 -330.875 259 C-331.50277344 258.06542969 -332.13054687 257.13085938 -332.77734375 256.16796875 C-336.8125985 250.41648965 -340.87396924 244.68678284 -345 239 C-343.39202068 235.04230364 -340.65047346 232.31094244 -337.6953125 229.32421875 C-337.17492401 228.79480179 -336.65453552 228.26538483 -336.11837769 227.71992493 C-335.01996594 226.60704659 -333.91875652 225.49692348 -332.81494141 224.3894043 C-331.12537057 222.68787319 -329.45534885 220.96857607 -327.78515625 219.24804688 C-326.71469409 218.16812728 -325.64311678 217.08931169 -324.5703125 216.01171875 C-324.07226105 215.49413498 -323.57420959 214.97655121 -323.06106567 214.44328308 C-319.57943141 211.00631552 -319.57943141 211.00631552 -316.96166992 210.9777832 C-314.49772101 212.26173518 -312.29902723 213.71841983 -310.04296875 215.34375 C-309.09486328 216.01277344 -308.14675781 216.68179688 -307.16992188 217.37109375 C-305.18939602 218.78482864 -303.21278673 220.20406724 -301.24023438 221.62890625 C-294.26258228 226.78358578 -294.26258228 226.78358578 -286 228 C-283.14536454 226.40591662 -282.26961131 224.82112137 -281.26074219 221.74853516 C-280.5439723 218.94939832 -279.94417254 216.14525677 -279.375 213.3125 C-279.17132813 212.35666016 -278.96765625 211.40082031 -278.7578125 210.41601562 C-278.35573953 208.52549945 -277.95945257 206.63374223 -277.56933594 204.74072266 C-276.75437812 200.81760238 -275.87772663 196.90950716 -275 193 C-271.04 193 -267.08 193 -263 193 C-263.04640625 192.02804688 -263.0928125 191.05609375 -263.140625 190.0546875 C-264.39536384 151.37247275 -247.24343828 113.47822516 -221.30078125 85.4296875 C-220.54152344 84.62789063 -219.78226563 83.82609375 -219 83 C-218.23042969 82.17757812 -217.46085938 81.35515625 -216.66796875 80.5078125 C-193.13706607 56.10257903 -160.32618677 40.87614733 -127 36 C-126.3723877 35.89341064 -125.74477539 35.78682129 -125.09814453 35.67700195 C-120.18088308 34.95852187 -115.52914178 35.08294788 -110.5703125 35.39453125 C-89.71668416 36.63187377 -89.71668416 36.63187377 -71.87158203 26.5949707 C-70.55961174 25.38005862 -69.26560945 24.14539524 -67.9921875 22.89013672 C-64.56333548 19.63692932 -60.77305749 16.83907292 -57 14 C-52.49129546 18.25252815 -48.77179694 22.96682834 -45 27.875 C-44.39671875 28.65230469 -43.7934375 29.42960937 -43.171875 30.23046875 C-40.45918517 33.73927407 -37.80757268 37.25619907 -35.3046875 40.91796875 C-32.32154569 44.9072889 -29.66563255 46.48947912 -25 48 C-19.91872518 48.7258964 -16.43350969 47.63857369 -11.89453125 45.55859375 C-6.83507602 41.39627903 -5.34095857 35.53839463 -4.4375 29.3125 C-4.32237061 28.59715088 -4.20724121 27.88180176 -4.08862305 27.14477539 C-3.71036588 24.76530063 -3.35426589 22.38315873 -3 20 C-2.71660699 18.14836686 -2.43273966 16.29680626 -2.1484375 14.4453125 C-1.41476801 9.63269438 -0.70241532 4.81727387 0 0 Z M9 82 C10.95281876 85.45359615 13.03894829 88.29751888 15.75 91.1875 C23.60715869 99.90493154 29.38846154 109.75434269 35 120 C35.5259375 120.93199219 36.051875 121.86398438 36.59375 122.82421875 C46.55171648 141.38947009 50.88680183 162.24093558 53 183 C62.5027739 174.66647121 67.31326063 159.38865184 68.30859375 147.23046875 C69.03219121 131.02465361 64.38047572 116.06048426 53.625 103.75 C52.10073817 102.14990425 50.55995163 100.56532152 49 99 C48.38511719 98.36191406 47.77023437 97.72382812 47.13671875 97.06640625 C37.14956349 87.46419487 22.79445017 82 9 82 Z M-288.03125 271.3515625 C-296.51427495 282.67424411 -298.49370692 294.16768559 -297 308 C-294.69351319 319.355012 -287.7420874 328.42153319 -278.62890625 335.30859375 C-274.64311702 337.87300198 -270.51571035 339.5977531 -266 341 C-265.10087891 341.28617188 -265.10087891 341.28617188 -264.18359375 341.578125 C-251.98788302 343.93436249 -240.71065305 341.7451867 -230.25 335.1875 C-222.06442435 329.3073093 -216.29293993 322.74603994 -213 313 C-213.01136766 309.31687838 -213.84573795 308.1707717 -216.3359375 305.4140625 C-217.34316119 304.47809749 -218.35659702 303.54878863 -219.375 302.625 C-230.25959733 292.21208488 -237.9792968 279.96271507 -245.05712891 266.75488281 C-246.36473137 264.32115766 -247.71343785 261.910929 -249.0625 259.5 C-249.70880919 258.33359688 -250.35487576 257.16705892 -251 256 C-265.88618893 254.79301171 -278.2547481 260.03338145 -288.03125 271.3515625 Z " fill="#FEB41F" transform="translate(362,10)"/>
<path d="M0 0 C11.759884 0.56099258 23.25465587 2.25884129 34.875 4.0625 C36.73820378 4.34751211 38.60148465 4.63202075 40.46484375 4.91601562 C44.97747047 5.60488745 49.48900526 6.30052445 54 7 C53.87882813 7.81041748 53.75765625 8.62083496 53.6328125 9.45581055 C53.17806843 12.5281752 52.73187373 15.60163989 52.29101562 18.67602539 C52.00765972 20.63455665 51.7148968 22.59171967 51.421875 24.54882812 C48.77716864 39.1111164 48.77716864 39.1111164 51.75 53.125 C55.04703607 57.33787942 57.72945501 59.46304485 63.09375 60.34375 C75.40585417 61.14323728 84.74242009 51.02065825 93.80664062 43.80029297 C94.54978516 43.21006348 95.29292969 42.61983398 96.05859375 42.01171875 C96.72173584 41.48022217 97.38487793 40.94872559 98.06811523 40.40112305 C99.97402677 39.0188374 101.86692959 37.98739511 104 37 C110.93852053 45.16836412 117.28360423 53.71665698 123.6015625 62.3671875 C125.67513435 65.20513486 127.76594295 68.02637052 129.8984375 70.8203125 C130.32253906 71.37662354 130.74664062 71.93293457 131.18359375 72.50610352 C132.29342545 73.95593488 133.4082368 75.40195062 134.5234375 76.84765625 C136 79 136 79 136 81 C134.41455078 82.38525391 134.41455078 82.38525391 132.1953125 83.9765625 C130.98500366 84.85344727 130.98500366 84.85344727 129.75024414 85.74804688 C128.88391357 86.36744141 128.01758301 86.98683594 127.125 87.625 C125.37540131 88.89719962 123.62669519 90.17062772 121.87890625 91.4453125 C121.03473145 92.05922852 120.19055664 92.67314453 119.32080078 93.30566406 C108.30838475 100.92659017 108.30838475 100.92659017 102.0625 112.375 C101.96059578 118.28544488 103.62607051 122.29187145 107.3125 126.875 C112.23557975 130.76766771 117.94335366 131.44414107 124.0234375 132.2890625 C124.76961334 132.39721283 125.51578918 132.50536316 126.28457642 132.61679077 C128.64734039 132.95804415 131.01111119 133.29163724 133.375 133.625 C134.98574995 133.85626392 136.59642792 134.08802967 138.20703125 134.3203125 C142.13721225 134.88601607 146.06831408 135.44485635 150 136 C150.14338159 142.08078244 149.61295531 147.81758274 148.72265625 153.828125 C148.52644936 155.19526642 148.52644936 155.19526642 148.32627869 156.59002686 C148.05064251 158.50310823 147.77232703 160.41580531 147.49145508 162.328125 C147.06185844 165.25437007 146.64058508 168.18172174 146.22070312 171.109375 C145.95100344 172.9740282 145.68083743 174.83861402 145.41015625 176.703125 C145.28407486 177.57608215 145.15799347 178.44903931 145.02809143 179.34844971 C144.90804245 180.16319763 144.78799347 180.97794556 144.66430664 181.81738281 C144.50775352 182.88705292 144.50775352 182.88705292 144.34803772 183.97833252 C143.99681295 186.01851281 143.52771472 187.99887459 143 190 C142.15405273 189.87882813 141.30810547 189.75765625 140.43652344 189.6328125 C137.23917203 189.17891604 134.04087313 188.73257826 130.84179688 188.29101562 C129.46833894 188.09993698 128.0952727 187.90601699 126.72265625 187.70898438 C111.61425995 184.83846212 111.61425995 184.83846212 97 187.5625 C92.86169164 190.92487554 90.67181053 193.85709511 89.55078125 199.1015625 C88.62404695 210.75782058 99.80687345 221.16015747 106.51757812 229.671875 C107.20916016 230.56132812 107.90074219 231.45078125 108.61328125 232.3671875 C109.24016846 233.16237793 109.86705566 233.95756836 110.51293945 234.77685547 C111.94655026 236.92009303 112.57520831 238.4800249 113 241 C112.53440674 241.3403125 112.06881348 241.680625 111.58911133 242.03125 C109.32868831 243.68539243 107.07026434 245.34223035 104.8125 247 C103.97203125 247.61705811 103.1315625 248.23411621 102.265625 248.86987305 C94.68716259 254.45396653 87.20610962 260.16102672 79.76879883 265.93164062 C78.50652466 266.90327148 78.50652466 266.90327148 77.21875 267.89453125 C76.47560547 268.47050049 75.73246094 269.04646973 74.96679688 269.63989258 C73 271 73 271 70 272 C64.14816215 265.02508216 58.59001477 257.88001989 53.16308594 250.57226562 C47.92515476 242.54003332 47.92515476 242.54003332 40 238 C34.27782044 237.40658879 29.88425515 237.66982603 25 241 C20.94220687 245.23663203 19.32246346 248.0190116 18.375 253.9375 C18.26438232 254.60265625 18.15376465 255.2678125 18.03979492 255.953125 C16.43687831 265.92782684 15.2295655 275.97370385 14 286 C4.20877142 285.41525365 -5.43616624 284.22089304 -15.1418457 282.84326172 C-17.58936032 282.49619106 -20.03774814 282.15587124 -22.48632812 281.81640625 C-24.05474211 281.59674373 -25.62310355 281.37670567 -27.19140625 281.15625 C-27.91743546 281.05517944 -28.64346466 280.95410889 -29.39149475 280.84997559 C-32.64358147 280.38599516 -35.83579548 279.89515361 -39 279 C-38.71059617 276.31223886 -38.41898273 273.62476203 -38.125 270.9375 C-38.03621582 270.12418213 -37.94743164 269.31086426 -37.85595703 268.47290039 C-37.27976999 263.27962229 -36.61098779 258.11044274 -35.875 252.9375 C-34.03693099 241.78391984 -34.03693099 241.78391984 -37.69140625 231.5078125 C-41.60429804 226.99922673 -45.7943515 225.68568554 -51.5625 225.125 C-59.30177391 225.41342015 -64.30753503 229.78955736 -70.06152344 234.45019531 C-72.88101842 236.7043709 -75.78233954 238.84384879 -78.68066406 240.99511719 C-81.80051208 243.31244088 -84.89967809 245.65663981 -88 248 C-91.50864417 246.55215587 -93.21207558 244.79608662 -95.46875 241.7734375 C-96.11714844 240.91355225 -96.76554687 240.05366699 -97.43359375 239.16772461 C-98.11550781 238.24612549 -98.79742187 237.32452637 -99.5 236.375 C-100.55380859 234.9664978 -100.55380859 234.9664978 -101.62890625 233.52954102 C-103.06384489 231.61135228 -104.49613912 229.69118249 -105.92578125 227.76904297 C-107.83268754 225.22335899 -109.76688152 222.7026904 -111.71875 220.19140625 C-112.27626953 219.46840332 -112.83378906 218.74540039 -113.40820312 218.00048828 C-114.44720888 216.65392408 -115.49252193 215.3121964 -116.54492188 213.97607422 C-119.11093847 210.61560017 -120 209.3659448 -120 205 C-118.19921875 203.17236328 -118.19921875 203.17236328 -115.6875 201.3203125 C-114.77613281 200.63839844 -113.86476562 199.95648438 -112.92578125 199.25390625 C-111.47751953 198.20009766 -111.47751953 198.20009766 -110 197.125 C-109.06542969 196.43019531 -108.13085938 195.73539063 -107.16796875 195.01953125 C-103.67699703 192.42693547 -100.18684767 189.83676678 -96.6328125 187.33105469 C-92.84615981 184.62110132 -89.82611496 182.43683446 -88 178 C-87.18952317 172.57491633 -87.2984034 167.60782555 -89.5 162.5625 C-97.55056756 154.31066825 -106.56094917 153.59200699 -117.4375 152.25 C-119.79933477 151.94200771 -122.16036469 151.62867091 -124.52101135 151.31170654 C-125.98252968 151.11722898 -127.44488489 150.92892158 -128.9080658 150.74737549 C-133.89100615 150.10899385 -133.89100615 150.10899385 -135 149 C-134.86488719 138.83176789 -133.26654293 128.66971585 -131.84326172 118.61791992 C-131.49421826 116.14656312 -131.15492232 113.67399046 -130.81640625 111.20117188 C-130.59692281 109.62752475 -130.37689217 108.05395383 -130.15625 106.48046875 C-130.05517944 105.74209274 -129.95410889 105.00371674 -129.84997559 104.2429657 C-129.11512841 99.11512841 -129.11512841 99.11512841 -128 98 C-121.73472938 97.71358763 -115.8627263 98.51156172 -109.6875 99.5 C-94.92061982 102.13668505 -94.92061982 102.13668505 -81 98 C-78.64352999 95.65920243 -78.64352999 95.65920243 -77 93 C-76.5875 92.401875 -76.175 91.80375 -75.75 91.1875 C-74.01697554 86.13284532 -74.49424698 82.1961254 -76.51953125 77.40625 C-79.39698686 71.90455487 -83.25183697 67.12737429 -87.0625 62.25 C-87.78244141 61.31800781 -88.50238281 60.38601562 -89.24414062 59.42578125 C-90.57768378 57.69972818 -91.91401867 55.97582544 -93.25415039 54.25488281 C-94.85692261 52.18479412 -96.43536262 50.09899905 -98 48 C-96.52232031 44.22737643 -94.54601639 42.74276627 -91.1875 40.5625 C-88.42616634 38.76199348 -86.07692144 37.07853518 -83.765625 34.71875 C-80.00317866 31.02007394 -75.82582423 28.03243052 -71.5625 24.9375 C-70.72912109 24.32583984 -69.89574219 23.71417969 -69.03710938 23.08398438 C-64.75447957 19.95241713 -60.44424648 16.89779324 -56 14 C-51.63887777 19.13412537 -47.44830316 24.31531156 -43.56640625 29.8203125 C-42.96715332 30.66295654 -42.36790039 31.50560059 -41.75048828 32.3737793 C-40.56135928 34.05530955 -39.38598832 35.74667228 -38.22607422 37.44848633 C-34.53015027 42.65135714 -31.15019295 45.9856879 -25 48 C-19.91872518 48.7258964 -16.43350969 47.63857369 -11.89453125 45.55859375 C-6.83507602 41.39627903 -5.34095857 35.53839463 -4.4375 29.3125 C-4.32237061 28.59715088 -4.20724121 27.88180176 -4.08862305 27.14477539 C-3.71036588 24.76530063 -3.35426589 22.38315873 -3 20 C-2.71660699 18.14836686 -2.43273966 16.29680626 -2.1484375 14.4453125 C-1.41476801 9.63269438 -0.70241532 4.81727387 0 0 Z M9 82 C10.95281876 85.45359615 13.03894829 88.29751888 15.75 91.1875 C23.60715869 99.90493154 29.38846154 109.75434269 35 120 C35.5259375 120.93199219 36.051875 121.86398438 36.59375 122.82421875 C46.55171648 141.38947009 50.88680183 162.24093558 53 183 C62.5027739 174.66647121 67.31326063 159.38865184 68.30859375 147.23046875 C69.03219121 131.02465361 64.38047572 116.06048426 53.625 103.75 C52.10073817 102.14990425 50.55995163 100.56532152 49 99 C48.38511719 98.36191406 47.77023437 97.72382812 47.13671875 97.06640625 C37.14956349 87.46419487 22.79445017 82 9 82 Z " fill="#1CC7EA" transform="translate(362,10)"/>
<path d="M0 0 C3.96 0 7.92 0 12 0 C12.14695312 1.82660156 12.29390625 3.65320313 12.4453125 5.53515625 C13.97573606 22.99922577 16.30955905 39.9915859 22.6875 56.44921875 C24 60 24 60 24 63 C23.28457031 63.01417969 22.56914063 63.02835937 21.83203125 63.04296875 C9.11655972 63.65160063 -2.04484893 67.73008088 -11 77 C-13.72932364 80.49291513 -15.95099867 84.07274745 -18 88 C-18.3609375 88.68320312 -18.721875 89.36640625 -19.09375 90.0703125 C-22.88499398 99.02186078 -22.44600722 111.89667213 -19.4375 121 C-14.38302436 132.46032149 -6.43902292 141.32870006 5.4375 145.9375 C6.613125 146.288125 7.78875 146.63875 9 147 C9.5775 147.18046875 10.155 147.3609375 10.75 147.546875 C22.93002915 149.99979754 34.2602297 147.70253097 44.75 141.25 C51.88874813 136.15089419 56.31192285 130.12390835 59.95703125 122.19921875 C61 120 61 120 63 117 C63.84820312 117.67804688 64.69640625 118.35609375 65.5703125 119.0546875 C71.74708108 123.9634013 77.96676463 128.7342677 84.4375 133.25 C95.65361276 141.18637726 104.95651641 151.17546081 107.39672852 165.2956543 C106.80391748 169.33661913 104.25518907 171.45986525 101.453125 174.2109375 C100.88551453 174.7833316 100.31790405 175.35572571 99.73309326 175.94546509 C98.53198059 177.14997562 97.32454875 178.34821322 96.11132812 179.54052734 C94.2529187 181.37212341 92.4227271 183.22890872 90.59375 185.08984375 C89.42347527 186.25681534 88.25165093 187.42223542 87.078125 188.5859375 C86.53005188 189.14413177 85.98197876 189.70232605 85.41729736 190.2774353 C81.59821376 193.98081822 81.59821376 193.98081822 78.95947266 194.06542969 C76.36244974 192.65334297 73.98279368 191.07888664 71.5703125 189.3671875 C70.52746094 188.64402344 69.48460937 187.92085937 68.41015625 187.17578125 C66.76355298 186.02645118 65.12116754 184.87226416 63.48681641 183.70556641 C61.90054911 182.57728906 60.29806556 181.47192111 58.6953125 180.3671875 C57.74672363 179.69800293 56.79813477 179.02881836 55.82080078 178.33935547 C52.36121811 176.69669747 50.63297305 176.96035236 47 178 C43.95303716 180.13354072 43.37304792 182.45574079 42.5625 186 C42.19898438 187.57007813 42.19898438 187.57007813 41.828125 189.171875 C40.18347924 196.77448277 38.57779757 204.38304623 37 212 C24.79 212 12.58 212 0 212 C-3.3125 196.6875 -3.3125 196.6875 -4.3371582 191.8659668 C-4.75227661 189.98905151 -4.75227661 189.98905151 -5.17578125 188.07421875 C-5.45333252 186.79119873 -5.73088379 185.50817871 -6.0168457 184.1862793 C-7.15621577 180.42708923 -7.15621577 180.42708923 -10 178 C-12.81098012 177.05384172 -14.33712286 176.76168078 -17.1472168 177.77197266 C-17.84500244 178.1901123 -18.54278809 178.60825195 -19.26171875 179.0390625 C-20.03950684 179.50473633 -20.81729492 179.97041016 -21.61865234 180.45019531 C-26.23962217 183.45756834 -30.65179781 186.73793255 -35.04492188 190.06640625 C-36.11516602 190.84951172 -36.11516602 190.84951172 -37.20703125 191.6484375 C-37.8410083 192.12458496 -38.47498535 192.60073242 -39.12817383 193.09130859 C-41 194 -41 194 -42.87084961 193.99487305 C-46.12985045 192.47206277 -48.38666171 189.9790687 -50.859375 187.43359375 C-51.40861633 186.88010757 -51.95785767 186.3266214 -52.52374268 185.75636292 C-54.27300464 183.99033441 -56.01153644 182.21415308 -57.75 180.4375 C-58.935505 179.23694559 -60.12169524 178.0370674 -61.30859375 176.83789062 C-64.21373293 173.89970905 -67.10929337 170.95237926 -70 168 C-66.93924029 162.25892326 -63.66851024 156.86357367 -59.8125 151.625 C-58.94369664 150.42991555 -58.07519573 149.23461114 -57.20703125 148.0390625 C-56.47871094 147.03617188 -55.75039063 146.03328125 -55 145 C-52.53675931 141.30513897 -52.61008312 139.36706908 -53 135 C-55.40932804 131.50175857 -58.7850394 131.00378749 -62.75 130 C-63.40307129 129.83266357 -64.05614258 129.66532715 -64.72900391 129.49291992 C-70.822774 127.96547504 -76.97281516 126.75762535 -83.1484375 125.61328125 C-86 125 -86 125 -87 124 C-87.08855161 121.3337397 -87.11524673 118.69352886 -87.09765625 116.02734375 C-87.0962413 115.22970108 -87.09482635 114.43205841 -87.09336853 113.61024475 C-87.08775316 111.05262565 -87.07519812 108.49509282 -87.0625 105.9375 C-87.05748698 104.20768355 -87.05292373 102.47786574 -87.04882812 100.74804688 C-87.03777875 96.49866447 -87.02050386 92.24934688 -87 88 C-71.32720845 84.05479661 -71.32720845 84.05479661 -66.0078125 82.83984375 C-64.72648437 82.54207031 -63.44515625 82.24429688 -62.125 81.9375 C-61.11373047 81.71610352 -61.11373047 81.71610352 -60.08203125 81.49023438 C-55.77153633 80.48051079 -55.77153633 80.48051079 -53 77 C-52.50559286 72.33482492 -53.26643258 69.84673537 -55.875 66 C-56.50277344 65.06542969 -57.13054688 64.13085938 -57.77734375 63.16796875 C-61.8125985 57.41648965 -65.87396924 51.68678284 -70 46 C-68.39202068 42.04230364 -65.65047346 39.31094244 -62.6953125 36.32421875 C-62.17492401 35.79480179 -61.65453552 35.26538483 -61.11837769 34.71992493 C-60.01996594 33.60704659 -58.91875652 32.49692348 -57.81494141 31.3894043 C-56.12537057 29.68787319 -54.45534885 27.96857607 -52.78515625 26.24804688 C-51.71469409 25.16812728 -50.64311678 24.08931169 -49.5703125 23.01171875 C-49.07226105 22.49413498 -48.57420959 21.97655121 -48.06106567 21.44328308 C-44.57943141 18.00631552 -44.57943141 18.00631552 -41.96166992 17.9777832 C-39.49772101 19.26173518 -37.29902723 20.71841983 -35.04296875 22.34375 C-34.09486328 23.01277344 -33.14675781 23.68179688 -32.16992188 24.37109375 C-30.18939602 25.78482864 -28.21278673 27.20406724 -26.24023438 28.62890625 C-19.26258228 33.78358578 -19.26258228 33.78358578 -11 35 C-8.14536454 33.40591662 -7.26961131 31.82112137 -6.26074219 28.74853516 C-5.5439723 25.94939832 -4.94417254 23.14525677 -4.375 20.3125 C-4.06949219 18.87874023 -4.06949219 18.87874023 -3.7578125 17.41601562 C-3.35573953 15.52549945 -2.95945257 13.63374223 -2.56933594 11.74072266 C-1.75437812 7.81760238 -0.87772663 3.90950716 0 0 Z " fill="#C9DEFE" transform="translate(87,203)"/>
<path d="M0 0 C4.53827584 -0.42349611 7.72841426 -0.52722096 11.51171875 2.203125 C13.94560215 4.82621488 16.01798952 7.54867051 18.09765625 10.4609375 C18.92756979 11.55889559 19.75966701 12.65520595 20.59375 13.75 C26.47309536 21.59808615 31.44865134 29.83859651 36.09765625 38.4609375 C36.61972656 39.38777344 37.14179688 40.31460938 37.6796875 41.26953125 C45.86368782 56.49306747 51.70497501 75.19169016 53.09765625 92.4609375 C53.22011719 93.33492188 53.34257812 94.20890625 53.46875 95.109375 C53.83916757 99.26944927 53.98817885 102.2063096 51.51171875 105.6953125 C38.09151164 118.19499999 21.25819892 123.89795407 3.1796875 123.73828125 C-12.02656569 123.00829393 -26.04529812 115.89703144 -36.90234375 105.4609375 C-43.05566891 98.44398776 -47.49399353 91.12553865 -50.90234375 82.4609375 C-51.25425781 81.65527344 -51.60617187 80.84960938 -51.96875 80.01953125 C-56.15731124 68.54041991 -55.7716973 51.2597247 -51.15625 40.05078125 C-50.74246094 39.19613281 -50.32867187 38.34148437 -49.90234375 37.4609375 C-49.47824219 36.53410156 -49.05414063 35.60726562 -48.6171875 34.65234375 C-40.56940728 18.48953167 -26.42753624 7.36554795 -9.49609375 1.6484375 C-6.36180973 0.83079819 -3.19518676 0.50744554 0 0 Z " fill="#FEB41F" transform="translate(361.90234375,91.5390625)"/>
<path d="M0 0 C29.37 0 58.74 0 89 0 C89.04125 7.38375 89.0825 14.7675 89.125 22.375 C89.14320801 24.6854834 89.16141602 26.9959668 89.18017578 29.37646484 C89.18602504 31.23795338 89.19111957 33.0994445 89.1953125 34.9609375 C89.20554443 35.90300049 89.21577637 36.84506348 89.22631836 37.81567383 C89.22896034 48.0110737 88.31585207 56.44082691 81 64 C73.32026056 71.27554262 65.00588319 72.31253871 54.72265625 72.30078125 C53.44557045 72.30720894 53.44557045 72.30720894 52.14268494 72.31376648 C50.3553048 72.31946852 48.56790148 72.3200408 46.78051758 72.31567383 C44.0726704 72.31251188 41.36591595 72.33603158 38.65820312 72.36132812 C27.22517809 72.40406114 17.03175264 72.27413018 7.7578125 64.74609375 C3.21245312 60.23103676 0.20093341 55.03886104 -0.12025452 48.58282471 C-0.11803391 47.68569763 -0.11581329 46.78857056 -0.11352539 45.86425781 C-0.11340454 44.82930176 -0.11328369 43.7943457 -0.11315918 42.72802734 C-0.10804321 41.64730957 -0.10292725 40.5665918 -0.09765625 39.453125 C-0.09664917 38.45458496 -0.09564209 37.45604492 -0.09460449 36.42724609 C-0.08937724 32.70148569 -0.07541597 28.97574168 -0.0625 25.25 C-0.041875 16.9175 -0.02125 8.585 0 0 Z " fill="#A0A0A0" transform="translate(213,440)"/>
<path d="M0 0 C3.8809456 1.29364853 4.56689295 2.90703342 6.75 6.3125 C7.38421875 7.27800781 8.0184375 8.24351563 8.671875 9.23828125 C10 12 10 12 10.10546875 14.0390625 C8.32894655 17.19034923 5.43804443 18.9817547 2.5625 21.0625 C-15.84349728 35.01381076 -28.07794744 54.76208835 -34 77 C-34.25297852 77.84828369 -34.50595703 78.69656738 -34.76660156 79.57055664 C-37.02194569 87.60672499 -37.45385566 95.11822805 -37.375 103.4375 C-37.38660156 104.65759766 -37.39820313 105.87769531 -37.41015625 107.13476562 C-37.38356972 115.46964246 -36.23208996 122.97889889 -34 131 C-33.80132324 131.73017334 -33.60264648 132.46034668 -33.39794922 133.21264648 C-26.54696968 157.14138508 -10.12714 180.5379649 11.82714844 193.04052734 C15.75666369 195.13158354 19.77057473 197.04408923 23.79199219 198.95068359 C46.21864043 209.60854893 62.85139364 222.1728911 72.22265625 246.125 C75.09065886 254.51313668 75.67109658 262.20183355 76 271 C70.06 271 64.12 271 58 271 C57.79375 268.81375 57.5875 266.6275 57.375 264.375 C55.93982791 252.45848431 51.22957659 241.79301234 43 233 C42.37867188 232.32582031 41.75734375 231.65164063 41.1171875 230.95703125 C35.00542268 224.94984035 27.81809419 221.66537367 20.17773438 218.04296875 C-14.03464282 201.65784819 -37.98781032 176.32658997 -50.8125 140.5625 C-60.76187264 108.56316637 -57.07644461 74.79000534 -41.6875 45.1875 C-37.7718981 37.93808973 -33.29046684 31.33107106 -28 25 C-26.75283203 23.50726563 -26.75283203 23.50726563 -25.48046875 21.984375 C-18.0548853 13.38900786 -9.44618922 6.29745948 0 0 Z " fill="#FFAA00" transform="translate(190,100)"/>
<path d="M0 0 C29.37 0 58.74 0 89 0 C89 19.73392461 89 19.73392461 81 28 C73.32026056 35.27554262 65.00588319 36.31253871 54.72265625 36.30078125 C53.44557045 36.30720894 53.44557045 36.30720894 52.14268494 36.31376648 C50.3553048 36.31946852 48.56790148 36.3200408 46.78051758 36.31567383 C44.0726704 36.31251188 41.36591595 36.33603158 38.65820312 36.36132812 C27.22517809 36.40406114 17.03175264 36.27413018 7.7578125 28.74609375 C3.71604277 24.73126915 1.37401793 20.49607174 0 15 C0 10.05 0 5.1 0 0 Z " fill="#EAEAEA" transform="translate(213,476)"/>
<path d="M0 0 C29.37 0 58.74 0 89 0 C89 5.94 89 11.88 89 18 C59.63 18 30.26 18 0 18 C0 12.06 0 6.12 0 0 Z " fill="#EBEAEA" transform="translate(213,440)"/>
<path d="M0 0 C2.359375 1.07421875 2.359375 1.07421875 4.75 2.6875 C5.70261719 3.32816406 6.65523437 3.96882813 7.63671875 4.62890625 C8.76024063 5.41581537 9.88112787 6.20649352 11 7 C11.65049316 7.46132324 12.30098633 7.92264648 12.97119141 8.39794922 C17.53024054 11.64718132 22.05805492 14.9382871 26.58007812 18.23876953 C29.04228192 20.03077298 31.51193661 21.81199211 33.984375 23.58984375 C34.79318115 24.17169434 35.6019873 24.75354492 36.43530273 25.35302734 C37.98120438 26.4647048 39.52756638 27.57574246 41.07446289 28.68603516 C51.65487184 36.30974368 51.65487184 36.30974368 53 39 C53.68839635 45.99869622 53.68839635 45.99869622 50.9375 50 C48 52 48 52 44.875 52.75 C38.9939731 51.61173673 34.80382405 48.43842737 30 45 C29.35095703 44.53867676 28.70191406 44.07735352 28.03320312 43.60205078 C23.47279985 40.35260524 18.94293771 37.06243739 14.41992188 33.76123047 C11.95771808 31.96922702 9.48806339 30.18800789 7.015625 28.41015625 C6.20681885 27.82830566 5.3980127 27.24645508 4.56469727 26.64697266 C3.01879562 25.5352952 1.47243362 24.42425754 -0.07446289 23.31396484 C-10.65487184 15.69025632 -10.65487184 15.69025632 -12 13 C-12.39447548 8.81855989 -12.45035186 6.69053952 -10.125 3.125 C-6.77686263 -0.22313737 -4.67066176 -0.33937074 0 0 Z " fill="#FFAA00" transform="translate(30,50)"/>
<path d="M0 0 C2.125 1.625 2.125 1.625 3.125 3.625 C3.81869762 10.67759245 3.81869762 10.67759245 1.359375 14.03637695 C-2.83610376 18.06439009 -8.66850777 18.86590249 -14.1484375 20.2109375 C-15.94409653 20.66999985 -15.94409653 20.66999985 -17.77603149 21.13833618 C-20.94967979 21.94416036 -24.12692554 22.73328541 -27.30621338 23.51647949 C-30.52699956 24.317656 -33.73916754 25.15239531 -36.953125 25.98046875 C-39.41357301 26.60090273 -41.87449629 27.21945563 -44.3359375 27.8359375 C-45.48718109 28.13164642 -46.63842468 28.42735535 -47.82455444 28.73202515 C-53.52879754 30.12184013 -58.15149416 31.22758164 -63.875 29.625 C-67.03220498 26.95351887 -68.15614142 24.66724862 -68.5 20.625 C-68.6015625 18.6875 -68.6015625 18.6875 -67.875 16.625 C-62.7477704 11.25967214 -57.24450863 9.9819153 -50.16015625 8.29296875 C-49.03105331 8.0114949 -47.90195038 7.73002106 -46.7386322 7.4400177 C-44.35770843 6.85005856 -41.97479507 6.26807846 -39.59008789 5.69360352 C-35.94901045 4.81527663 -32.3152124 3.91077627 -28.68164062 3.00195312 C-26.36236163 2.43073652 -24.04271151 1.86102424 -21.72265625 1.29296875 C-20.64017105 1.02429489 -19.55768585 0.75562103 -18.44239807 0.47880554 C-5.47889145 -2.62033939 -5.47889145 -2.62033939 0 0 Z " fill="#FFA900" transform="translate(69.875,136.375)"/>
<path d="M0 0 C3.38770275 1.25114022 5.21056578 3.78597574 7.0625 6.76171875 C8.48309073 10.43106128 9.41977446 14.18678368 10.359375 18.00390625 C10.63847717 19.08624542 10.91757935 20.16858459 11.20513916 21.28372192 C11.79063115 23.56629362 12.36842324 25.85085258 12.93896484 28.13720703 C13.80880174 31.62190298 14.7010105 35.10024125 15.59765625 38.578125 C16.16537874 40.80304997 16.73182749 43.02830043 17.296875 45.25390625 C17.56038757 46.2874826 17.82390015 47.32105896 18.09539795 48.38595581 C21.76638768 63.14277708 21.76638768 63.14277708 19.8125 67.63671875 C18.0625 69.76171875 18.0625 69.76171875 15.0625 71.76171875 C8.00963461 72.43342022 8.00963461 72.43342022 4.98046875 70.28515625 C2.30856915 66.76978529 1.42337653 63.2464804 0.3125 59.01171875 C0.06935059 58.11936523 -0.17379883 57.22701172 -0.42431641 56.30761719 C-1.28002691 53.13017447 -2.10909224 49.94638685 -2.9375 46.76171875 C-3.28758787 45.43736824 -3.63819668 44.11315535 -3.98925781 42.7890625 C-4.92759722 39.24313054 -5.85067303 35.69349814 -6.76379395 32.14099121 C-7.12653103 30.73337764 -7.49228456 29.32653759 -7.86120605 27.92053223 C-11.65567033 13.39826321 -11.65567033 13.39826321 -10.9375 5.76171875 C-7.93379185 1.16229065 -5.21113389 0.19962005 0 0 Z " fill="#FFAA00" transform="translate(102.9375,0.23828125)"/>
<path d="M0 0 C4.99174515 1.21812211 8.55493118 5.21475299 12.2890625 8.55859375 C13.87472837 9.91356236 15.47001686 11.25656684 17.06640625 12.59887695 C18.73433585 14.00263594 20.39472484 15.41495973 22.0546875 16.828125 C24.99518445 19.32195312 27.97945763 21.75797074 30.9765625 24.18359375 C34.64991942 27.19348091 38.31260426 30.2128722 41.9140625 33.30859375 C42.73132813 34.0046875 43.54859375 34.70078125 44.390625 35.41796875 C46.58123764 37.88804226 47.08690137 39.28773039 47.2890625 42.55859375 C45.29063236 48.76424524 45.29063236 48.76424524 42.4765625 50.99609375 C39.32214569 51.8072295 37.57561552 52.11668766 34.2890625 51.55859375 C31.01445373 49.55670742 28.19030165 47.06085831 25.2890625 44.55859375 C24.26276212 43.69147192 23.23536297 42.82564937 22.20703125 41.9609375 C19.98550403 40.08958208 17.7702062 38.21118448 15.55859375 36.328125 C9.94911734 31.56262506 4.27371184 26.86902478 -1.546875 22.36328125 C-2.44664062 21.66460937 -3.34640625 20.9659375 -4.2734375 20.24609375 C-5.07910156 19.63121094 -5.88476562 19.01632812 -6.71484375 18.3828125 C-9.71403703 15.64186678 -10.62546068 13.5843156 -10.9609375 9.55859375 C-10.71379156 6.59284249 -10.36657905 4.99848656 -8.7109375 2.55859375 C-5.62806982 0.50334863 -3.69461443 -0.11419717 0 0 Z " fill="#FFAA00" transform="translate(423.7109375,375.44140625)"/>
<path d="M0 0 C1.41694656 -0.01441132 1.41694656 -0.01441132 2.86251831 -0.02911377 C4.39067673 -0.03548859 4.39067673 -0.03548859 5.94970703 -0.04199219 C6.99901398 -0.04769226 8.04832092 -0.05339233 9.12942505 -0.05926514 C11.3502705 -0.06871405 13.57112997 -0.07524869 15.79199219 -0.07910156 C19.18726066 -0.08880926 22.58192435 -0.11983503 25.97705078 -0.15136719 C28.13459927 -0.15789714 30.29215209 -0.16314764 32.44970703 -0.16699219 C33.46443085 -0.17933899 34.47915466 -0.19168579 35.52462769 -0.20440674 C44.43887841 -0.17627386 44.43887841 -0.17627386 48.33251953 3.16113281 C50.83283608 6.91160763 50.86855507 8.71969547 50.33251953 13.16113281 C47.79114794 16.32067587 46.18629294 17.87654168 42.33251953 19.16113281 C40.8097112 19.262423 39.28295543 19.30945173 37.75683594 19.32226562 C36.83222565 19.33187317 35.90761536 19.34148071 34.95498657 19.35137939 C33.95808807 19.35562927 32.96118958 19.35987915 31.93408203 19.36425781 C30.90697113 19.36995789 29.87986023 19.37565796 28.82162476 19.38153076 C26.64785797 19.39097914 24.47407687 19.3975141 22.30029297 19.40136719 C18.97744743 19.41107459 15.65521994 19.44210066 12.33251953 19.47363281 C10.22054404 19.48016282 8.10856412 19.4854133 5.99658203 19.48925781 C5.00373199 19.50160461 4.01088196 19.51395142 2.98794556 19.52667236 C-3.39090894 19.5061081 -7.0288622 18.79975108 -11.66748047 14.16113281 C-12.1718001 11.12348665 -12.11690754 8.20424143 -11.66748047 5.16113281 C-8.49136908 0.78028951 -5.20593774 0.0427766 0 0 Z " fill="#FFA900" transform="translate(435.66748046875,325.8388671875)"/>
<path d="M0 0 C2.18115781 3.27173671 2.25855677 4.25509823 2.29052734 8.05053711 C2.3096669 9.59244972 2.3096669 9.59244972 2.32919312 11.16551208 C2.33141876 12.27491653 2.33364441 13.38432098 2.3359375 14.52734375 C2.3425943 15.66780655 2.3492511 16.80826935 2.35610962 17.98329163 C2.3662406 20.39664088 2.3709265 22.81001817 2.37060547 25.22338867 C2.37497879 28.91957637 2.41129615 32.61457052 2.44921875 36.31054688 C2.45508668 38.65364174 2.45905623 40.99674229 2.4609375 43.33984375 C2.47530853 44.44722397 2.48967957 45.55460419 2.50448608 46.69554138 C2.49833282 47.72663528 2.49217957 48.75772919 2.48583984 49.82006836 C2.48868988 50.72591171 2.49153992 51.63175507 2.49447632 52.56504822 C1.84487736 55.76387107 0.47525218 56.94529582 -2 59 C-4.85324437 60.42662219 -6.83454549 60.31033868 -10 60 C-12.69990662 58.20006226 -14.5418865 56.916227 -16 54 C-16.10518455 52.42340879 -16.14871392 50.84249845 -16.16113281 49.26245117 C-16.17074036 48.27770309 -16.1803479 47.29295502 -16.19024658 46.27836609 C-16.19449646 45.21068497 -16.19874634 44.14300385 -16.203125 43.04296875 C-16.20882507 41.94785477 -16.21452515 40.85274078 -16.22039795 39.72444153 C-16.22985713 37.40346241 -16.23638556 35.08246981 -16.24023438 32.76147461 C-16.24993172 29.2124888 -16.28094371 25.66408397 -16.3125 22.11523438 C-16.31903073 19.86198261 -16.32428093 17.6087267 -16.328125 15.35546875 C-16.3404718 14.29386032 -16.3528186 13.23225189 -16.36553955 12.13847351 C-16.3373734 2.80758583 -16.3373734 2.80758583 -13 -1 C-7.87419911 -3.79589139 -4.96081378 -2.76660769 0 0 Z " fill="#FFAA00" transform="translate(387,399)"/>
<path d="M0 0 C5.94 0 11.88 0 18 0 C18 8.91 18 17.82 18 27 C12.06 27 6.12 27 0 27 C0 18.09 0 9.18 0 0 Z " fill="#FFAA01" transform="translate(248,388)"/>
</svg>
