<?xml version="1.0" encoding="UTF-8"?>
<svg version="1.1" xmlns="http://www.w3.org/2000/svg" width="512" height="512">
<path d="M0 0 C9.87495197 5.09443103 17.2054933 12.66050413 24.91674805 20.46264648 C26.27709893 21.82412771 27.63833527 23.18472469 29.00038147 24.54450989 C32.66977777 28.21276541 36.326768 31.89316182 39.98154807 35.57597232 C43.81266075 39.43220505 47.65521501 43.27700325 51.49653625 47.12306213 C58.75742277 54.39634734 66.00805821 61.6797623 73.25500757 68.9669314 C81.51075661 77.267495 89.77795866 85.55661158 98.04611146 93.84481704 C115.04345663 110.88389613 132.0264693 127.93720026 149 145 C153.27120365 143.05117599 156.12413272 140.08457344 159.35058594 136.74951172 C159.97895859 136.10858078 160.60733124 135.46764984 161.25474548 134.80729675 C162.61919343 133.41516179 163.98153097 132.02095598 165.34200287 130.62493515 C167.50733703 128.40615874 169.6814678 126.19638379 171.85870361 123.98928833 C178.04936196 117.71335438 184.23533971 111.43313432 190.38720703 105.11914062 C194.15425447 101.25414051 197.94132066 97.40972834 201.74152374 93.57733536 C203.17602971 92.12322549 204.60324843 90.6618842 206.02245331 89.19283676 C215.24971131 79.64921023 223.79751047 73.22499591 236 68 C238.1544601 66.93526765 240.30301319 65.85836293 242.44140625 64.76171875 C253.52819049 59.18936429 264.64282127 53.69114465 275.84887695 48.36254883 C287.7306313 42.71131138 299.56099236 36.95437444 311.39596558 31.20600891 C315.85576404 29.04005883 320.31705171 26.87721267 324.77954102 24.71681213 C328.54107045 22.89566157 332.30196178 21.07319639 336.0625 19.25 C337.16063019 18.71761215 337.16063019 18.71761215 338.28094482 18.17446899 C348.83148182 13.05629936 359.34653687 7.87403114 369.80883789 2.57714844 C371.13709595 1.9066748 371.13709595 1.9066748 372.4921875 1.22265625 C373.24870605 0.83859619 374.00522461 0.45453613 374.78466797 0.05883789 C382.2185202 -3.49423872 389.45710759 -4.48676479 397.4375 -1.875 C401.10614538 0.80937467 403.94416083 3.88832166 406 8 C407.32952279 17.89469786 404.33594421 24.89713064 399.8125 33.5 C399.16540382 34.77543416 398.521174 36.05232614 397.87963867 37.33056641 C396.89099447 39.29993201 395.90088911 41.26835475 394.90205383 43.23257446 C391.69957649 49.53526344 388.74671203 55.94352062 385.8125 62.375 C378.55465966 78.14673606 370.88959446 93.71834115 363.26226807 109.31362915 C360.20519696 115.56882818 357.18184116 121.83950918 354.1875 128.125 C350.36535176 136.14568623 346.52634317 144.15802492 342.66690063 152.16082764 C341.7878589 153.98397979 340.90989632 155.80765214 340.03198242 157.63134766 C338.94634281 159.88122522 337.85107026 162.12648944 336.74453735 164.36616516 C335.6468459 166.61081478 334.65621843 168.83501018 333.70304871 171.15016174 C328.75833125 182.48197274 320.7575872 190.14183146 312.00390625 198.6796875 C310.44295967 200.22755008 308.88357234 201.77698652 307.32566833 203.32791138 C303.25580842 207.37126741 299.1653659 211.39313915 295.07000732 215.41064453 C290.8808354 219.52772473 286.71184043 223.66513008 282.54101562 227.80078125 C274.38010739 235.88701017 266.19727164 243.95064754 258 252 C259.28343387 254.81579012 260.61989738 256.8695339 262.80618286 259.05342102 C263.37794754 259.62938019 263.94971222 260.20533936 264.5388031 260.79875183 C265.16424515 261.41857437 265.78968719 262.03839691 266.43408203 262.67700195 C267.42473915 263.67050659 267.42473915 263.67050659 268.43540955 264.68408203 C270.62135374 266.87373211 272.81442055 269.05609364 275.0078125 271.23828125 C276.53315088 272.76242693 278.05811913 274.2869431 279.58273315 275.81181335 C282.78254002 279.01005534 285.98567959 282.20490868 289.19140625 285.3972168 C293.28510679 289.47399242 297.37225952 293.557254 301.45712471 297.64288044 C304.60882263 300.79430524 307.76312986 303.94310741 310.91830063 307.09105492 C312.42505811 308.59464568 313.93122431 310.09882923 315.43677139 311.60363197 C317.55187212 313.71654413 319.67024687 315.82611923 321.78955078 317.93481445 C322.40284744 318.5485643 323.0161441 319.16231415 323.64802551 319.79466248 C327.34177522 323.46165115 331.16351103 326.92191503 335.09908676 330.32717228 C337.84358512 332.74236559 340.44225553 335.28698652 343.02954102 337.8684082 C343.5754187 338.40932098 344.12129639 338.95023376 344.68371582 339.50753784 C346.45983143 341.26924031 348.23220476 343.03464034 350.00390625 344.80078125 C350.61668867 345.41073629 351.22947109 346.02069134 351.86082268 346.64912987 C355.10058487 349.87398848 358.33752763 353.10164471 361.57202148 356.33178711 C364.88912307 359.64340118 368.21540828 362.94562655 371.54394627 366.24573994 C374.1254373 368.80849791 376.70008978 371.37804592 379.27299309 373.94942284 C380.49555182 375.16898118 381.72057942 376.38607034 382.94824409 377.60048866 C395.53170947 390.05775869 406.16649852 402.48629985 406.3125 421 C406.35068448 443.56702923 391.14482492 456.95697297 376.18806458 471.99217224 C374.58619538 473.59760741 372.98337264 475.20209168 371.37963867 476.80566406 C368.93444691 479.25305584 366.49739095 481.70836233 364.06054688 484.1640625 C362.48746922 485.74007263 360.91391769 487.31560993 359.33984375 488.890625 C358.62191147 489.6157428 357.90397919 490.3408606 357.16429138 491.08795166 C346.06160236 502.14121343 334.83688589 509.41045497 318.75 509.375 C301.50541988 509.31207566 290.89188757 501.27378877 279.12255859 489.49581909 C277.85166557 488.21431225 276.58091842 486.93266073 275.31030273 485.65087891 C273.95003157 484.28976039 272.58909723 482.92930438 271.22755432 481.56945801 C267.55203683 477.89479766 263.88581226 474.21099269 260.22123981 470.52542162 C256.38295812 466.66832631 252.53612138 462.81978227 248.69020081 458.9703064 C241.41710634 451.68790523 234.15169012 444.39789379 226.88903052 437.10508764 C218.61681609 428.79928642 210.3360336 420.50204994 202.05453575 412.20550656 C185.0268355 395.14648842 168.00987331 378.07679247 151 361 C147.14499615 362.79227518 144.47926579 365.24439803 141.51635742 368.24072266 C140.98081741 368.77436432 140.4452774 369.30800598 139.89350891 369.8578186 C138.12590689 371.62171947 136.36560616 373.39271529 134.60546875 375.1640625 C133.37278653 376.39793785 132.13973328 377.63144265 130.90632629 378.86459351 C128.32010103 381.45238293 125.73726814 384.04349549 123.15698242 386.63720703 C119.86714126 389.9439576 116.57083723 393.24416866 113.27215099 396.54209328 C110.72292657 399.0915913 108.17632994 401.64370072 105.63057899 404.19666672 C104.41725789 405.41314757 103.20334997 406.62904344 101.98882103 407.84431839 C94.58957794 415.18787808 94.58957794 415.18787808 87.58959961 422.90600586 C82.01677962 429.42423153 75.81823597 435.389423 69.7734375 441.46484375 C68.74827971 442.49611484 68.74827971 442.49611484 67.70241165 443.54821968 C64.08532639 447.18606205 60.46504523 450.82069017 56.84228516 454.45288086 C53.13235801 458.17386032 49.43426353 461.9063721 45.73871422 465.6416235 C42.86611364 468.54055212 39.9844872 471.43038487 37.10048294 474.31796455 C35.73457436 475.68869596 34.37199957 477.06275896 33.01307297 478.44041252 C14.99280796 496.69351863 -3.828572 509.13478973 -30.3125 509.4375 C-51.0142677 509.28577152 -69.65151962 502.63015647 -84.41796875 487.75 C-100.76700479 470.33741093 -106.59424997 451.33973229 -106.26953125 427.84375 C-105.29341623 397.87749979 -83.48959776 377.22533242 -63 358 C-61.82322061 356.98800837 -60.64510497 355.97756985 -59.46614075 354.96812439 C-54.49347754 350.62258195 -49.84596894 345.97856441 -45.1875 341.30102539 C-44.23088224 340.3441249 -43.27404292 339.38744585 -42.31700134 338.43096924 C-39.74300024 335.85725275 -37.1720743 333.28048482 -34.60172653 330.70312047 C-31.90629561 328.00139966 -29.20799536 325.30254753 -26.51000977 322.6033783 C-21.41190605 317.50217778 -16.31635483 312.39843561 -11.22173595 307.29375499 C-5.41712244 301.47792883 0.39036174 295.66497278 6.19807816 289.85224545 C18.13522901 277.90466763 30.06880449 265.95352495 42 254 C40.39742998 250.0104819 37.6076385 247.34484713 34.59881592 244.38522339 C34.04189379 243.82941467 33.48497166 243.27360596 32.91117311 242.70095456 C31.04280534 240.83866132 29.16739738 238.98362202 27.29199219 237.12841797 C25.95123822 235.79477643 24.61095318 234.46066332 23.27110291 233.12611389 C20.38349423 230.2516122 17.49290853 227.38014943 14.60009003 224.51089096 C10.02169507 219.96908455 5.45200325 215.41859008 0.8838501 210.8664856 C-12.10824217 197.92268914 -25.11193661 184.99058634 -38.12451172 172.06738281 C-45.31017953 164.93091345 -52.48856211 157.78719514 -59.65929484 150.63571846 C-64.19383954 146.11422048 -68.73723014 141.6018678 -73.28747511 137.09617305 C-76.12505135 134.28216049 -78.95412861 131.45972043 -81.78094292 128.63490105 C-83.08751618 127.33260072 -84.39750628 126.03371746 -85.71125221 124.73865318 C-97.94474096 112.67234535 -106.2022845 101.77515185 -106.375 84 C-106.18551208 66.34153004 -97.8969298 55.24290258 -85.5703125 43.07421875 C-84.56988901 42.07363971 -83.57013665 41.07238925 -82.5710144 40.07051086 C-80.49128127 37.98940535 -78.40486033 35.91533721 -76.31298828 33.84643555 C-73.65299089 31.21487479 -71.0089104 28.56797391 -68.36946297 25.91582012 C-66.31256168 23.85191487 -64.24827899 21.79552082 -62.18169785 19.74131203 C-61.20459982 18.76867887 -60.22951177 17.79402155 -59.25662613 16.81717491 C-52.23105765 9.77639238 -45.10509989 3.16967261 -35.625 -0.3125 C-34.81289062 -0.61800781 -34.00078125 -0.92351563 -33.1640625 -1.23828125 C-22.92203564 -4.84332681 -10.03015989 -4.09110794 0 0 Z " fill="#00B77A" transform="translate(106,3)"/>
<path d="M0 0 C9.91336493 5.10783287 17.2692511 12.72460881 25.00854492 20.55444336 C26.37874791 21.92577666 27.7498363 23.29622577 29.12173462 24.66586304 C32.81798921 28.36097675 36.50183792 32.06823315 40.18347716 35.77790141 C44.04261787 39.66216065 47.91319867 43.53498679 51.782547 47.40907288 C59.09655703 54.73548204 66.40031634 62.07202149 73.70039016 69.412314 C82.01659831 77.7733353 90.34425822 86.12291079 98.67286909 94.47157466 C115.79462763 111.63506813 132.90205414 128.81278697 150 146 C148.50631485 149.48029121 146.52082582 151.72618348 143.84921265 154.39129639 C142.97980545 155.26345291 142.11039825 156.13560944 141.21464539 157.03419495 C140.24914637 157.9926163 139.28355173 158.95094133 138.31787109 159.90917969 C137.30238106 160.92410545 136.28733148 161.93947208 135.27268982 162.95524597 C132.5190921 165.70941754 129.75937117 168.45737879 126.99851561 171.20427227 C124.11348903 174.076797 121.23412458 176.95498586 118.35415649 179.83258057 C112.90062122 185.27989947 107.44200771 190.72210002 101.98155463 196.16248345 C95.7648666 202.35681738 89.55385612 208.55683076 83.34331775 214.75732946 C70.56852222 227.51121944 57.78660861 240.257954 45 253 C41.00102453 251.39134973 38.30468051 248.58984009 35.32034302 245.58776855 C34.75762849 245.02958514 34.19491396 244.47140172 33.61514747 243.89630365 C31.72968773 242.02350998 29.85145524 240.14363357 27.97314453 238.26367188 C26.62310055 236.91961198 25.27264684 235.57596354 23.92181396 234.23269653 C20.25156717 230.58013466 16.58785036 226.92108953 12.92579889 223.26031303 C10.63598691 220.97192244 8.34475681 218.68496184 6.05300522 216.39851379 C-1.94711674 208.4169043 -9.94204434 200.43013382 -17.93212891 192.43847656 C-25.37104636 184.9983592 -32.82102599 177.56944944 -40.27633369 170.14575911 C-46.68192439 163.76636426 -53.0797348 157.37923649 -59.47160256 150.98609209 C-63.28672833 147.17045742 -67.10486546 143.35796314 -70.93084335 139.5532074 C-74.53320244 135.97028473 -78.12573421 132.37778611 -81.71112823 128.77788925 C-83.02419022 127.46274441 -84.3406337 126.15096511 -85.6607933 124.8429451 C-97.88666393 112.72218904 -106.20190294 101.81442044 -106.375 84 C-106.18551208 66.34153004 -97.8969298 55.24290258 -85.5703125 43.07421875 C-84.56988901 42.07363971 -83.57013665 41.07238925 -82.5710144 40.07051086 C-80.49128127 37.98940535 -78.40486033 35.91533721 -76.31298828 33.84643555 C-73.65299089 31.21487479 -71.0089104 28.56797391 -68.36946297 25.91582012 C-66.31256168 23.85191487 -64.24827899 21.79552082 -62.18169785 19.74131203 C-61.20459982 18.76867887 -60.22951177 17.79402155 -59.25662613 16.81717491 C-52.23105765 9.77639238 -45.10509989 3.16967261 -35.625 -0.3125 C-34.81289062 -0.61800781 -34.00078125 -0.92351563 -33.1640625 -1.23828125 C-22.92150307 -4.84351426 -10.03075832 -4.09056414 0 0 Z " fill="#FD9923" transform="translate(106,3)"/>
<path d="M0 0 C4.80234405 4.00373199 9.32602477 8.18913345 13.72631836 12.62866211 C14.35822586 13.26202988 14.99013336 13.89539764 15.64118958 14.54795837 C17.00142232 15.91197155 18.36049956 17.27713785 19.71851921 18.64335442 C21.87378602 20.81148866 24.03225186 22.97639285 26.19154358 25.14051819 C31.5524874 30.51476933 36.90796784 35.89445414 42.26361084 41.27398682 C46.79661147 45.82679106 51.33170343 50.37749287 55.86953926 54.92547798 C57.98524909 57.04762109 60.09789876 59.17277777 62.21043396 61.29808044 C67.65408356 66.76235536 73.05872894 72.18191582 78.94236755 77.1761322 C84.1756978 81.81491137 89.05236542 86.8647811 94.00390625 91.80078125 C94.92307988 92.71571382 94.92307988 92.71571382 95.86082268 93.64912987 C99.10058487 96.87398848 102.33752763 100.10164471 105.57202148 103.33178711 C108.88912307 106.64340118 112.21540828 109.94562655 115.54394627 113.24573994 C118.1254373 115.80849791 120.70008978 118.37804592 123.27299309 120.94942284 C124.49555182 122.16898118 125.72057942 123.38607034 126.94824409 124.60048866 C139.53170947 137.05775869 150.16649852 149.48629985 150.3125 168 C150.35068448 190.56702923 135.14482492 203.95697297 120.18806458 218.99217224 C118.58619538 220.59760741 116.98337264 222.20209168 115.37963867 223.80566406 C112.93444691 226.25305584 110.49739095 228.70836233 108.06054688 231.1640625 C106.48746922 232.74007263 104.91391769 234.31560993 103.33984375 235.890625 C102.62191147 236.6157428 101.90397919 237.3408606 101.16429138 238.08795166 C90.06160236 249.14121343 78.83688589 256.41045497 62.75 256.375 C45.46582892 256.3119312 34.85253812 248.2343946 23.05909729 236.43235779 C21.7787591 235.14140574 20.49856676 233.85030903 19.21850586 232.55908203 C17.8483826 231.18811143 16.47759619 229.81780331 15.10620117 228.44810486 C11.40382523 224.74658612 7.71074215 221.03592171 4.01931071 217.32349253 C0.1530013 213.43837045 -3.72186222 209.56179874 -7.59580994 205.68429565 C-14.92202809 198.34877051 -22.2405682 191.00563481 -29.55635208 183.65970504 C-37.88902532 175.29344588 -46.23026585 166.93575071 -54.57222188 158.57874894 C-71.7243358 141.3953165 -88.86571193 124.20120607 -106 107 C-101.03187696 101.00456078 -95.65355361 95.51832519 -90.13916016 90.02563477 C-89.15285096 89.03960816 -88.16676293 88.05336029 -87.18087769 87.06690979 C-84.5223944 84.40814131 -81.86085408 81.75245273 -79.19872713 79.09733319 C-76.41025453 76.31514044 -73.62464098 73.53008803 -70.8387146 70.74534607 C-65.57102436 65.48075555 -60.30079174 60.21871788 -55.02962625 54.95760721 C-49.0251978 48.96438225 -43.02363146 42.96829466 -37.02229619 36.97197258 C-24.68469825 24.64480823 -12.3435357 12.32121864 0 0 Z " fill="#FD9823" transform="translate(362,256)"/>
<path d="M0 0 C5.99543922 4.96812304 11.48167481 10.34644639 16.97436523 15.86083984 C17.96039184 16.84714904 18.94663971 17.83323707 19.93309021 18.81912231 C22.59185869 21.4776056 25.24754727 24.13914592 27.90266681 26.80127287 C30.68485956 29.58974547 33.46991197 32.37535902 36.25465393 35.1612854 C41.51924445 40.42897564 46.78128212 45.69920826 52.04239279 50.97037375 C58.03561775 56.9748022 64.03170534 62.97636854 70.02802742 68.97770381 C82.35519177 81.31530175 94.67878136 93.6564643 107 106 C106.60151541 106.46431899 106.20303082 106.92863798 105.79247093 107.40702724 C102.57475402 111.15502631 102.57475402 111.15502631 99.38296509 114.92506409 C93.24375686 122.13880142 86.4497724 128.75468727 79.7734375 135.46484375 C79.08999897 136.15235781 78.40656044 136.83987186 77.70241165 137.54821968 C74.08532639 141.18606205 70.46504523 144.82069017 66.84228516 148.45288086 C63.13235801 152.17386032 59.43426353 155.9063721 55.73871422 159.6416235 C52.86611364 162.54055212 49.9844872 165.43038487 47.10048294 168.31796455 C45.73457436 169.68869596 44.37199957 171.06275896 43.01307297 172.44041252 C24.99280796 190.69351863 6.171428 203.13478973 -20.3125 203.4375 C-41.0142677 203.28577152 -59.65151962 196.63015647 -74.41796875 181.75 C-90.76700479 164.33741093 -96.59424997 145.33973229 -96.26953125 121.84375 C-95.29341623 91.87749979 -73.48959776 71.22533242 -53 52 C-51.80065819 50.96571396 -50.59970564 49.93329457 -49.39770508 48.90209961 C-44.1519961 44.33349503 -39.27767392 39.40271691 -34.375 34.47265625 C-33.37774323 33.47352972 -32.38026198 32.4746272 -31.38256836 31.47593689 C-28.78294321 28.8725305 -26.18633769 26.2661333 -23.59039307 23.65905762 C-20.93060237 20.98895726 -18.2679066 18.32175723 -15.60546875 15.65429688 C-10.40083112 10.43899962 -5.1993866 5.22053284 0 0 Z " fill="#C8C6CD" transform="translate(96,309)"/>
<path d="M0 0 C4.15701684 3.49808774 8.17800579 7.05384514 12.01733398 10.90380859 C12.93775986 11.82431 13.85818573 12.7448114 14.8065033 13.69320679 C15.78642152 14.67822924 16.76628374 15.66330741 17.74609375 16.6484375 C18.76720048 17.67141306 19.788531 18.69416528 20.81007385 19.71670532 C23.47711353 22.38753361 26.14113436 25.06135282 28.80450439 27.73583984 C31.5312385 30.47286736 34.26086305 33.20700901 36.99023438 35.94140625 C42.32963089 41.29147548 47.66583652 46.64471273 53 52 C51.55461152 55.3104845 49.75721103 57.49169438 47.20876122 60.03733444 C46.41404832 60.83602943 45.61933543 61.63472442 44.80054033 62.45762229 C43.92312075 63.32921619 43.04570117 64.20081008 42.14169312 65.09881592 C41.21301788 66.0292 40.28434264 66.95958409 39.32752573 67.91816163 C36.74836947 70.50179487 34.16301013 73.07914223 31.57661009 75.65552115 C28.78909217 78.43441194 26.00734634 81.21907004 23.22489929 84.0030365 C18.40288629 88.82609881 13.5772214 93.6454822 8.7490654 98.46239471 C1.76834638 105.42686805 -5.20685145 112.39684951 -12.18070881 119.36819294 C-23.49514539 130.67825095 -34.81404222 141.9838343 -46.13574219 153.28662109 C-57.13450246 164.26702675 -68.13116275 175.24952848 -79.125 186.23486328 C-79.80252255 186.91186038 -80.4800451 187.58885749 -81.17809863 188.28636965 C-84.57697592 191.68263688 -87.9758119 195.07894545 -91.37462735 198.47527456 C-119.57668418 226.65659386 -147.78597916 254.83065891 -176 283 C-177.11352713 282.05232915 -178.2260864 281.10352099 -179.33824253 280.15424156 C-179.9579038 279.62599765 -180.57756507 279.09775374 -181.21600395 278.55350244 C-183.58105794 276.49401517 -185.80317497 274.31648383 -188.01733398 272.09619141 C-188.93775986 271.17569 -189.85818573 270.2551886 -190.8065033 269.30679321 C-191.78642152 268.32177076 -192.76628374 267.33669259 -193.74609375 266.3515625 C-194.76720048 265.32858694 -195.788531 264.30583472 -196.81007385 263.28329468 C-199.47711353 260.61246639 -202.14113436 257.93864718 -204.80450439 255.26416016 C-207.5312385 252.52713264 -210.26086305 249.79299099 -212.99023438 247.05859375 C-218.32963089 241.70852452 -223.66583652 236.35528727 -229 231 C-227.44270774 227.27310105 -225.15304506 224.90541253 -222.31005859 222.06713867 C-221.83493835 221.59012009 -221.35981812 221.1131015 -220.87030029 220.62162781 C-219.30118688 219.04881626 -217.72499635 217.48331429 -216.1484375 215.91796875 C-215.0490835 214.81980817 -213.95010035 213.72127623 -212.85147095 212.62239075 C-210.54615068 210.31863417 -208.23751341 208.01827238 -205.92626953 205.72045898 C-202.9827277 202.79381662 -200.04572006 199.86072619 -197.11099815 196.92524242 C-194.83943839 194.65395656 -192.56526588 192.38530179 -190.29024124 190.11748695 C-189.20773486 189.03813587 -188.12580943 187.95820177 -187.04450607 186.87764549 C-185.52092108 185.356263 -183.99406584 183.83823631 -182.46630859 182.32104492 C-181.60186127 181.46040939 -180.73741394 180.59977386 -179.84677124 179.71305847 C-177.69326322 177.66070067 -175.52306073 175.70891499 -173.27043152 173.77142334 C-168.36459008 169.50962254 -163.79490781 164.934897 -159.20678711 160.33618164 C-158.25166545 159.38241828 -157.2963319 158.42886707 -156.34080505 157.47550964 C-153.76831468 154.90754257 -151.19895477 152.33646531 -148.6303184 149.76464391 C-145.92851845 147.0602938 -143.22425851 144.3584053 -140.520401 141.65611267 C-135.98209824 137.11962389 -131.44589571 132.58104304 -126.91088867 128.04125977 C-121.6845319 122.80946187 -116.45458272 117.58127589 -111.22275347 112.35495096 C-106.71281391 107.84956456 -102.20484496 103.34221339 -97.69848639 98.83324522 C-95.01495031 96.14815845 -92.33076307 93.46373198 -89.64478874 90.78108406 C-87.11849951 88.25770565 -84.59471123 85.73185118 -82.07274818 83.20414925 C-80.71724601 81.84671663 -79.35931291 80.4917128 -78.00128174 79.1368103 C-73.7131396 74.83396953 -69.59174566 70.4609474 -65.63045406 65.85616207 C-62.98976947 62.84992063 -60.16757268 60.03625372 -57.33032227 57.21679688 C-56.70507156 56.59140015 -56.07982086 55.96600342 -55.43562317 55.32165527 C-53.39824924 53.28496992 -51.35737224 51.25183517 -49.31640625 49.21875 C-47.89129587 47.79550756 -46.46640824 46.37204206 -45.04173279 44.94836426 C-41.31382991 41.22425698 -37.58293244 37.50316416 -33.85137939 33.78271484 C-30.0351557 29.97676924 -26.22180483 26.16794755 -22.40820312 22.359375 C-14.94159322 14.90345019 -7.471813 7.45071037 0 0 Z " fill="#00D97B" transform="translate(326,79)"/>
<path d="M0 0 C4.80234405 4.00373199 9.32602477 8.18913345 13.72631836 12.62866211 C14.35822586 13.26202988 14.99013336 13.89539764 15.64118958 14.54795837 C17.00142232 15.91197155 18.36049956 17.27713785 19.71851921 18.64335442 C21.87378602 20.81148866 24.03225186 22.97639285 26.19154358 25.14051819 C31.5524874 30.51476933 36.90796784 35.89445414 42.26361084 41.27398682 C46.79661147 45.82679106 51.33170343 50.37749287 55.86953926 54.92547798 C57.98524909 57.04762109 60.09789876 59.17277777 62.21043396 61.29808044 C67.65408356 66.76235536 73.05872894 72.18191582 78.94236755 77.1761322 C84.1756978 81.81491137 89.05236542 86.8647811 94.00390625 91.80078125 C94.92307988 92.71571382 94.92307988 92.71571382 95.86082268 93.64912987 C99.10058487 96.87398848 102.33752763 100.10164471 105.57202148 103.33178711 C108.88912307 106.64340118 112.21540828 109.94562655 115.54394627 113.24573994 C118.1254373 115.80849791 120.70008978 118.37804592 123.27299309 120.94942284 C124.49555182 122.16898118 125.72057942 123.38607034 126.94824409 124.60048866 C139.53170947 137.05775869 150.16649852 149.48629985 150.3125 168 C150.3467564 188.24553506 138.60683306 200.39759231 125.01538086 214.04833984 C122.01992816 217.04203279 119.01388449 220.02486971 116 223 C115.502724 222.34006546 115.005448 221.68013092 114.49310303 221.00019836 C111.251254 217.09895961 107.70375581 213.57284309 104.11035156 209.99682617 C102.92441658 208.81067215 102.92441658 208.81067215 101.71452332 207.60055542 C99.10892132 204.99564832 96.49979846 202.39429812 93.890625 199.79296875 C92.0800838 197.98429323 90.26976372 196.17539634 88.45965576 194.36628723 C84.18692442 190.0969798 79.9119747 185.82990614 75.63593364 181.5639146 C70.76575374 176.70493119 65.89842977 171.84309121 61.03133821 166.98101461 C51.02405653 156.98417157 41.01321118 146.99090358 31 137 C31.48726563 136.09121094 31.97453125 135.18242187 32.4765625 134.24609375 C34.98666139 128.89765227 34.49369813 124.74246398 32.9375 119.25 C30.54912176 115.24368812 28.40243789 113.47039675 24 112 C18.7319023 111.12031765 15.48077146 112.26175077 11 115 C6.86580363 113.69157045 4.09809988 110.36487265 1.12988281 107.35693359 C0.55383804 106.78118088 -0.02220673 106.20542816 -0.6157074 105.61222839 C-2.51421037 103.71233463 -4.40553522 101.80546009 -6.296875 99.8984375 C-7.61351582 98.57806566 -8.93059957 97.25813536 -10.24810791 95.93862915 C-13.71145037 92.46765724 -17.16874418 88.9907207 -20.62481689 85.51251221 C-24.1537998 81.96305615 -27.6884642 78.41926799 -31.22265625 74.875 C-38.15401308 67.92220537 -45.07899377 60.96309691 -52 54 C-50.43056316 50.21698773 -48.06898723 47.82743453 -45.18310547 44.95605469 C-44.69513489 44.46779205 -44.20716431 43.97952942 -43.70440674 43.47647095 C-42.09669725 41.87015038 -40.48202899 40.27102287 -38.8671875 38.671875 C-37.74859765 37.55701683 -36.63044971 36.44171513 -35.51272583 35.32598877 C-32.57440675 32.39529391 -29.63013045 29.47065578 -26.68457031 26.54724121 C-23.67801738 23.56117275 -20.67714118 20.56941141 -17.67578125 17.578125 C-11.78939314 11.71316544 -5.896699 5.85459268 0 0 Z " fill="#FDA831" transform="translate(362,256)"/>
<path d="M0 0 C9.91336493 5.10783287 17.2692511 12.72460881 25.00854492 20.55444336 C26.37874791 21.92577666 27.7498363 23.29622577 29.12173462 24.66586304 C32.81798921 28.36097675 36.50183792 32.06823315 40.18347716 35.77790141 C44.04261787 39.66216065 47.91319867 43.53498679 51.782547 47.40907288 C59.09655703 54.73548204 66.40031634 62.07202149 73.70039016 69.412314 C82.01659831 77.7733353 90.34425822 86.12291079 98.67286909 94.47157466 C115.79462763 111.63506813 132.90205414 128.81278697 150 146 C148.25258746 149.73411919 146.11990518 152.12190339 143.18310547 155.04394531 C142.69513489 155.53220795 142.20716431 156.02047058 141.70440674 156.52352905 C140.09669725 158.12984962 138.48202899 159.72897713 136.8671875 161.328125 C135.74859765 162.44298317 134.63044971 163.55828487 133.51272583 164.67401123 C130.57440675 167.60470609 127.63013045 170.52934422 124.68457031 173.45275879 C121.67801738 176.43882725 118.67714118 179.43058859 115.67578125 182.421875 C109.78939314 188.28683456 103.896699 194.14540732 98 200 C90.89487994 194.19861308 84.5298138 187.65610323 78.06640625 181.1640625 C76.82109655 179.9168849 75.57556379 178.66992999 74.32981873 177.42318726 C71.07094634 174.16051895 67.81508982 170.89485749 64.55987549 167.62854004 C61.22990221 164.28828938 57.89705327 160.95091069 54.56445312 157.61328125 C48.04016861 151.07831107 41.51907004 144.54017169 35 138 C35.32379639 137.06808838 35.64759277 136.13617676 35.98120117 135.17602539 C37.78739838 129.54534734 37.96189999 123.56506665 35.875 118 C32.80668289 114.72712841 30.00267045 113.19964316 25.4921875 112.75 C19.92139913 112.56738472 19.92139913 112.56738472 15 115 C11.49676401 114.69524861 9.79324467 113.16503215 7.36798096 110.72874451 C6.66410751 110.02899506 5.96023407 109.32924561 5.23503113 108.60829163 C4.47330093 107.8357756 3.71157074 107.06325958 2.92675781 106.26733398 C2.11662735 105.4576416 1.30649689 104.64794922 0.47181702 103.8137207 C-2.20825085 101.13156029 -4.87753212 98.43892464 -7.546875 95.74609375 C-9.40138444 93.88599005 -11.25655666 92.02654693 -13.11236572 90.16773987 C-17.49922736 85.77155434 -21.8783857 81.36777755 -26.25483155 76.96122557 C-31.23801985 71.94450397 -36.22973046 66.93629934 -41.22217703 61.92879379 C-51.49096366 51.62865037 -61.74900094 41.31784586 -72 31 C-71.04235262 29.87804461 -70.0840382 28.75665856 -69.1254425 27.63551331 C-68.59185277 27.01098046 -68.05826303 26.38644762 -67.50850391 25.74298954 C-64.5520923 22.3270259 -61.36831273 19.14271014 -58.1875 15.9375 C-57.1965332 14.9155957 -57.1965332 14.9155957 -56.18554688 13.87304688 C-50.19424086 7.83534159 -43.68891646 2.64948873 -35.625 -0.3125 C-34.81289062 -0.61800781 -34.00078125 -0.92351563 -33.1640625 -1.23828125 C-22.92150307 -4.84351426 -10.03075832 -4.09056414 0 0 Z " fill="#FDA832" transform="translate(106,3)"/>
<path d="M0 0 C3.66864538 2.68437467 6.50666083 5.76332166 8.5625 9.875 C9.89202279 19.76969786 6.89844421 26.77213064 2.375 35.375 C1.72790382 36.65043416 1.083674 37.92732614 0.44213867 39.20556641 C-0.54650553 41.17493201 -1.53661089 43.14335475 -2.53544617 45.10757446 C-5.73792351 51.41026344 -8.69078797 57.81852062 -11.625 64.25 C-18.88284034 80.02173606 -26.54790554 95.59334115 -34.17523193 111.18862915 C-37.23230304 117.44382818 -40.25565884 123.71450918 -43.25 130 C-47.07214824 138.02068623 -50.91115683 146.03302492 -54.77059937 154.03582764 C-55.6496411 155.85897979 -56.52760368 157.68265214 -57.40551758 159.50634766 C-61.34320413 167.66680214 -65.36611794 175.78063155 -69.4375 183.875 C-73.61503563 183.35902287 -75.56242517 181.11858771 -78.4621582 178.20678711 C-78.94893036 177.72205933 -79.43570251 177.23733154 -79.93722534 176.73791504 C-81.54492952 175.13321861 -83.14162758 173.5180298 -84.73828125 171.90234375 C-85.85864272 170.77892192 -86.97959831 169.65609231 -88.10112 168.53382874 C-90.45344342 166.17690076 -92.80077267 163.81514945 -95.14428711 161.44946289 C-98.12979341 158.43583724 -101.1237535 155.43080069 -104.12110615 152.42896175 C-106.99664966 149.54822391 -109.86751171 146.66283759 -112.73828125 143.77734375 C-113.27828577 143.23545851 -113.81829029 142.69357327 -114.37465858 142.13526726 C-119.63006082 136.85623375 -124.78896362 131.55350024 -129.63960266 125.89503479 C-133.5541995 121.49677376 -137.79123273 117.40042639 -141.96484375 113.25 C-142.96397028 112.25274323 -143.9628728 111.25526198 -144.96156311 110.25756836 C-147.5649695 107.65794321 -150.1713667 105.06133769 -152.77844238 102.46539307 C-155.44854274 99.80560237 -158.11574277 97.1429066 -160.78320312 94.48046875 C-165.99850038 89.27583112 -171.21696716 84.0743866 -176.4375 78.875 C-173.14402683 75.43121177 -170.17099938 73.53450816 -165.84765625 71.4765625 C-165.19995773 71.16527405 -164.55225922 70.8539856 -163.88493347 70.53326416 C-161.76028038 69.51431798 -159.630229 68.50722977 -157.5 67.5 C-156.00643458 66.78615816 -154.51327553 66.07146551 -153.02050781 65.35595703 C-149.96819303 63.89412421 -146.91390597 62.43654317 -143.85791016 60.98242188 C-137.45412545 57.93314933 -131.0719719 54.83945938 -124.6875 51.75 C-122.29444877 50.59468344 -119.90121999 49.43973459 -117.5078125 48.28515625 C-116.33508789 47.71941895 -115.16236328 47.15368164 -113.95410156 46.57080078 C-110.48797824 44.89934198 -107.02137232 43.22888762 -103.5546875 41.55859375 C-89.52317094 34.7955269 -75.5054291 28.00442893 -61.5 21.1875 C-60.66271362 20.77997498 -59.82542725 20.37244995 -58.96276855 19.95257568 C-48.17917998 14.70129784 -37.41279254 9.42013025 -26.71508789 3.99536133 C-17.79886459 -0.51142473 -10.00486382 -3.27431907 0 0 Z " fill="#FDC377" transform="translate(503.4375,1.125)"/>
<path d="M0 0 C3.49801422 1.49854217 5.75157144 3.50459456 8.42926025 6.18875122 C9.75011627 7.50548325 9.75011627 7.50548325 11.09765625 8.84881592 C12.06552278 9.82376013 13.033293 10.79879996 14.00097656 11.77392578 C15.02575442 12.79926791 16.05097312 13.82416958 17.07659912 14.84866333 C19.85762918 17.62911951 22.63244911 20.41569956 25.40620136 23.20341349 C28.30675356 26.11646708 31.21296944 29.02385896 34.11859131 31.93185425 C39.61903401 37.43851344 45.11435852 42.9502511 50.60786605 48.46382797 C56.86265855 54.74097416 63.12313014 61.01244316 69.38408709 67.28343987 C82.26239093 80.18264956 95.13353955 93.0889775 108 106 C101.25625265 120.36777522 83.08325572 130.65453068 69 136 C51.32042439 142.29030723 29.66079055 140.73069749 12.6640625 133.1171875 C-6.10973456 124.13129678 -19.80274184 109.31482658 -27.22265625 89.78125 C-34.17879775 69.6358653 -32.57332273 48.18544738 -23.5625 29 C-17.89972844 17.69516423 -8.90730438 8.80030973 0 0 Z " fill="#FB5112" transform="translate(31,373)"/>
<path d="M0 0 C3.07917396 1.37111616 5.16787036 2.92754931 7.5291748 5.3223114 C8.2104393 6.00805237 8.8917038 6.69379333 9.59361267 7.40031433 C10.33035721 8.15210464 11.06710175 8.90389496 11.82617188 9.6784668 C12.61037003 10.47040436 13.39456818 11.26234192 14.20252991 12.07827759 C15.90431857 13.79771882 17.60389798 15.51934879 19.30152893 17.24289513 C21.98560768 19.96632357 24.67708807 22.68222207 27.37097168 25.39595032 C35.0290691 33.11217037 42.67754096 40.83780886 50.31103516 48.57836914 C54.97938578 53.31201959 59.66076698 58.03253912 64.34950256 62.74601173 C66.13719928 64.54801376 67.9202016 66.35468508 69.69847107 68.16599083 C72.17902576 70.69199743 74.67441387 73.20239041 77.17382812 75.7097168 C77.91057266 76.4675798 78.6473172 77.22544281 79.40638733 78.00627136 C80.08765182 78.68355286 80.76891632 79.36083435 81.4708252 80.05863953 C82.35348431 80.95210854 82.35348431 80.95210854 83.25397491 81.86362743 C84.95016906 83.23363052 84.95016906 83.23363052 87.09557343 82.74633503 C89.04206676 82.01647738 89.04206676 82.01647738 91 81 C97.83757228 80.23749194 102.47763387 80.83005006 108 85 C111.70277177 88.94166027 111.32215778 93.24141385 111.30078125 98.37890625 C110.99588312 101.0358757 110.34978956 102.71449975 109 105 C105.11863416 104.44387545 103.37243082 102.72326862 100.671875 99.96484375 C99.47304688 98.75151367 99.47304688 98.75151367 98.25 97.51367188 C97.425 96.66353516 96.6 95.81339844 95.75 94.9375 C94.90953125 94.08349609 94.0690625 93.22949219 93.203125 92.34960938 C91.12852403 90.23964588 89.06124168 88.12300292 87 86 C83.21698773 87.56943684 80.82743453 89.93101277 77.95605469 92.81689453 C77.46779205 93.30486511 76.97952942 93.79283569 76.47647095 94.29559326 C74.87015038 95.90330275 73.27102287 97.51797101 71.671875 99.1328125 C70.55701683 100.25140235 69.44171513 101.36955029 68.32598877 102.48727417 C65.39529391 105.42559325 62.47065578 108.36986955 59.54724121 111.31542969 C56.56117275 114.32198262 53.56941141 117.32285882 50.578125 120.32421875 C44.71316544 126.21060686 38.85459268 132.103301 33 138 C26.50762571 132.63774815 20.55788082 126.75762644 14.58984375 120.828125 C14.05212404 120.29448082 13.51440434 119.76083664 12.96039009 119.21102142 C10.11705154 116.38841952 7.27691427 113.5626397 4.43920898 110.734375 C1.53060551 107.83684012 -1.38949313 104.95118308 -4.31232548 102.06801224 C-6.5797551 99.82688494 -8.83810349 97.57676614 -11.09420586 95.32424164 C-12.1659843 94.25728997 -13.24109791 93.1936764 -14.31978035 92.13370514 C-26.10137337 80.54397321 -33.2119883 69.77647761 -33.375 53 C-33.19615514 36.33336227 -25.86950776 25.28967041 -14.20898438 13.85742188 C-13.16038054 12.8422162 -12.11154976 11.82724488 -11.0625 10.8125 C-9.98538932 9.75551313 -8.90921111 8.69757515 -7.83398438 7.63867188 C-5.23327837 5.08142986 -2.6203167 2.5371625 0 0 Z " fill="#FD9923" transform="translate(33,34)"/>
<path d="M0 0 C3.06123401 1.36908683 5.18462497 2.9275231 7.56282043 5.28193665 C8.25131073 5.95900665 8.93980103 6.63607666 9.64915466 7.33366394 C10.39375443 8.07602798 11.13835419 8.81839203 11.90551758 9.58325195 C12.69774719 10.36555176 13.48997681 11.14785156 14.30621338 11.95385742 C16.92461686 14.54305225 19.53516993 17.13997583 22.14453125 19.73828125 C23.95724314 21.53949152 25.76996194 23.34069484 27.58268738 25.14189148 C30.89500316 28.43588418 34.20444284 31.7327164 37.51063806 35.03284866 C42.37815133 39.89138608 47.25848435 44.73654361 52.15034944 49.57055885 C56.38782875 53.7596542 60.60879608 57.96512133 64.82388878 62.17674828 C66.61995489 63.96674487 68.42104089 65.75171873 70.22712135 67.53161049 C72.74619731 70.0167351 75.24583331 72.51991859 77.74145508 75.02856445 C78.49617599 75.7648558 79.25089691 76.50114716 80.02848816 77.25975037 C81.04007492 78.28804459 81.04007492 78.28804459 82.07209778 79.33711243 C82.66514615 79.92722768 83.25819452 80.51734293 83.86921406 81.12534046 C85 83 85 83 84.79116344 85.59039593 C83.78219766 88.66334891 82.32265486 90.16377776 80.02734375 92.43359375 C79.20943359 93.24763672 78.39152344 94.06167969 77.54882812 94.90039062 C76.68708984 95.73763672 75.82535156 96.57488281 74.9375 97.4375 C74.10283203 98.27087891 73.26816406 99.10425781 72.40820312 99.96289062 C59.73342424 112.4598472 48.33064515 119.43185275 30.20751953 119.36572266 C12.6484317 118.99602195 1.78379014 108.2365301 -9.91015625 96.3828125 C-11.12974626 95.15761656 -12.35000825 93.9330892 -13.57090759 92.709198 C-16.75861772 89.51011759 -19.93720875 86.30212776 -23.1138916 83.09210205 C-26.36662016 79.80850283 -29.62802182 76.53354234 -32.88867188 73.2578125 C-39.26756135 66.84689709 -45.63683639 60.4265218 -52 54 C-50.43056316 50.21698773 -48.06898723 47.82743453 -45.18310547 44.95605469 C-44.69513489 44.46779205 -44.20716431 43.97952942 -43.70440674 43.47647095 C-42.09669725 41.87015038 -40.48202899 40.27102287 -38.8671875 38.671875 C-37.74859765 37.55701683 -36.63044971 36.44171513 -35.51272583 35.32598877 C-32.57440675 32.39529391 -29.63013045 29.47065578 -26.68457031 26.54724121 C-23.67801738 23.56117275 -20.67714118 20.56941141 -17.67578125 17.578125 C-11.78939314 11.71316544 -5.896699 5.85459268 0 0 Z " fill="#FD9923" transform="translate(392,393)"/>
<path d="M0 0 C6.24883419 5.1810911 12.01555818 10.7996443 17.78125 16.5078125 C18.28357651 17.00481533 18.78590302 17.50181816 19.30345154 18.01388168 C21.95091025 20.63482356 24.59482943 23.2592828 27.23632812 25.88623047 C29.41958318 28.0560491 31.6099205 30.21832746 33.80664062 32.37451172 C36.47118876 34.98992151 39.12341924 37.61722839 41.76707458 40.25374985 C42.77401211 41.25396231 43.7852094 42.24990511 44.80067444 43.24145889 C46.21268712 44.62204 47.60778085 46.01986214 49.00195312 47.41845703 C49.80024536 48.20866241 50.5985376 48.9988678 51.42102051 49.8130188 C53 52 53 52 52.97853088 54.03541565 C51.75479595 56.49229314 50.29012851 58.07669873 48.34155273 60.01489258 C47.56661972 60.79282669 46.79168671 61.5707608 45.99327087 62.37226868 C44.7262307 63.62078865 44.7262307 63.62078865 43.43359375 64.89453125 C42.56614029 65.76011154 41.69868683 66.62569183 40.8049469 67.51750183 C38.96484727 69.35087345 37.12115072 71.1806409 35.27416992 73.00708008 C32.46610622 75.78420892 29.66864329 78.5716551 26.87304688 81.36132812 C25.08134589 83.14384928 23.28904681 84.9257695 21.49609375 86.70703125 C20.66556992 87.53330521 19.83504608 88.35957916 18.97935486 89.21089172 C14.69320492 93.44537357 10.34576177 97.54235752 5.75642395 101.44755554 C2.13031269 104.65255416 -1.13904917 108.2532313 -4.41796875 111.80859375 C-6.046875 113.5 -6.046875 113.5 -9 116 C-13.15216622 115.90184961 -15.35537835 113.00584409 -18.13574219 110.20483398 C-18.88276649 109.4584668 -18.88276649 109.4584668 -19.6448822 108.69702148 C-21.28609261 107.05372425 -22.91642663 105.40006365 -24.546875 103.74609375 C-25.68393494 102.60343749 -26.82165988 101.46144262 -27.96002197 100.32008362 C-30.95213476 97.31652494 -33.93512859 94.30406586 -36.9163208 91.28967285 C-39.96089934 88.21438808 -43.0140045 85.14759455 -46.06640625 82.08007812 C-52.05265518 76.06166955 -58.02929845 70.03383283 -64 64 C-59.97292093 59.08928915 -55.68997872 54.70731129 -51 50.43359375 C-40.87004983 41.06498984 -31.16370231 31.27890107 -21.4317627 21.50042725 C-19.00590621 19.06412607 -16.57702302 16.63084589 -14.1484375 14.19726562 C-9.42958499 9.46753629 -4.71361528 4.73494845 0 0 Z " fill="#D8D8D8" transform="translate(96,309)"/>
<path d="M0 0 C3.8239492 1.57877433 6.23642099 3.99501713 9.13574219 6.90869141 C9.63375839 7.40641556 10.1317746 7.90413971 10.6448822 8.41694641 C12.28366733 10.0571207 13.91526134 11.70425661 15.546875 13.3515625 C16.68415347 14.49257256 17.8218754 15.63314077 18.96002197 16.77328491 C21.94989979 19.77078762 24.93372191 22.77424851 27.9163208 25.7789917 C30.96271321 28.84586712 34.01479703 31.90706694 37.06640625 34.96875 C43.04985434 40.97362783 49.02691663 46.98481232 55 53 C33.66666667 74.33333333 12.33333333 95.66666667 -9 117 C-21.69019113 106.64059415 -28.48570442 91.0484542 -31 75 C-32.84806216 52.85823968 -28.6356636 32.10277334 -14.08959961 14.8359375 C-9.58908271 9.68882775 -4.86284243 4.80442991 0 0 Z " fill="#FE5F18" transform="translate(31,373)"/>
<path d="M0 0 C2.7994669 1.35928708 5.08799307 2.78231014 7.5 4.75 C17.61058298 12.35152287 27.7260777 15.22433104 40 17 C39.45719033 21.11824079 38.56794215 24.3412232 36.6640625 28.02734375 C36.18275879 28.97182373 35.70145508 29.91630371 35.20556641 30.8894043 C34.68397949 31.89527588 34.16239258 32.90114746 33.625 33.9375 C32.51914948 36.10851812 31.41502154 38.28041441 30.3125 40.453125 C29.75433594 41.55076172 29.19617188 42.64839844 28.62109375 43.77929688 C26.22005024 48.54956284 23.91534881 53.36333001 21.625 58.1875 C20.72668503 60.07557913 19.82824414 61.96359837 18.9296875 63.8515625 C18.46401367 64.8302832 17.99833984 65.80900391 17.51855469 66.81738281 C14.91345532 72.277202 12.28829336 77.72732536 9.65985107 83.17593384 C8.78362467 84.99277961 7.90863332 86.81022086 7.03369141 88.62768555 C3.09552986 96.78940763 -0.9280125 104.90442787 -5 113 C-9.16910471 112.48000953 -11.14387084 110.24822864 -14.05981445 107.36010742 C-14.54968338 106.87870804 -15.03955231 106.39730865 -15.54426575 105.90132141 C-17.15849489 104.31046078 -18.76131183 102.70866778 -20.36328125 101.10546875 C-21.48067789 99.99517178 -22.59837313 98.88517524 -23.71635437 97.77546692 C-26.05578915 95.44947517 -28.38920298 93.11763173 -30.71899414 90.78198242 C-33.70961966 87.7854492 -36.71811967 84.80759811 -39.73180866 81.83428478 C-42.04378927 79.54810855 -44.3442478 77.25060688 -46.64153099 74.94967079 C-47.74642038 73.84647825 -48.85531384 72.74728123 -49.96819496 71.65215111 C-51.52000722 70.12239361 -53.05521158 68.57769201 -54.5871582 67.02807617 C-55.46555862 66.15173019 -56.34395905 65.27538422 -57.24897766 64.3724823 C-59 62 -59 62 -59.11566162 60.04689026 C-57.43285336 56.95946324 -55.05002202 54.6596403 -52.56225586 52.22167969 C-51.99640274 51.65538849 -51.43054962 51.08909729 -50.84754944 50.50564575 C-48.97700443 48.63718936 -47.09606074 46.77958101 -45.21484375 44.921875 C-43.91524591 43.62787283 -42.6163092 42.33320636 -41.31800842 41.03790283 C-37.90016715 37.63151249 -34.47341237 34.2342274 -31.04473877 30.83874512 C-27.54719606 27.37189771 -24.05813702 23.89653563 -20.56835938 20.421875 C-13.72052726 13.60621145 -6.86325073 6.80013457 0 0 Z " fill="#FDB756" transform="translate(439,72)"/>
<path d="M0 0 C3.66864538 2.68437467 6.50666083 5.76332166 8.5625 9.875 C9.89194689 19.76913301 6.89983032 26.77261272 2.375 35.375 C1.73818908 36.62920875 1.10420588 37.8848568 0.47290039 39.1418457 C-0.50493436 41.08860019 -1.48415426 43.03445351 -2.47200012 44.97615051 C-5.99983992 51.91987717 -9.25595457 58.98292754 -12.5 66.0625 C-16.02381125 73.73225895 -19.6054842 81.35367796 -23.4375 88.875 C-43.1267119 86.37213408 -56.430509 79.29774528 -69.59375 64.44140625 C-73.28007725 59.64756402 -75.63085424 54.47204982 -77.8125 48.875 C-78.06378662 48.2346582 -78.31507324 47.59431641 -78.57397461 46.93457031 C-79.93913255 43.15882458 -80.64952092 39.62111747 -81.01025391 35.6171875 C-81.09256256 34.72628418 -81.17487122 33.83538086 -81.25967407 32.91748047 C-81.31835663 32.24346191 -81.37703918 31.56944336 -81.4375 30.875 C-80.37128418 30.35703857 -79.30506836 29.83907715 -78.20654297 29.30541992 C-73.24110907 26.89266047 -68.27663511 24.47793037 -63.3125 22.0625 C-62.42290588 21.62970734 -61.53331177 21.19691467 -60.61676025 20.75100708 C-49.28370415 15.23543241 -37.96339514 9.6999144 -26.72216797 3.9987793 C-17.80307936 -0.50884635 -10.00842001 -3.27548291 0 0 Z " fill="#57555C" transform="translate(503.4375,1.125)"/>
<path d="M0 0 C0.7425 0.495 1.485 0.99 2.25 1.5 C2.25 5.3508127 0.73920156 6.36434695 -1.87498474 8.99824524 C-2.48278275 9.59525742 -3.09058075 10.19226959 -3.71679688 10.80737305 C-4.35077896 11.44179321 -4.98476105 12.07621338 -5.63795471 12.7298584 C-7.74118888 14.83099783 -9.85485993 16.92130464 -11.96875 19.01171875 C-13.42671786 20.46409312 -14.88402601 21.91713001 -16.34069824 23.37080383 C-20.18106397 27.19970146 -24.03035295 31.01950606 -27.88153076 34.83752441 C-31.80793023 38.73326548 -35.72587716 42.63748645 -39.64453125 46.54101562 C-47.33807687 54.20236241 -55.04107014 61.8541354 -62.75 69.5 C-71.83146518 65.20664741 -76.21218789 54.00574622 -79.5 45 C-80.5156371 41.73049392 -81.02343566 38.62675668 -81.328125 35.21875 C-81.4096582 34.33123047 -81.49119141 33.44371094 -81.57519531 32.52929688 C-81.63288086 31.85962891 -81.69056641 31.18996094 -81.75 30.5 C-80.68378418 29.98203857 -79.61756836 29.46407715 -78.51904297 28.93041992 C-73.55360907 26.51766047 -68.58913511 24.10293037 -63.625 21.6875 C-62.73540588 21.25470734 -61.84581177 20.82191467 -60.92926025 20.37600708 C-49.59620415 14.86043241 -38.27589514 9.3249144 -27.03466797 3.6237793 C-18.62005494 -0.62888901 -9.26068658 -4.66349611 0 0 Z " fill="#787680" transform="translate(503.75,1.5)"/>
<path d="M0 0 C3.42482707 1.61776117 5.65690522 3.42343244 8.328125 6.1328125 C9.12734375 6.93847656 9.9265625 7.74414062 10.75 8.57421875 C11.575 9.41597656 12.4 10.25773438 13.25 11.125 C14.09046875 11.97449219 14.9309375 12.82398438 15.796875 13.69921875 C17.86915683 15.79504923 19.93662393 17.89540713 22 20 C20.43056316 23.78301227 18.06898723 26.17256547 15.18310547 29.04394531 C14.69513489 29.53220795 14.20716431 30.02047058 13.70440674 30.52352905 C12.09669725 32.12984962 10.48202899 33.72897713 8.8671875 35.328125 C7.74859765 36.44298317 6.63044971 37.55828487 5.51272583 38.67401123 C2.57440675 41.60470609 -0.36986955 44.52934422 -3.31542969 47.45275879 C-6.32198262 50.43882725 -9.32285882 53.43058859 -12.32421875 56.421875 C-18.21060686 62.28683456 -24.103301 68.14540732 -30 74 C-33.42482707 72.38223883 -35.65690522 70.57656756 -38.328125 67.8671875 C-39.12734375 67.06152344 -39.9265625 66.25585938 -40.75 65.42578125 C-41.575 64.58402344 -42.4 63.74226563 -43.25 62.875 C-44.09046875 62.02550781 -44.9309375 61.17601562 -45.796875 60.30078125 C-47.86915683 58.20495077 -49.93662393 56.10459287 -52 54 C-50.43056316 50.21698773 -48.06898723 47.82743453 -45.18310547 44.95605469 C-44.69513489 44.46779205 -44.20716431 43.97952942 -43.70440674 43.47647095 C-42.09669725 41.87015038 -40.48202899 40.27102287 -38.8671875 38.671875 C-37.74859765 37.55701683 -36.63044971 36.44171513 -35.51272583 35.32598877 C-32.57440675 32.39529391 -29.63013045 29.47065578 -26.68457031 26.54724121 C-23.67801738 23.56117275 -20.67714118 20.56941141 -17.67578125 17.578125 C-11.78939314 11.71316544 -5.896699 5.85459268 0 0 Z " fill="#E5741A" transform="translate(118,119)"/>
<path d="M0 0 C5.20698506 2.48033273 8.7480142 6.34067114 12.8125 10.375 C13.61365234 11.14328125 14.41480469 11.9115625 15.24023438 12.703125 C15.99240234 13.44820313 16.74457031 14.19328125 17.51953125 14.9609375 C18.55750854 15.97873291 18.55750854 15.97873291 19.61645508 17.01708984 C21 19 21 19 20.88616943 20.802948 C19.61726455 23.94890395 17.60894904 25.74934788 15.20483398 28.13574219 C14.70725586 28.63375839 14.20967773 29.1317746 13.69702148 29.6448822 C12.05372425 31.28609261 10.40006365 32.91642663 8.74609375 34.546875 C7.60343749 35.68393494 6.46144262 36.82165988 5.32008362 37.96002197 C2.31652494 40.95213476 -0.69593414 43.93512859 -3.71032715 46.9163208 C-6.78561192 49.96089934 -9.85240545 53.0140045 -12.91992188 56.06640625 C-18.93833045 62.05265518 -24.96616717 68.02929845 -31 74 C-34.68458983 70.88227323 -38.34675126 67.78327968 -41.74609375 64.3515625 C-42.35517578 63.73925781 -42.96425781 63.12695312 -43.59179688 62.49609375 C-44.20087891 61.87863281 -44.80996094 61.26117188 -45.4375 60.625 C-46.39172852 59.66400391 -46.39172852 59.66400391 -47.36523438 58.68359375 C-48.91250332 57.12469121 -50.45736492 55.56348584 -52 54 C-50.43056316 50.21698773 -48.06898723 47.82743453 -45.18310547 44.95605469 C-44.69513489 44.46779205 -44.20716431 43.97952942 -43.70440674 43.47647095 C-42.09669725 41.87015038 -40.48202899 40.27102287 -38.8671875 38.671875 C-37.74859765 37.55701683 -36.63044971 36.44171513 -35.51272583 35.32598877 C-32.57440675 32.39529391 -29.63013045 29.47065578 -26.68457031 26.54724121 C-23.67801738 23.56117275 -20.67714118 20.56941141 -17.67578125 17.578125 C-11.78939314 11.71316544 -5.896699 5.85459268 0 0 Z " fill="#E5741A" transform="translate(371,372)"/>
<path d="M0 0 C5.2590971 1.89327496 7.79008594 4.59783215 11 9 C12.362874 13.08862199 13.03886257 16.81922634 11.11256409 20.86289978 C7.92541415 25.92955258 4.31529149 30.15208105 0.08984375 34.37890625 C-0.88413612 35.36430641 -0.88413612 35.36430641 -1.87779236 36.36961365 C-3.2396328 37.74217974 -4.60537667 39.11088311 -5.97485352 40.47583008 C-8.07439711 42.57439155 -10.15160649 44.69351576 -12.22851562 46.81445312 C-13.55859584 48.14973369 -14.88993192 49.48376472 -16.22265625 50.81640625 C-17.1524807 51.77082359 -17.1524807 51.77082359 -18.10108948 52.74452209 C-18.68527145 53.31939865 -19.26945343 53.89427521 -19.87133789 54.48657227 C-20.3803212 54.99761002 -20.8893045 55.50864777 -21.41371155 56.03517151 C-23 57 -23 57 -25.06289673 56.76348877 C-29.60462523 54.97341451 -32.92615536 50.58436941 -36.3125 47.1875 C-37.16134766 46.36701172 -38.01019531 45.54652344 -38.88476562 44.70117188 C-39.68205078 43.90646484 -40.47933594 43.11175781 -41.30078125 42.29296875 C-42.03466064 41.5661792 -42.76854004 40.83938965 -43.5246582 40.09057617 C-45 38 -45 38 -44.76448059 36.06587219 C-43.90891952 33.75387127 -42.97596272 32.59589243 -41.24365234 30.85546875 C-40.37672256 29.97435425 -40.37672256 29.97435425 -39.49227905 29.07543945 C-38.86318634 28.45241943 -38.23409363 27.82939941 -37.5859375 27.1875 C-36.93807281 26.53676514 -36.29020813 25.88603027 -35.62271118 25.21557617 C-34.24939578 23.84021975 -32.87228641 22.46864278 -31.49169922 21.10058594 C-29.39329332 19.01815407 -27.31125479 16.92033311 -25.23046875 14.8203125 C-23.89158509 13.48341279 -22.55177031 12.14744481 -21.2109375 10.8125 C-20.59399017 10.18947998 -19.97704285 9.56645996 -19.34140015 8.92456055 C-13.68222472 3.35504658 -8.39346167 -1.06825876 0 0 Z " fill="#E5741A" transform="translate(154,178)"/>
<path d="M0 0 C4.79093194 1.69091716 8.72822004 4.349647 11 9 C12.0685486 15.19959803 11.15581857 19.57140018 8 25 C5.71486912 27.67895317 3.22400036 30.12590585 0.70703125 32.5859375 C0.00100266 33.28772125 -0.70502594 33.989505 -1.43244934 34.71255493 C-3.6771583 36.9405435 -5.93209821 39.15784167 -8.1875 41.375 C-9.71618326 42.88862792 -11.24418585 44.4029436 -12.77148438 45.91796875 C-16.5064771 49.61998032 -20.24991334 53.31328254 -24 57 C-27.42482707 55.38223883 -29.65690522 53.57656756 -32.328125 50.8671875 C-33.12734375 50.06152344 -33.9265625 49.25585938 -34.75 48.42578125 C-35.9875 47.16314453 -35.9875 47.16314453 -37.25 45.875 C-38.09046875 45.02550781 -38.9309375 44.17601562 -39.796875 43.30078125 C-41.86915683 41.20495077 -43.93662393 39.10459287 -46 37 C-44.72036686 34.19845003 -43.38678777 32.13250093 -41.22192383 29.94726562 C-40.66406693 29.37987671 -40.10621002 28.81248779 -39.53144836 28.22790527 C-38.62836189 27.32618591 -38.62836189 27.32618591 -37.70703125 26.40625 C-37.08277756 25.77771118 -36.45852386 25.14917236 -35.81535339 24.50158691 C-34.4939574 23.1744549 -33.16994198 21.84992656 -31.84350586 20.52783203 C-29.82840532 18.51588046 -27.82696097 16.49101544 -25.82617188 14.46484375 C-24.53727044 13.17366798 -23.24758163 11.88327763 -21.95703125 10.59375 C-21.36509476 9.99260376 -20.77315826 9.39145752 -20.1632843 8.77209473 C-14.08928649 2.76405314 -8.76855779 -0.9742842 0 0 Z " fill="#E5741A" transform="translate(407,431)"/>
<path d="M0 0 C4.13925516 2.54302066 7.16016833 5.46116998 9 10 C9.47288891 15.86382245 9.00877787 18.8216118 6 24 C3.6439455 26.75336418 1.07775549 29.2719769 -1.51171875 31.8046875 C-2.23994339 32.5286673 -2.96816803 33.25264709 -3.71846008 33.99856567 C-6.03449799 36.29787843 -8.36077236 38.58651005 -10.6875 40.875 C-12.26436013 42.43680542 -13.84053986 43.99929812 -15.41601562 45.5625 C-19.26949865 49.38299553 -23.13142867 53.19478664 -27 57 C-30.68458983 53.88227323 -34.34675126 50.78327968 -37.74609375 47.3515625 C-38.35517578 46.73925781 -38.96425781 46.12695312 -39.59179688 45.49609375 C-40.20087891 44.87863281 -40.80996094 44.26117188 -41.4375 43.625 C-42.39172852 42.66400391 -42.39172852 42.66400391 -43.36523438 41.68359375 C-44.91250332 40.12469121 -46.45736492 38.56348584 -48 37 C-46.66492854 34.03931582 -45.19759338 31.94209478 -42.91479492 29.64013672 C-41.97823311 28.68927689 -41.97823311 28.68927689 -41.02275085 27.71920776 C-40.01182121 26.70964523 -40.01182121 26.70964523 -38.98046875 25.6796875 C-37.93709099 24.62988205 -37.93709099 24.62988205 -36.87263489 23.55886841 C-35.40161138 22.08210792 -33.92796793 20.60795321 -32.4519043 19.13623047 C-30.19755658 16.88504249 -27.9568511 14.62086908 -25.71679688 12.35546875 C-24.2846656 10.92106439 -22.85174859 9.48744401 -21.41796875 8.0546875 C-20.75008835 7.37759735 -20.08220795 6.7005072 -19.39408875 6.00289917 C-13.40915076 0.07677643 -8.40734023 -2.48627326 0 0 Z " fill="#E5741A" transform="translate(72,94)"/>
<path d="M0 0 C3.35257301 2.23504867 6.07433994 4.20637281 7.8125 7.875 C8.83029108 13.82244006 8.60204632 18.14568864 5.1259613 23.18084717 C2.57799093 26.46731721 -0.40025211 29.32952613 -3.359375 32.2421875 C-4.0417926 32.92177521 -4.72421021 33.60136292 -5.42730713 34.30154419 C-7.59269349 36.45579945 -9.76495386 38.60296792 -11.9375 40.75 C-13.41322108 42.21568216 -14.88848646 43.68182329 -16.36328125 45.1484375 C-19.96610194 48.72929166 -23.57510116 52.30380964 -27.1875 55.875 C-30.61232707 54.25723883 -32.84440522 52.45156756 -35.515625 49.7421875 C-36.31484375 48.93652344 -37.1140625 48.13085938 -37.9375 47.30078125 C-39.175 46.03814453 -39.175 46.03814453 -40.4375 44.75 C-41.27796875 43.90050781 -42.1184375 43.05101562 -42.984375 42.17578125 C-45.05665683 40.07995077 -47.12412393 37.97959287 -49.1875 35.875 C-45.18869731 31.08922111 -41.02195143 26.55009807 -36.6171875 22.13671875 C-36.01367462 21.52987747 -35.41016174 20.92303619 -34.7883606 20.29780579 C-33.5241118 19.02853485 -32.25854251 17.7605779 -30.99169922 16.49389648 C-29.05536962 14.5553615 -27.12720418 12.60893904 -25.19921875 10.66210938 C-23.96403117 9.42399063 -22.72837066 8.18634347 -21.4921875 6.94921875 C-20.63268997 6.07894295 -20.63268997 6.07894295 -19.75582886 5.19108582 C-13.64647212 -0.88352183 -8.35865345 -2.95011298 0 0 Z " fill="#E5741A" transform="translate(325.1875,347.125)"/>
<path d="M0 0 C4.65176903 1.88404982 7.39540078 3.99863253 10 8.3125 C11.25236138 12.93058258 12.3204572 17.30763922 10.09765625 21.83984375 C9 23.5 9 23.5 7 26 C-0.33333333 18.66666667 -7.66666667 11.33333333 -15 4 C-10.10185172 0.73456781 -6.0236121 -1.30549768 0 0 Z " fill="#FD8821" transform="translate(386,367)"/>
<path d="M0 0 C3.6654257 1.24895987 6.27718538 3.23055217 8.9375 6.0625 C10.77369849 11.13904876 11.16761606 17.32029878 8.98046875 22.33984375 C8.65691406 22.88769531 8.33335937 23.43554688 8 24 C4.11863416 23.44387545 2.37243082 21.72326862 -0.328125 18.96484375 C-1.12734375 18.15595703 -1.9265625 17.34707031 -2.75 16.51367188 C-3.575 15.66353516 -4.4 14.81339844 -5.25 13.9375 C-6.09046875 13.08349609 -6.9309375 12.22949219 -7.796875 11.34960938 C-9.87147597 9.23964588 -11.93875832 7.12300292 -14 5 C-11.1460383 -1.31948663 -6.37482961 -0.68710738 0 0 Z " fill="#FE8821" transform="translate(134,115)"/>
</svg>
