<?xml version="1.0" encoding="UTF-8"?>
<svg version="1.1" xmlns="http://www.w3.org/2000/svg" width="512" height="512">
<path d="M0 0 C2.89183573 2.79878161 4.26173684 5.76260081 5.578125 9.52734375 C5.87589844 10.31109375 6.17367188 11.09484375 6.48046875 11.90234375 C16.84805435 44.77284558 0.78078984 84.81726456 -12.421875 114.52734375 C-12.82164551 115.42855957 -13.22141602 116.32977539 -13.63330078 117.25830078 C-19.02944131 129.28661721 -25.06318287 140.5903941 -32.421875 151.52734375 C-33.08920654 152.52241943 -33.08920654 152.52241943 -33.77001953 153.53759766 C-36.93574595 158.23726754 -40.16239983 162.89231025 -43.421875 167.52734375 C-43.82873535 168.10661621 -44.2355957 168.68588867 -44.65478516 169.28271484 C-47.54543636 173.38736857 -50.47586135 177.46229376 -53.421875 181.52734375 C-53.94652344 182.25324707 -54.47117187 182.97915039 -55.01171875 183.72705078 C-62.70381394 194.3480933 -70.63373566 204.70351138 -78.99804688 214.80371094 C-81.01027973 217.2396444 -82.9949525 219.6977685 -84.984375 222.15234375 C-99.73077355 240.13045763 -99.73077355 240.13045763 -106.74131775 246.84584045 C-108.43978352 248.54526235 -109.99147637 250.31342859 -111.54907227 252.14233398 C-115.69052281 256.90368772 -120.10799678 261.35738824 -124.57421875 265.8125 C-125.86266441 267.10238075 -125.86266441 267.10238075 -127.17713928 268.4183197 C-128.98364515 270.22550236 -130.79139962 272.03143767 -132.6003418 273.83618164 C-135.3512431 276.58172768 -138.09676721 279.33256921 -140.84179688 282.08398438 C-142.60645032 283.84797695 -144.37141397 285.61165925 -146.13671875 287.375 C-146.94842026 288.18872574 -147.76012177 289.00245148 -148.59642029 289.84083557 C-155.99217044 297.20660677 -163.58240001 303.78877443 -172.1015625 309.828125 C-174.51179178 312.63194391 -174.85455722 313.61976063 -175.48782349 317.11468506 C-175.65012577 318.00794746 -175.81242805 318.90120987 -175.97964859 319.82154083 C-176.63239956 323.8154576 -177.18900007 327.81315876 -177.68701172 331.82910156 C-177.79792145 332.69874542 -177.90883118 333.56838928 -178.02310181 334.46438599 C-178.26123904 336.33237936 -178.4979771 338.20055157 -178.73342514 340.0688858 C-179.23666109 344.0489578 -179.7522658 348.02739838 -180.26703072 352.00599289 C-181.2226329 359.39333373 -182.17295309 366.78127278 -183.10302734 374.171875 C-183.75306768 379.33343381 -184.41848658 384.4928084 -185.09405899 389.6510849 C-185.34771983 391.61031263 -185.59567505 393.57028807 -185.83773422 395.53098297 C-186.17658789 398.27048229 -186.53501082 401.00676637 -186.89794922 403.74316406 C-186.99263489 404.54744843 -187.08732056 405.35173279 -187.18487549 406.1803894 C-188.10410431 412.84593787 -190.99801428 417.25968827 -195.62890625 422.11328125 C-196.21196533 422.72985596 -196.79502441 423.34643066 -197.39575195 423.98168945 C-198.00249756 424.61550537 -198.60924316 425.24932129 -199.234375 425.90234375 C-200.49568014 427.23613955 -201.75610787 428.57076564 -203.015625 429.90625 C-203.61117188 430.5367627 -204.20671875 431.16727539 -204.8203125 431.81689453 C-207.21164882 434.37081256 -209.50935943 436.99853495 -211.79296875 439.6484375 C-216.03158967 444.53759017 -220.41346764 449.30326849 -224.75 454.10546875 C-228.18454603 457.91384292 -231.61109131 461.72701322 -234.984375 465.58984375 C-235.55800781 466.21890625 -236.13164062 466.84796875 -236.72265625 467.49609375 C-238.50915773 469.52942667 -238.50915773 469.52942667 -239.96484375 472.05859375 C-242.3152471 475.54386005 -244.29637477 477.98202445 -248.50585938 479.06201172 C-251.0046712 479.41685124 -253.39865333 479.51743075 -255.921875 479.52734375 C-256.72915039 479.57125244 -257.53642578 479.61516113 -258.36816406 479.66040039 C-261.30732576 479.49727991 -262.90284859 479.08509891 -265.421875 477.52734375 C-268.82009497 472.8627651 -271.08008218 467.78068332 -273.421875 462.52734375 C-274.06313091 461.15454271 -274.70731014 459.78310318 -275.35449219 458.41308594 C-277.30018467 454.26409391 -279.17696398 450.08590634 -281.046875 445.90234375 C-281.99687454 443.79015215 -282.94832057 441.67862034 -283.90057373 439.56744385 C-284.51909384 438.19257353 -285.13474538 436.81640875 -285.74737549 435.43890381 C-287.18717225 432.21009965 -288.66110364 429.01341398 -290.25292969 425.85644531 C-290.81141602 424.72948242 -291.36990234 423.60251953 -291.9453125 422.44140625 C-292.44724121 421.46381348 -292.94916992 420.4862207 -293.46630859 419.47900391 C-295.29854562 413.81938572 -293.47461954 409.02673096 -291.0078125 403.84375 C-290.50080811 402.76577148 -289.99380371 401.68779297 -289.47143555 400.57714844 C-288.91883057 399.42633789 -288.36622559 398.27552734 -287.796875 397.08984375 C-287.22279294 395.87706326 -286.64965134 394.6638372 -286.07739258 393.45019531 C-284.85341767 390.8573964 -283.6244443 388.26704878 -282.39208984 385.67822266 C-280.3184597 381.31692449 -278.26869982 376.94460746 -276.22265625 372.5703125 C-275.87819458 371.83394058 -275.53373291 371.09756866 -275.17883301 370.33888245 C-274.49355113 368.87379809 -273.80830896 367.40869516 -273.12310791 365.943573 C-271.50012333 362.47544384 -269.87328528 359.00912562 -268.24609375 355.54296875 C-267.70041748 354.38055664 -267.15474121 353.21814453 -266.5925293 352.02050781 C-266.20621338 351.19776367 -265.81989746 350.37501953 -265.421875 349.52734375 C-267.071875 349.19734375 -268.721875 348.86734375 -270.421875 348.52734375 C-270.67710937 349.10782471 -270.93234375 349.68830566 -271.1953125 350.28637695 C-272.547089 352.75611352 -274.05203626 354.40064019 -276.046875 356.3828125 C-276.75328125 357.08728516 -277.4596875 357.79175781 -278.1875 358.51757812 C-278.92484375 359.24267578 -279.6621875 359.96777344 -280.421875 360.71484375 C-281.15921875 361.45154297 -281.8965625 362.18824219 -282.65625 362.94726562 C-288.14085691 368.38683471 -288.14085691 368.38683471 -290.421875 369.52734375 C-291.03210255 371.90179354 -291.5526168 374.25376227 -292.046875 376.65234375 C-295.17419142 390.24890625 -302.00738229 401.29225342 -311.421875 411.52734375 C-311.86515137 412.01299805 -312.30842773 412.49865234 -312.76513672 412.99902344 C-329.26085294 430.8784736 -354.51188752 447.39425813 -379.53955078 448.63208008 C-381.91808613 448.69647906 -384.29250923 448.71292491 -386.671875 448.71484375 C-387.4865625 448.72708984 -388.30125 448.73933594 -389.140625 448.75195312 C-391.23570674 448.75715614 -393.33039496 448.65024945 -395.421875 448.52734375 C-396.081875 447.86734375 -396.741875 447.20734375 -397.421875 446.52734375 C-397.06138629 443.35504312 -395.74822355 441.29580848 -393.859375 438.77734375 C-393.40433594 438.16375 -392.94929688 437.55015625 -392.48046875 436.91796875 C-392.13113281 436.4590625 -391.78179687 436.00015625 -391.421875 435.52734375 C-392.1746875 435.78128906 -392.9275 436.03523438 -393.703125 436.296875 C-409.00728269 441.25586784 -424.52474192 443.68974874 -440.609375 443.77734375 C-442.04700195 443.80828125 -442.04700195 443.80828125 -443.51367188 443.83984375 C-448.90163481 443.86963207 -452.79919425 443.63146271 -457.421875 440.52734375 C-459.046875 438.21484375 -459.046875 438.21484375 -459.421875 435.52734375 C-457.86529909 432.60876392 -456.07417338 430.31463169 -453.97344971 427.7791748 C-450.11257773 422.95281271 -448.02552031 418.53510537 -446.34375 412.62109375 C-446.09085205 411.78690918 -445.8379541 410.95272461 -445.57739258 410.09326172 C-445.04036515 408.32115344 -444.50976819 406.54708521 -443.98522949 404.77124023 C-442.6109559 400.13505207 -441.1754474 395.51813706 -439.734375 390.90234375 C-439.45164734 389.9961731 -439.16891968 389.09000244 -438.87762451 388.15637207 C-432.10290837 366.66948348 -422.98158946 344.93673917 -408.421875 327.52734375 C-407.99648438 327.0183252 -407.57109375 326.50930664 -407.1328125 325.98486328 C-397.08515221 314.11202494 -384.21034208 302.72929272 -368.296875 300.46484375 C-366.96269531 300.35462891 -366.96269531 300.35462891 -365.6015625 300.2421875 C-364.52261719 299.88833984 -364.52261719 299.88833984 -363.421875 299.52734375 C-362.2993839 297.24925318 -362.2993839 297.24925318 -361.421875 294.52734375 C-356.98455874 288.28564162 -352.06057243 282.78921363 -345.953125 278.16015625 C-343.9839324 276.06035393 -343.89255 274.3189922 -343.421875 271.52734375 C-362.44844507 280.94662984 -362.44844507 280.94662984 -381.296875 290.71484375 C-383.52812008 291.89323852 -385.76015582 293.07011616 -387.99267578 294.24609375 C-389.75026993 295.17311426 -391.50625267 296.10319211 -393.26123047 297.03515625 C-396.24390731 298.61167934 -399.23769427 300.16513454 -402.234375 301.71484375 C-403.16040527 302.20944092 -404.08643555 302.70403809 -405.04052734 303.21362305 C-405.91531738 303.66133057 -406.79010742 304.10903809 -407.69140625 304.5703125 C-408.46073486 304.9727417 -409.23006348 305.3751709 -410.02270508 305.78979492 C-415.36830049 307.43312898 -419.90677013 305.03922805 -424.68359375 302.68359375 C-425.26797211 302.39864548 -425.85235046 302.1136972 -426.45443726 301.82011414 C-428.34339286 300.89704314 -430.22666 299.9630701 -432.109375 299.02734375 C-434.71489328 297.73963773 -437.32197723 296.4551355 -439.9296875 295.171875 C-440.57247147 294.85462967 -441.21525543 294.53738434 -441.8775177 294.21052551 C-445.68333938 292.34285236 -449.51480689 290.58125195 -453.4140625 288.9140625 C-454.28329346 288.53507812 -455.15252441 288.15609375 -456.0480957 287.765625 C-457.61707393 287.08891568 -459.19601151 286.43462791 -460.78588867 285.80859375 C-465.059719 283.93220558 -466.89552602 282.27544245 -468.8359375 277.96875 C-469.38700456 276.4964799 -469.91777806 275.01635027 -470.421875 273.52734375 C-470.855 272.45484375 -471.288125 271.38234375 -471.734375 270.27734375 C-472.54304999 267.04264377 -472.46623922 265.69353453 -471.421875 262.52734375 C-469.60805565 260.3340506 -467.82365384 258.39238075 -465.80395508 256.40771484 C-465.218479 255.81683578 -464.63300293 255.22595673 -464.02978516 254.61717224 C-462.09344382 252.66833358 -460.14296765 250.73436945 -458.19140625 248.80078125 C-456.83891651 247.44813652 -455.48709369 246.09482465 -454.13591003 244.74087524 C-451.30157874 241.90515938 -448.46039835 239.07654538 -445.61401367 236.25292969 C-441.97162005 232.63887956 -438.34495115 229.009526 -434.72308826 225.37491417 C-431.9328347 222.5776931 -429.13523943 219.78791048 -426.33530235 217.00038528 C-424.99565289 215.66524274 -423.65807615 214.32801705 -422.32264137 212.98865891 C-420.45126977 211.11436575 -418.57044162 209.25010182 -416.68676758 207.38818359 C-416.13951523 206.8364296 -415.59226288 206.2846756 -415.02842712 205.71620178 C-409.04734214 199.84902623 -403.07969494 198.00551833 -394.97583008 196.64208984 C-393.57723 196.39512611 -393.57723 196.39512611 -392.15037537 196.14317322 C-389.08218622 195.60357359 -386.01187934 195.07721438 -382.94140625 194.55078125 C-380.8046695 194.17720777 -378.66808999 193.80273385 -376.53166199 193.42739868 C-370.91677312 192.4431328 -365.30005054 191.46977134 -359.68280029 190.49908447 C-350.68072326 188.94129925 -341.68173342 187.36574462 -332.68234825 185.79249954 C-329.53691104 185.24403623 -326.39082293 184.6994474 -323.24458313 184.15560913 C-321.32296046 183.82171628 -319.4013445 183.48778488 -317.47973633 183.15380859 C-316.60227753 183.00315445 -315.72481873 182.85250031 -314.82077026 182.69728088 C-313.61595253 182.48716118 -313.61595253 182.48716118 -312.38679504 182.27279663 C-311.34072696 182.09197824 -311.34072696 182.09197824 -310.27352619 181.90750694 C-305.60889066 180.94980889 -304.18259883 179.27715753 -301.296875 175.58984375 C-297.59155454 170.94919968 -293.76901147 166.48373406 -289.76098633 162.10302734 C-288.37727119 160.57936648 -287.00259358 159.04727432 -285.64868164 157.49707031 C-278.39972277 149.23568702 -270.57998652 141.53470732 -262.80151367 133.77661133 C-260.35805578 131.33852743 -257.92000693 128.89512586 -255.48242188 126.45117188 C-253.90917479 124.87858542 -252.33561763 123.30630911 -250.76171875 121.734375 C-250.04378647 121.01441849 -249.32585419 120.29446198 -248.58616638 119.5526886 C-244.58044691 115.56523969 -240.48259127 111.74555752 -236.19491577 108.06227112 C-233.42905439 105.6678556 -230.77717106 103.15469183 -228.109375 100.65234375 C-223.31326106 96.19032551 -218.39346205 91.95948727 -213.28125 87.859375 C-210.63429998 85.70059199 -208.05555499 83.4844475 -205.4831543 81.23852539 C-197.43846224 74.22932211 -189.03379553 67.81991303 -180.421875 61.52734375 C-179.68356445 60.98400391 -178.94525391 60.44066406 -178.18457031 59.88085938 C-169.03212912 53.14847845 -159.80701154 46.63096545 -150.16259766 40.62207031 C-148.3653627 39.49180362 -146.58640986 38.33631987 -144.80859375 37.17578125 C-114.57552937 17.60030307 -36.23110637 -26.25994054 0 0 Z " fill="#6896A5" transform="translate(487.421875,22.47265625)"/>
<path d="M0 0 C8.85204482 -0.26968595 18.85966656 0.25429811 26.2265625 5.59375 C29.11839823 8.39253161 30.48829934 11.35635081 31.8046875 15.12109375 C32.10246094 15.90484375 32.40023438 16.68859375 32.70703125 17.49609375 C43.07461685 50.36659558 27.00735234 90.41101456 13.8046875 120.12109375 C13.40491699 121.02230957 13.00514648 121.92352539 12.59326172 122.85205078 C7.19712119 134.88036721 1.16337963 146.1841441 -6.1953125 157.12109375 C-6.86264404 158.11616943 -6.86264404 158.11616943 -7.54345703 159.13134766 C-10.70918345 163.83101754 -13.93583733 168.48606025 -17.1953125 173.12109375 C-17.60217285 173.70036621 -18.0090332 174.27963867 -18.42822266 174.87646484 C-21.31887386 178.98111857 -24.24929885 183.05604376 -27.1953125 187.12109375 C-27.71996094 187.84699707 -28.24460937 188.57290039 -28.78515625 189.32080078 C-36.47725144 199.9418433 -44.40717316 210.29726138 -52.77148438 220.39746094 C-54.78371723 222.8333944 -56.76839 225.2915185 -58.7578125 227.74609375 C-73.50421105 245.72420763 -73.50421105 245.72420763 -80.51475525 252.43959045 C-82.21322102 254.13901235 -83.76491387 255.90717859 -85.32250977 257.73608398 C-89.46396031 262.49743772 -93.88143428 266.95113824 -98.34765625 271.40625 C-99.63610191 272.69613075 -99.63610191 272.69613075 -100.95057678 274.0120697 C-102.75708265 275.81925236 -104.56483712 277.62518767 -106.3737793 279.42993164 C-109.1246806 282.17547768 -111.87020471 284.92631921 -114.61523438 287.67773438 C-116.37988782 289.44172695 -118.14485147 291.20540925 -119.91015625 292.96875 C-120.72185776 293.78247574 -121.53355927 294.59620148 -122.36985779 295.43458557 C-129.76560794 302.80035677 -137.35583751 309.38252443 -145.875 315.421875 C-148.28522928 318.22569391 -148.62799472 319.21351063 -149.26126099 322.70843506 C-149.42356327 323.60169746 -149.58586555 324.49495987 -149.75308609 325.41529083 C-150.40583706 329.4092076 -150.96243757 333.40690876 -151.46044922 337.42285156 C-151.62681381 338.72731735 -151.62681381 338.72731735 -151.79653931 340.05813599 C-152.03467654 341.92612936 -152.2714146 343.79430157 -152.50686264 345.6626358 C-153.01009859 349.6427078 -153.5257033 353.62114838 -154.04046822 357.59974289 C-154.9960704 364.98708373 -155.94639059 372.37502278 -156.87646484 379.765625 C-157.52650518 384.92718381 -158.19192408 390.0865584 -158.86749649 395.2448349 C-159.12115733 397.20406263 -159.36911255 399.16403807 -159.61117172 401.12473297 C-159.95002539 403.86423229 -160.30844832 406.60051637 -160.67138672 409.33691406 C-160.76607239 410.14119843 -160.86075806 410.94548279 -160.95831299 411.7741394 C-161.87754181 418.43968787 -164.77145178 422.85343827 -169.40234375 427.70703125 C-169.98540283 428.32360596 -170.56846191 428.94018066 -171.16918945 429.57543945 C-171.77593506 430.20925537 -172.38268066 430.84307129 -173.0078125 431.49609375 C-174.26911764 432.82988955 -175.52954537 434.16451564 -176.7890625 435.5 C-177.38460937 436.1305127 -177.98015625 436.76102539 -178.59375 437.41064453 C-180.98508632 439.96456256 -183.28279693 442.59228495 -185.56640625 445.2421875 C-189.80502717 450.13134017 -194.18690514 454.89701849 -198.5234375 459.69921875 C-201.95798353 463.50759292 -205.38452881 467.32076322 -208.7578125 471.18359375 C-209.33144531 471.81265625 -209.90507812 472.44171875 -210.49609375 473.08984375 C-212.28259523 475.12317667 -212.28259523 475.12317667 -213.73828125 477.65234375 C-216.0886846 481.13761005 -218.06981227 483.57577445 -222.27929688 484.65576172 C-224.7781087 485.01060124 -227.17209083 485.11118075 -229.6953125 485.12109375 C-230.50258789 485.16500244 -231.30986328 485.20891113 -232.14160156 485.25415039 C-235.08076326 485.09102991 -236.67628609 484.67884891 -239.1953125 483.12109375 C-242.59353247 478.4565151 -244.85351968 473.37443332 -247.1953125 468.12109375 C-247.83656841 466.74829271 -248.48074764 465.37685318 -249.12792969 464.00683594 C-251.07362217 459.85784391 -252.95040148 455.67965634 -254.8203125 451.49609375 C-255.77031204 449.38390215 -256.72175807 447.27237034 -257.67401123 445.16119385 C-258.29253134 443.78632353 -258.90818288 442.41015875 -259.52081299 441.03265381 C-260.96060975 437.80384965 -262.43454114 434.60716398 -264.02636719 431.45019531 C-264.86409668 429.75975098 -264.86409668 429.75975098 -265.71875 428.03515625 C-266.22067871 427.05756348 -266.72260742 426.0799707 -267.23974609 425.07275391 C-269.07198312 419.41313572 -267.24805704 414.62048096 -264.78125 409.4375 C-264.27424561 408.35952148 -263.76724121 407.28154297 -263.24487305 406.17089844 C-262.69226807 405.02008789 -262.13966309 403.86927734 -261.5703125 402.68359375 C-260.99623044 401.47081326 -260.42308884 400.2575872 -259.85083008 399.04394531 C-258.62685517 396.4511464 -257.3978818 393.86079878 -256.16552734 391.27197266 C-254.0918972 386.91067449 -252.04213732 382.53835746 -249.99609375 378.1640625 C-249.65163208 377.42769058 -249.30717041 376.69131866 -248.95227051 375.93263245 C-248.26698863 374.46754809 -247.58174646 373.00244516 -246.89654541 371.537323 C-245.27356083 368.06919384 -243.64672278 364.60287562 -242.01953125 361.13671875 C-241.47385498 359.97430664 -240.92817871 358.81189453 -240.3659668 357.61425781 C-239.97965088 356.79151367 -239.59333496 355.96876953 -239.1953125 355.12109375 C-240.8453125 354.79109375 -242.4953125 354.46109375 -244.1953125 354.12109375 C-244.45127197 354.70157471 -244.70723145 355.28205566 -244.97094727 355.88012695 C-246.31463696 358.33949439 -247.80927183 359.99372162 -249.78515625 361.9765625 C-250.48705078 362.68103516 -251.18894531 363.38550781 -251.91210938 364.11132812 C-252.64494141 364.83642578 -253.37777344 365.56152344 -254.1328125 366.30859375 C-254.86177734 367.04529297 -255.59074219 367.78199219 -256.34179688 368.54101562 C-257.04498047 369.24162109 -257.74816406 369.94222656 -258.47265625 370.6640625 C-259.11452881 371.3036792 -259.75640137 371.9432959 -260.41772461 372.60229492 C-262.1953125 374.12109375 -262.1953125 374.12109375 -265.1953125 375.12109375 C-274.05829155 373.528613 -281.81162638 370.70577494 -289.609375 366.1953125 C-292.76503136 364.88442806 -293.96326044 365.12364082 -297.1953125 366.12109375 C-299.31840958 367.7284939 -299.31840958 367.7284939 -301.234375 369.83984375 C-301.97405518 370.60288818 -302.71373535 371.36593262 -303.47583008 372.15209961 C-304.24950928 372.96686768 -305.02318848 373.78163574 -305.8203125 374.62109375 C-311.51449983 380.46934767 -317.12739085 386.03127243 -323.56640625 391.0546875 C-326.08535519 393.03466371 -328.50230194 395.09460581 -330.92041016 397.19458008 C-335.84253276 401.45027146 -340.86768932 405.54578335 -346.1328125 409.37109375 C-347.15246094 410.11875 -348.17210937 410.86640625 -349.22265625 411.63671875 C-352.87721067 413.46159481 -354.34158441 413.36505078 -358.1953125 412.12109375 C-366.60113724 407.38691436 -373.11369597 401.46089267 -376.6328125 392.43359375 C-377.24625517 380.80090304 -358.79057469 364.97832415 -351.4453125 356.80859375 C-350.79046875 356.09058594 -350.135625 355.37257813 -349.4609375 354.6328125 C-348.20777208 353.24352739 -346.96084831 351.84822771 -345.74150085 350.4291687 C-341.26855272 345.23007042 -336.55412573 340.33395801 -331.69921875 335.4921875 C-330.90684311 334.69885513 -330.11446747 333.90552277 -329.29808044 333.08815002 C-327.63280967 331.42220294 -325.96629221 329.75750119 -324.29858398 328.09399414 C-321.76496628 325.56573241 -319.23673083 323.03217714 -316.70898438 320.49804688 C-315.08104967 318.87077305 -313.45280475 317.2438095 -311.82421875 315.6171875 C-311.07813858 314.8690831 -310.33205841 314.1209787 -309.56336975 313.35020447 C-304.93282225 308.73999817 -300.15234424 304.37640537 -295.1953125 300.12109375 C-294.12320901 299.17259345 -293.0525794 298.22242058 -291.984375 297.26953125 C-255.660799 265.26258744 -255.660799 265.26258744 -238.25390625 265.8203125 C-236.1953125 266.12109375 -236.1953125 266.12109375 -233.6328125 267.55859375 C-230.76823823 272.66500874 -231.72247148 277.22763746 -233.078125 282.65625 C-238.82042781 302.17857107 -253.63185827 318.61591882 -267.2578125 333.3515625 C-269.11069329 335.30762762 -269.11069329 335.30762762 -271.1953125 338.12109375 C-271.20745591 340.18385631 -271.20745591 340.18385631 -270.1953125 342.12109375 C-268.4206295 343.76603265 -268.4206295 343.76603265 -266.1328125 344.99609375 C-265.39933594 345.44726562 -264.66585937 345.8984375 -263.91015625 346.36328125 C-257.62245763 348.11840863 -251.15003625 344.41403569 -245.6328125 341.55859375 C-244.94445312 341.20708252 -244.25609375 340.85557129 -243.546875 340.4934082 C-224.6774067 330.72017925 -207.5256357 318.25536419 -190.40917969 305.73974609 C-188.95321023 304.67522497 -187.49557156 303.61298245 -186.03613281 302.55322266 C-176.87596861 295.89147737 -168.42962369 288.89794321 -160.1953125 281.12109375 C-158.82786818 279.9042164 -157.4536849 278.69483278 -156.0703125 277.49609375 C-147.92009924 270.41801164 -140.04344165 263.13384142 -132.42602539 255.48217773 C-131.00193758 254.05269658 -129.57253206 252.62868864 -128.14257812 251.20507812 C-123.4913461 246.54736355 -118.9617048 241.84653314 -114.67749023 236.84838867 C-112.61713727 234.44730199 -110.46704793 232.13241678 -108.3203125 229.80859375 C-104.22651041 225.31961318 -100.34061583 220.70865899 -96.52734375 215.98046875 C-94.49082644 213.48343245 -92.41273273 211.02955427 -90.3112793 208.5871582 C-83.88999198 201.10770701 -77.89304012 193.33941905 -71.96484375 185.46582031 C-70.10235273 182.99791692 -68.22749548 180.53972901 -66.3515625 178.08203125 C-59.19715497 168.6721876 -52.36075203 159.21303271 -46.1953125 149.12109375 C-47.02933594 148.88261719 -47.86335938 148.64414063 -48.72265625 148.3984375 C-60.94903797 143.90121948 -71.75311977 134.90472029 -81.1953125 126.12109375 C-82.10627686 125.27587158 -82.10627686 125.27587158 -83.03564453 124.41357422 C-105.24075209 103.56830994 -121.51356237 77.9412072 -124.1953125 47.12109375 C-90.95868823 20.24892945 -42.58367831 2.34892176 0 0 Z " fill="#437687" transform="translate(461.1953125,16.87890625)"/>
<path d="M0 0 C0.99 0.495 0.99 0.495 2 1 C2.32616397 3.17744651 2.55788249 5.36915846 2.75 7.5625 C5.50689691 31.91557662 20.5877589 53.66389102 37 71 C37.81984375 71.88429688 38.6396875 72.76859375 39.484375 73.6796875 C50.99669066 85.70290475 64.37982089 94.21922137 79 102 C77.40689405 106.7610063 74.7736733 110.46342363 71.875 114.5 C71.09080688 115.60009399 71.09080688 115.60009399 70.29077148 116.72241211 C59.82721176 131.29464367 48.81661449 145.45169457 37.40478516 159.29101562 C36.09873599 160.87988323 34.80471919 162.47862053 33.51171875 164.078125 C29.18774668 169.42521309 24.72852345 174.6038722 20.09765625 179.6875 C18.30492554 181.66384372 16.55204773 183.6645673 14.8125 185.6875 C5.64397598 196.16581317 -4.04645181 206.14302568 -13.875 216 C-14.75430176 216.88389404 -15.63360352 217.76778809 -16.53955078 218.6784668 C-20.97459862 223.103013 -25.46515563 227.39489979 -30.22216797 231.47216797 C-31.83692512 232.85985683 -33.41009893 234.28103622 -34.9765625 235.72265625 C-35.85054688 236.49480469 -36.72453125 237.26695312 -37.625 238.0625 C-38.50414062 238.85785156 -39.38328125 239.65320313 -40.2890625 240.47265625 C-43 242 -43 242 -45.85546875 241.53125 C-49.6170326 239.69953195 -53.15709277 237.67914298 -56.6875 235.4375 C-57.39084473 234.99349854 -58.09418945 234.54949707 -58.81884766 234.09204102 C-64.93474493 230.16398413 -70.54087393 225.80129711 -76 221 C-77.18916016 219.97519531 -77.18916016 219.97519531 -78.40234375 218.9296875 C-80.98047241 216.66494563 -83.49571504 214.34619524 -86 212 C-86.52996582 211.50935059 -87.05993164 211.01870117 -87.60595703 210.51318359 C-111.93583943 187.82242545 -131.19932865 154.41969634 -135 121 C-136.98 122.65 -138.96 124.3 -141 126 C-141.66 125.67 -142.32 125.34 -143 125 C-142.50371094 124.5153125 -142.00742188 124.030625 -141.49609375 123.53125 C-140.81675781 122.8609375 -140.13742188 122.190625 -139.4375 121.5 C-138.44556641 120.52546875 -138.44556641 120.52546875 -137.43359375 119.53125 C-135.50373635 117.52395049 -133.68954132 115.49245677 -131.87890625 113.38110352 C-127.93252086 108.85944842 -123.75212789 104.60782049 -119.50390625 100.37109375 C-118.71153061 99.57776138 -117.91915497 98.78442902 -117.10276794 97.96705627 C-115.43749717 96.30110919 -113.77097971 94.63640744 -112.10327148 92.97290039 C-109.56965378 90.44463866 -107.04141833 87.91108339 -104.51367188 85.37695312 C-102.88573717 83.7496793 -101.25749225 82.12271575 -99.62890625 80.49609375 C-98.88282608 79.74798935 -98.13674591 78.99988495 -97.36805725 78.22911072 C-93.2909663 74.16992973 -89.12863533 70.27256673 -84.76287842 66.52476501 C-81.99957435 64.13470265 -79.35180045 61.62406926 -76.6875 59.125 C-71.89138606 54.66298176 -66.97158705 50.43214352 -61.859375 46.33203125 C-59.21242498 44.17324824 -56.63367999 41.95710375 -54.0612793 39.71118164 C-46.01681558 32.70217731 -37.61337065 26.29024614 -29 20 C-28.2457373 19.44602539 -27.49147461 18.89205078 -26.71435547 18.32128906 C-5.39978804 2.67846629 -5.39978804 2.67846629 0 0 Z " fill="#8DAFBE" transform="translate(336,64)"/>
<path d="M0 0 C8.85204482 -0.26968595 18.85966656 0.25429811 26.2265625 5.59375 C29.11839823 8.39253161 30.48829934 11.35635081 31.8046875 15.12109375 C32.10246094 15.90484375 32.40023437 16.68859375 32.70703125 17.49609375 C43.07461685 50.36659558 27.00735234 90.41101456 13.8046875 120.12109375 C13.40491699 121.02230957 13.00514648 121.92352539 12.59326172 122.85205078 C6.55916629 136.3024064 -0.1244629 149.42523944 -9.1953125 161.12109375 C-38.3647593 158.31633925 -63.3240763 142.90893754 -84.1953125 123.12109375 C-85.15308594 122.22777344 -86.11085938 121.33445312 -87.09765625 120.4140625 C-107.60406625 100.91007008 -121.72992055 75.45470269 -124.1953125 47.12109375 C-90.95868823 20.24892945 -42.58367831 2.34892176 0 0 Z " fill="#D73F22" transform="translate(461.1953125,16.87890625)"/>
<path d="M0 0 C0.19634033 0.54414551 0.39268066 1.08829102 0.5949707 1.64892578 C1.49705926 4.14232717 2.40473204 6.63366098 3.3125 9.125 C3.7755957 10.40890625 3.7755957 10.40890625 4.24804688 11.71875 C5.60812825 15.44107798 6.9373841 18.88636862 8.85546875 22.3671875 C10 25 10 25 9.28710938 26.93896484 C7.90311388 29.15514276 6.42288919 30.7885006 4.55078125 32.609375 C3.86693359 33.28226562 3.18308594 33.95515625 2.47851562 34.6484375 C1.76373047 35.34195313 1.04894531 36.03546875 0.3125 36.75 C-5.04709447 41.97548043 -10.14132641 47.30485693 -15 53 C-15.90053254 54.03299615 -16.80153663 55.06558149 -17.703125 56.09765625 C-22.68135564 61.89286646 -27.51079967 67.78483348 -32.125 73.875 C-32.5984082 74.48093994 -33.07181641 75.08687988 -33.55957031 75.71118164 C-36.54381949 79.72780484 -37.85901154 82.85085625 -38 88 C-36.74327686 90.69962748 -35.71766684 92.65819596 -34 95 C-33.40316406 95.8146875 -32.80632812 96.629375 -32.19140625 97.46875 C-29.8633484 100.15784356 -27.5987108 101.93417474 -24.625 103.875 C-23.70976563 104.49117188 -22.79453125 105.10734375 -21.8515625 105.7421875 C-18.19575903 107.35474739 -16.78820968 107.27370325 -13 106 C-10.15995652 104.27232571 -7.59295894 102.26293239 -5 100.1875 C-4.25596924 99.60436035 -3.51193848 99.0212207 -2.74536133 98.42041016 C9.62159492 88.65403758 22.23850514 78.39028557 32.98046875 66.83203125 C33.46684814 66.31648682 33.95322754 65.80094238 34.4543457 65.26977539 C35.7953708 63.83518504 37.11332706 62.37913029 38.4296875 60.921875 C41 59 41 59 43.9375 59.0234375 C47.18403912 60.05868595 50.08186737 61.34199334 53.125 62.875 C59.28510913 65.823913 65.32525723 67.62897176 72 69 C73.25482501 82.80307509 64.35956982 96.58255923 56.25 107.125 C38.7037192 127.94840718 13.82328861 145.79783123 -14 149 C-17.08491919 149.1525744 -20.16168125 149.18500942 -23.25 149.1875 C-24.0646875 149.19974609 -24.879375 149.21199219 -25.71875 149.22460938 C-27.81383174 149.22981239 -29.90851996 149.1229057 -32 149 C-32.99 148.01 -32.99 148.01 -34 147 C-33.63951129 143.82769937 -32.32634855 141.76846473 -30.4375 139.25 C-29.98246094 138.63640625 -29.52742188 138.0228125 -29.05859375 137.390625 C-28.70925781 136.93171875 -28.35992187 136.4728125 -28 136 C-28.7528125 136.25394531 -29.505625 136.50789062 -30.28125 136.76953125 C-45.58540769 141.72852409 -61.10286692 144.16240499 -77.1875 144.25 C-78.62512695 144.2809375 -78.62512695 144.2809375 -80.09179688 144.3125 C-85.47975981 144.34228832 -89.37731925 144.10411896 -94 141 C-95.625 138.6875 -95.625 138.6875 -96 136 C-94.44342409 133.08142017 -92.65229838 130.78728794 -90.55157471 128.25183105 C-86.69070273 123.42546896 -84.60364531 119.00776162 -82.921875 113.09375 C-82.54252808 111.84247314 -82.54252808 111.84247314 -82.15551758 110.56591797 C-81.61849015 108.79380969 -81.08789319 107.01974146 -80.56335449 105.24389648 C-79.1890809 100.60770832 -77.7535724 95.99079331 -76.3125 91.375 C-76.02977234 90.46882935 -75.74704468 89.56265869 -75.45574951 88.62902832 C-68.68103337 67.14213973 -59.55971446 45.40939542 -45 28 C-44.57460937 27.49098145 -44.14921875 26.98196289 -43.7109375 26.45751953 C-33.09980217 13.91884976 -17.44758663 0 0 0 Z " fill="#F7D74D" transform="translate(124,322)"/>
<path d="M0 0 C1.7293237 3.45864741 0.47708153 7.39299376 -0.01635742 11.12792969 C-0.19669525 12.547686 -0.19669525 12.547686 -0.38067627 13.99612427 C-0.78207593 17.13896775 -1.19310064 20.28045296 -1.60546875 23.421875 C-1.88887098 25.60181499 -2.1721797 27.78176714 -2.45539856 29.96173096 C-3.05194223 34.53891445 -3.65399816 39.11533793 -4.2590332 43.69140625 C-5.03278988 49.55170497 -5.78625712 55.41441752 -6.53469372 61.27799606 C-7.11342639 65.78502776 -7.70634701 70.29011063 -8.30318642 74.79477692 C-8.58701356 76.95502003 -8.86564692 79.11595218 -9.13896751 81.27754974 C-9.523306 84.30537984 -9.92752122 87.32992875 -10.33666992 90.35449219 C-10.44541946 91.24615082 -10.55416901 92.13780945 -10.66621399 93.05648804 C-11.66432245 100.1775266 -14.23104689 104.37065654 -19.20703125 109.5859375 C-19.79009033 110.20251221 -20.37314941 110.81908691 -20.97387695 111.4543457 C-21.58062256 112.08816162 -22.18736816 112.72197754 -22.8125 113.375 C-24.07380514 114.7087958 -25.33423287 116.04342189 -26.59375 117.37890625 C-27.18929687 118.00941895 -27.78484375 118.63993164 -28.3984375 119.28955078 C-30.78977382 121.84346881 -33.08748443 124.4711912 -35.37109375 127.12109375 C-39.60971467 132.01024642 -43.99159264 136.77592474 -48.328125 141.578125 C-51.76267103 145.38649917 -55.18921631 149.19966947 -58.5625 153.0625 C-59.13613281 153.6915625 -59.70976562 154.320625 -60.30078125 154.96875 C-62.08728273 157.00208292 -62.08728273 157.00208292 -63.54296875 159.53125 C-65.8933721 163.0165163 -67.87449977 165.4546807 -72.08398438 166.53466797 C-74.5827962 166.88950749 -76.97677833 166.990087 -79.5 167 C-80.71091309 167.06586304 -80.71091309 167.06586304 -81.94628906 167.13305664 C-84.88545076 166.96993616 -86.48097359 166.55775516 -89 165 C-92.39821997 160.33542135 -94.65820718 155.25333957 -97 150 C-97.64125591 148.62719896 -98.28543514 147.25575943 -98.93261719 145.88574219 C-100.87830967 141.73675016 -102.75508898 137.55856259 -104.625 133.375 C-105.57499954 131.2628084 -106.52644557 129.15127659 -107.47869873 127.0401001 C-108.09721884 125.66522978 -108.71287038 124.289065 -109.32550049 122.91156006 C-110.76529725 119.6827559 -112.23922864 116.48607023 -113.83105469 113.32910156 C-114.38954102 112.20213867 -114.94802734 111.07517578 -115.5234375 109.9140625 C-116.02536621 108.93646973 -116.52729492 107.95887695 -117.04443359 106.95166016 C-118.87667062 101.29204197 -117.05274454 96.49938721 -114.5859375 91.31640625 C-114.07901367 90.2385083 -113.57208984 89.16061035 -113.04980469 88.05004883 C-112.22077637 86.32371216 -112.22077637 86.32371216 -111.375 84.5625 C-110.80020874 83.34897638 -110.22633434 82.13501812 -109.65332031 80.9206543 C-108.42835935 78.32724521 -107.19851693 75.73622478 -105.96582031 73.14648438 C-103.90075013 68.80047036 -101.86664115 64.44027984 -99.8359375 60.078125 C-98.80948082 57.875741 -97.78283431 55.67344556 -96.75616455 53.47116089 C-96.0855688 52.03244113 -95.41528052 50.59357803 -94.74530029 49.15457153 C-93.80636084 47.13977004 -92.86452604 45.12634834 -91.921875 43.11328125 C-91.38143555 41.95610596 -90.84099609 40.79893066 -90.28417969 39.60668945 C-89 37 -89 37 -88 36 C-85.70945587 35.89005388 -83.41730061 35.81354893 -81.125 35.75 C-65.45939827 34.98521699 -50.97498921 29.84974212 -37 23 C-36.33323242 22.6807959 -35.66646484 22.3615918 -34.97949219 22.03271484 C-22.42932832 15.97288107 -11.2397789 8.19811776 0 0 Z " fill="#A02422" transform="translate(311,335)"/>
<path d="M0 0 C-0.58265625 0.71800781 -1.1653125 1.43601563 -1.765625 2.17578125 C-16.70013299 20.897982 -35.19715165 46.528759 -35.078125 71.609375 C-35.06986911 85.66915939 -35.06986911 85.66915939 -38.37353516 89.65869141 C-42.61486984 92.90010436 -47.64745026 94.62850529 -52.58007812 96.55566406 C-59.03941734 99.28363742 -65.18464538 102.6616767 -71.38821411 105.92077637 C-76.48188511 108.58852596 -81.60312602 111.20245545 -86.72802734 113.80957031 C-89.64790663 115.29687413 -92.54439322 116.82139188 -95.43212891 118.37011719 C-96.85703564 119.11925612 -98.28200086 119.86828381 -99.70703125 120.6171875 C-100.35306808 120.97289825 -100.99910492 121.32860901 -101.66471863 121.69509888 C-105.90031661 123.89399914 -108.42969077 124.38432021 -113 123 C-115.1189069 122.12515795 -117.20571841 121.17014235 -119.26171875 120.15625 C-119.84609711 119.87130173 -120.43047546 119.58635345 -121.03256226 119.29277039 C-122.92151786 118.36969939 -124.804785 117.43572635 -126.6875 116.5 C-129.29301828 115.21229398 -131.90010223 113.92779175 -134.5078125 112.64453125 C-135.47198845 112.16866325 -135.47198845 112.16866325 -136.4556427 111.68318176 C-140.26146438 109.81550861 -144.09293189 108.0539082 -147.9921875 106.38671875 C-148.86141846 106.00773437 -149.73064941 105.62875 -150.6262207 105.23828125 C-152.19519893 104.56157193 -153.77413651 103.90728416 -155.36401367 103.28125 C-159.637844 101.40486183 -161.47365102 99.7480987 -163.4140625 95.44140625 C-163.96512956 93.96913615 -164.49590306 92.48900652 -165 91 C-165.433125 89.9275 -165.86625 88.855 -166.3125 87.75 C-167.12117499 84.51530002 -167.04436422 83.16619078 -166 80 C-164.18618065 77.80670685 -162.40177884 75.865037 -160.38208008 73.88037109 C-159.796604 73.28949203 -159.21112793 72.69861298 -158.60791016 72.08982849 C-156.67156882 70.14098983 -154.72109265 68.2070257 -152.76953125 66.2734375 C-151.41704151 64.92079277 -150.06521869 63.5674809 -148.71403503 62.21353149 C-145.87970374 59.37781563 -143.03852335 56.54920163 -140.19213867 53.72558594 C-136.54974505 50.11153581 -132.92307615 46.48218225 -129.30121326 42.84757042 C-126.5109597 40.05034935 -123.71336443 37.26056673 -120.91342735 34.47304153 C-119.57377789 33.13789899 -118.23620115 31.8006733 -116.90076637 30.46131516 C-115.02939477 28.587022 -113.14856662 26.72275807 -111.26489258 24.86083984 C-110.71764023 24.30908585 -110.17038788 23.75733185 -109.60655212 23.18885803 C-103.63051763 17.32663679 -97.64640496 15.47369597 -89.55395508 14.08300781 C-88.62155502 13.91515274 -87.68915497 13.74729767 -86.72850037 13.57435608 C-83.66042207 13.0246181 -80.59014453 12.48850731 -77.51953125 11.953125 C-75.38284225 11.57447946 -73.24626223 11.19521845 -71.10978699 10.81536865 C-66.639735 10.02277517 -62.16858922 9.23677113 -57.6965332 8.45556641 C-51.95761477 7.45263971 -46.2214848 6.43469051 -40.48605824 5.41200638 C-36.07850774 4.62755415 -31.66970574 3.85033839 -27.26047325 3.07540131 C-25.14414491 2.70268082 -23.02818652 2.32785355 -20.91260719 1.95090485 C-17.96224335 1.42647488 -15.01036653 0.91163062 -12.05786133 0.39941406 C-11.18040253 0.24156937 -10.30294373 0.08372467 -9.39889526 -0.0789032 C-3.34297345 -1.11432448 -3.34297345 -1.11432448 0 0 Z " fill="#A02422" transform="translate(182,205)"/>
<path d="M0 0 C2.5625 1.4375 2.5625 1.4375 4 4 C6.07738833 18.08007646 -2.3370832 31.29456107 -10.28515625 42.109375 C-15.3781573 48.90823447 -20.80723008 55.40985533 -26.33203125 61.859375 C-28.86208756 64.81916681 -31.30893935 67.84128796 -33.75 70.875 C-36.74001123 74.55133053 -39.82727471 77.96006621 -43.2421875 81.24145508 C-44.88892674 82.88888046 -46.38280337 84.58657279 -47.8828125 86.3671875 C-52.81782742 92.04225939 -58.14369439 97.32972471 -63.45947266 102.64477539 C-65.23761772 104.42510252 -67.00759561 106.21328377 -68.77734375 108.00195312 C-75.54588304 114.80354134 -82.47120677 121.03996461 -90 127 C-91.16050375 127.98153193 -92.31525679 128.96995593 -93.4609375 129.96875 C-98.79812644 134.60480688 -104.21623106 139.09328251 -109.9375 143.25 C-110.95714844 143.99765625 -111.97679688 144.7453125 -113.02734375 145.515625 C-116.68189817 147.34050106 -118.14627191 147.24395703 -122 146 C-130.40582474 141.26582061 -136.91838347 135.33979892 -140.4375 126.3125 C-141.05094267 114.67980929 -122.59526219 98.8572304 -115.25 90.6875 C-114.59515625 89.96949219 -113.9403125 89.25148438 -113.265625 88.51171875 C-112.01245958 87.12243364 -110.76553581 85.72713396 -109.54618835 84.30807495 C-105.07324022 79.10897667 -100.35881323 74.21286426 -95.50390625 69.37109375 C-94.71153061 68.57776138 -93.91915497 67.78442902 -93.10276794 66.96705627 C-91.43749717 65.30110919 -89.77097971 63.63640744 -88.10327148 61.97290039 C-85.56965378 59.44463866 -83.04141833 56.91108339 -80.51367188 54.37695312 C-78.88573717 52.7496793 -77.25749225 51.12271575 -75.62890625 49.49609375 C-74.88282608 48.74798935 -74.13674591 47.99988495 -73.36805725 47.22911072 C-68.73750975 42.61890442 -63.95703174 38.25531162 -59 34 C-57.92789651 33.0514997 -56.8572669 32.10132683 -55.7890625 31.1484375 C-17.5326026 -2.56168956 -17.5326026 -2.56168956 0 0 Z " fill="#A02624" transform="translate(225,283)"/>
<path d="M0 0 C0.33 0 0.66 0 1 0 C1.21914062 0.95777344 1.43828125 1.91554687 1.6640625 2.90234375 C5.50804462 19.24134336 11.04485086 34.21798353 19 49 C19.31694824 49.5990918 19.63389648 50.19818359 19.96044922 50.81542969 C24.53016076 59.40525553 29.83057906 67.16640393 35.6796875 74.91796875 C37.17537264 76.90466164 38.62058845 78.93088268 40 81 C39.12601563 81.11214844 39.12601563 81.11214844 38.234375 81.2265625 C24.90122118 83.36489849 14.50981572 91.04080367 4 99 C3.41428223 99.44005371 2.82856445 99.88010742 2.22509766 100.33349609 C-5.52879383 106.1858533 -12.81232059 112.40142595 -19.8671875 119.078125 C-22.13217017 121.21861394 -24.45756994 123.26885768 -26.8203125 125.30078125 C-31.42478585 129.30567376 -35.71086704 133.60004925 -40 137.9375 C-40.77472656 138.71673828 -41.54945313 139.49597656 -42.34765625 140.29882812 C-44.23410757 142.1969242 -46.11816245 144.09733149 -48 146 C-51.13625796 143.08842267 -52.41256021 140.14988737 -54.0625 136.1875 C-54.56910156 134.98480469 -55.07570313 133.78210938 -55.59765625 132.54296875 C-59.67668074 122.23746677 -59.67668074 122.23746677 -59 118 C-57.59783207 115.713793 -56.22985553 113.7587644 -54.5625 111.6875 C-54.16095703 111.15705078 -53.75941406 110.62660156 -53.34570312 110.08007812 C-51.29681848 107.46814121 -49.36703242 105.27725442 -46.70336914 103.26513672 C-43.08639455 100.52162339 -40.46126192 98.49596108 -39.09448242 94.06323242 C-38.65246769 90.61500202 -38.44414342 87.22374074 -38.3125 83.75 C-36.24911726 56.12180658 -25.27835041 34.13063347 -9 12 C-8.55785156 11.39172363 -8.11570313 10.78344727 -7.66015625 10.15673828 C-2.53017396 3.10681826 -2.53017396 3.10681826 0 0 Z " fill="#8DAEBE" transform="translate(183,202)"/>
<path d="M0 0 C-0.58622521 10.9786585 -1.39579551 21.91583261 -2.66235352 32.83813477 C-2.84658055 34.49487038 -3.01376822 36.15358496 -3.16430664 37.8137207 C-4.30398011 50.25993016 -6.54484574 56.42538236 -16 65 C-17.46825245 66.7454202 -18.91023075 68.51363984 -20.3125 70.3125 C-24.38748445 75.36836567 -28.75231994 80.08187223 -33.20019531 84.80566406 C-37.23915745 89.11845414 -40.98932577 93.59820511 -44.68359375 98.2109375 C-48.34464666 102.61901807 -52.27114927 106.77308225 -56.1796875 110.9609375 C-59.54030837 114.56498363 -62.79132405 118.26031077 -66 122 C-70.00756305 118.56222999 -71.83915692 114.71321301 -74.00390625 110.015625 C-74.3684642 109.24120056 -74.73302216 108.46677612 -75.10862732 107.66888428 C-75.87652809 106.03343549 -76.64028562 104.39603568 -77.40014648 102.75683594 C-78.55394642 100.26844741 -79.72009233 97.78616431 -80.88867188 95.3046875 C-81.63615166 93.70867735 -82.3829195 92.11233355 -83.12890625 90.515625 C-83.47272842 89.78200745 -83.8165506 89.04838989 -84.17079163 88.2925415 C-85.13683149 86.20457648 -86.06895511 84.10374941 -87 82 C-87.49814209 80.96955315 -87.49814209 80.96955315 -88.00634766 79.91828918 C-89.63986141 76.25138428 -90.20390571 74.69894867 -89.04638672 70.73120117 C-88.43037598 69.67908447 -87.81436523 68.62696777 -87.1796875 67.54296875 C-86.85047302 66.96146561 -86.52125854 66.37996246 -86.18206787 65.78083801 C-85.10748679 63.89862946 -83.9941859 62.04347782 -82.875 60.1875 C-82.11578311 58.8949901 -81.35846973 57.60136026 -80.60302734 56.30664062 C-79.46816887 54.36358246 -78.33080271 52.422473 -77.18093872 50.48825073 C-74.96833121 46.74978598 -72.96093724 42.98569088 -71.109375 39.05078125 C-65.0589357 26.4833119 -65.0589357 26.4833119 -58.88671875 23.94921875 C-55.0659647 22.7544296 -51.19245578 22.05623243 -47.24609375 21.41601562 C-43.79589383 20.7769786 -40.58779466 19.67801362 -37.3125 18.4375 C-36.68666016 18.20272949 -36.06082031 17.96795898 -35.41601562 17.72607422 C-24.31677159 13.34609119 -13.44382497 7.52265452 -3.25268555 1.33081055 C-1 0 -1 0 0 0 Z " fill="#C92B30" transform="translate(289,377)"/>
<path d="M0 0 C0.66 0 1.32 0 2 0 C14.1917158 21.86100764 9.66551274 48.32305215 3.26953125 71.38671875 C-0.86557639 85.65125373 -5.97112739 99.43317202 -12 113 C-12.39977051 113.90121582 -12.79954102 114.80243164 -13.21142578 115.73095703 C-19.24552121 129.18131265 -25.9291504 142.30414569 -35 154 C-47.69482609 152.77934364 -59.21464327 148.62141527 -71 144 C-69.62691142 140.25119001 -67.90675835 137.08623085 -65.7265625 133.74609375 C-64.74598877 132.23305664 -64.74598877 132.23305664 -63.74560547 130.68945312 C-62.69590576 129.07973633 -62.69590576 129.07973633 -61.625 127.4375 C-60.15761502 125.16783046 -58.69523087 122.89497018 -57.234375 120.62109375 C-56.68757584 119.77023697 -56.68757584 119.77023697 -56.12973022 118.90219116 C-32.24360805 81.65215086 -11.87971733 42.78629901 0 0 Z " fill="#A02422" transform="translate(487,24)"/>
<path d="M0 0 C1.9375 2.25 1.9375 2.25 3 5 C1.81699472 8.20670456 -0.02320752 10.24975585 -2.44921875 12.609375 C-3.13306641 13.28226562 -3.81691406 13.95515625 -4.52148438 14.6484375 C-5.59366211 15.68871094 -5.59366211 15.68871094 -6.6875 16.75 C-12.04709447 21.97548043 -17.14132641 27.30485693 -22 33 C-22.90053254 34.03299615 -23.80153663 35.06558149 -24.703125 36.09765625 C-29.68135564 41.89286646 -34.51079967 47.78483348 -39.125 53.875 C-39.8351123 54.78390991 -39.8351123 54.78390991 -40.55957031 55.71118164 C-43.54381949 59.72780484 -44.85901154 62.85085625 -45 68 C-43.74327686 70.69962748 -42.71766684 72.65819596 -41 75 C-40.40316406 75.8146875 -39.80632812 76.629375 -39.19140625 77.46875 C-36.8633484 80.15784356 -34.5987108 81.93417474 -31.625 83.875 C-30.70976563 84.49117188 -29.79453125 85.10734375 -28.8515625 85.7421875 C-25.19575903 87.35474739 -23.78820968 87.27370325 -20 86 C-17.15995652 84.27232571 -14.59295894 82.26293239 -12 80.1875 C-11.25596924 79.60436035 -10.51193848 79.0212207 -9.74536133 78.42041016 C2.62159492 68.65403758 15.23850514 58.39028557 25.98046875 46.83203125 C26.46684814 46.31648682 26.95322754 45.80094238 27.4543457 45.26977539 C28.7953708 43.83518504 30.11332706 42.37913029 31.4296875 40.921875 C34 39 34 39 37.109375 39.10546875 C40.28853775 40.08929073 43.08404951 41.40316997 46 43 C41.84039942 65.68873046 27.37535267 83.71109158 9 97 C2.08974657 101.35739613 -4.39486362 105.15241367 -12.6875 105.125 C-13.47511719 105.12757813 -14.26273438 105.13015625 -15.07421875 105.1328125 C-17 105 -17 105 -18 104 C-18.33333333 101.66666667 -18.66666667 99.33333333 -19 97 C-21.13905896 94.86094104 -24.93394266 95.51892589 -27.80517578 95.46118164 C-36.2548388 95.63048448 -44.28438344 98.14331975 -52.36669922 100.421875 C-58.62425726 102.18155862 -64.51238414 103.51101834 -71 104 C-71.34677512 96.88388551 -70.25654553 91.29135925 -68 84.5625 C-67.68458252 83.60239014 -67.36916504 82.64228027 -67.04418945 81.65307617 C-63.95478962 72.47902403 -60.25511806 63.68933946 -56 55 C-55.61440918 54.20964355 -55.22881836 53.41928711 -54.83154297 52.60498047 C-46.68330976 36.09486535 -23.54305056 -6.23198397 0 0 Z " fill="#FAEEB2" transform="translate(131,342)"/>
<path d="M0 0 C5.28476131 0.27565819 9.43307386 2.48068768 14.0625 4.8125 C21.23480117 8.32073335 28.26381139 10.95495536 36 13 C36 16 36 16 34.20361328 17.98046875 C28.02586919 23.4162101 21.65934449 28.34582469 14.875 33 C13.87017578 33.69279053 12.86535156 34.38558105 11.83007812 35.09936523 C3.80280956 40.5729109 -4.33465408 45.60652967 -13 50 C-13.62277832 50.31759277 -14.24555664 50.63518555 -14.88720703 50.96240234 C-29.71351812 58.42705138 -45.17954126 63.96332789 -61.875 64.6875 C-62.71546875 64.73455078 -63.5559375 64.78160156 -64.421875 64.83007812 C-70.60587435 65.13137522 -70.60587435 65.13137522 -74 64 C-74.25595947 64.58048096 -74.51191895 65.16096191 -74.77563477 65.7590332 C-76.11932446 68.21840064 -77.61395933 69.87262787 -79.58984375 71.85546875 C-80.29173828 72.55994141 -80.99363281 73.26441406 -81.71679688 73.99023438 C-82.44962891 74.71533203 -83.18246094 75.44042969 -83.9375 76.1875 C-84.66646484 76.92419922 -85.39542969 77.66089844 -86.14648438 78.41992188 C-86.84966797 79.12052734 -87.55285156 79.82113281 -88.27734375 80.54296875 C-88.91921631 81.18258545 -89.56108887 81.82220215 -90.22241211 82.48120117 C-92 84 -92 84 -95 85 C-105.75280112 83.12515262 -115.32624999 78.88490071 -125 74 C-120.56553537 68.74612342 -115.96756317 63.68774623 -111.25 58.6875 C-110.57839844 57.97271484 -109.90679687 57.25792969 -109.21484375 56.52148438 C-104.35726687 51.35726687 -104.35726687 51.35726687 -102 49 C-101.29875 49.763125 -100.5975 50.52625 -99.875 51.3125 C-96.90115213 54.09240127 -94.85946547 55.71351151 -91 57 C-85.33135128 55.91855968 -80.54187243 54.07927053 -75.4375 51.4375 C-74.74914062 51.08598877 -74.06078125 50.73447754 -73.3515625 50.37231445 C-50.40016883 38.48489815 -29.64550313 22.74726993 -9 7.3125 C-8.32324219 6.80726807 -7.64648438 6.30203613 -6.94921875 5.78149414 C-4.5089404 3.94718035 -2.16165087 2.16165087 0 0 Z " fill="#437586" transform="translate(291,307)"/>
<path d="M0 0 C0.75796875 0.00644531 1.5159375 0.01289063 2.296875 0.01953125 C4.25 0.1875 4.25 0.1875 6.25 1.1875 C4.79957091 4.53334964 2.97261175 6.68804036 0.37109375 9.2265625 C-0.76295898 10.34417969 -0.76295898 10.34417969 -1.91992188 11.484375 C-2.70947266 12.25265625 -3.49902344 13.0209375 -4.3125 13.8125 C-5.87847891 15.34413169 -7.44238939 16.87788195 -9.00390625 18.4140625 C-9.69814697 19.09033691 -10.3923877 19.76661133 -11.10766602 20.46337891 C-12.82956495 22.10238551 -12.82956495 22.10238551 -13.75 24.1875 C-14.41 24.1875 -15.07 24.1875 -15.75 24.1875 C-15.98104935 24.74419373 -16.21209869 25.30088745 -16.45014954 25.87445068 C-18.10057147 28.8113326 -20.15401819 30.82297346 -22.54760742 33.19628906 C-23.03408752 33.68145493 -23.52056763 34.16662079 -24.02178955 34.66648865 C-25.62846567 36.26668413 -27.24200191 37.85977938 -28.85546875 39.453125 C-29.97978361 40.57116285 -31.10358048 41.68972183 -32.22688293 42.80877686 C-35.1873623 45.7559572 -38.15334636 48.69752937 -41.12097168 51.63751221 C-45.85365714 56.32710387 -50.57978081 61.0232814 -55.30245399 65.7229538 C-56.94337074 67.35375566 -58.5877195 68.98103483 -60.23246765 70.60797119 C-64.96239144 75.30005702 -69.55975462 80.03438994 -73.89189148 85.10107422 C-78.14645303 89.87842 -82.76727981 94.32514232 -87.30078125 98.8359375 C-88.40721772 99.94050432 -89.51343023 101.04529552 -90.61943054 102.15029907 C-93.50812756 105.0352092 -96.39981511 107.91710297 -99.29217529 110.79833984 C-102.24414134 113.74002668 -105.1932364 116.68458869 -108.14257812 119.62890625 C-113.31227357 124.78906967 -118.48443303 129.94675179 -123.65840149 135.10263062 C-125.02334048 136.4631783 -126.38725489 137.82475489 -127.75 139.1875 C-136.1188946 129.74791131 -136.1188946 129.74791131 -136.328125 124.46484375 C-133.04635888 111.53734613 -117.77524696 98.30376488 -109.015625 88.69921875 C-107.76245958 87.30993364 -106.51553581 85.91463396 -105.29618835 84.49557495 C-100.82324022 79.29647667 -96.10881323 74.40036426 -91.25390625 69.55859375 C-90.46153061 68.76526138 -89.66915497 67.97192902 -88.85276794 67.15455627 C-87.18749717 65.48860919 -85.52097971 63.82390744 -83.85327148 62.16040039 C-81.31965378 59.63213866 -78.79141833 57.09858339 -76.26367188 54.56445312 C-74.63573717 52.9371793 -73.00749225 51.31021575 -71.37890625 49.68359375 C-70.63282608 48.93548935 -69.88674591 48.18738495 -69.11805725 47.41661072 C-64.48750975 42.80640442 -59.70703174 38.44281162 -54.75 34.1875 C-53.67789651 33.2389997 -52.6072669 32.28882683 -51.5390625 31.3359375 C-15.64035616 -0.29662744 -15.64035616 -0.29662744 0 0 Z " fill="#C92C31" transform="translate(220.75,282.8125)"/>
<path d="M0 0 C0.99 0.33 1.98 0.66 3 1 C4.31640625 4.01953125 4.31640625 4.01953125 5.5625 7.8125 C7.10094501 12.63033355 7.10094501 12.63033355 9.21484375 17.19921875 C10 19 10 19 10.00390625 20.94140625 C8.44495571 24.13816474 5.73408572 25.87372157 2.9375 27.9375 C1.65519826 28.913985 0.37399065 29.89190807 -0.90625 30.87109375 C-1.91365234 31.63655518 -1.91365234 31.63655518 -2.94140625 32.41748047 C-6.36539871 35.04963407 -9.71490196 37.77174205 -13.0625 40.5 C-14.0673645 41.31827271 -14.0673645 41.31827271 -15.0925293 42.15307617 C-24.00697692 49.4327579 -32.82681522 56.81589998 -41.33416748 64.57072449 C-43.12309986 66.20091303 -44.91658791 67.82611522 -46.7144165 69.44648743 C-53.27030802 75.38913289 -59.57243351 81.50625023 -65.72844696 87.867239 C-68.26384357 90.48133029 -70.81927923 93.07577937 -73.37109375 95.67382812 C-76.58360323 98.94642957 -79.78974369 102.22462101 -82.97509766 105.52368164 C-85.58452923 108.22519605 -88.21316123 110.90663646 -90.85569 113.57576942 C-91.85005787 114.58734024 -92.83724591 115.60602439 -93.81673431 116.63200951 C-102.37422396 125.58424163 -102.37422396 125.58424163 -107.51269531 125.7668457 C-111 125 -111 125 -113.4375 122.625 C-116.01264058 118.29876382 -116.58866012 115.01253008 -116 110 C-113.54177255 102.97649299 -108.76097155 98.16452145 -103.71875 92.8671875 C-101.63029799 90.66471081 -99.63936589 88.44533037 -97.6875 86.125 C-90.40451257 77.73373187 -82.33291531 69.81272362 -73.85546875 62.63671875 C-71.63836416 60.68099912 -69.57624088 58.6044411 -67.5 56.5 C-64.14743221 53.10731601 -60.70524318 49.90899316 -57.0859375 46.8046875 C-54.74974499 44.78348724 -52.47035149 42.70621161 -50.1875 40.625 C-45.4730502 36.37485207 -40.60532498 32.35247399 -35.67089844 28.36181641 C-33.75260238 26.79836588 -31.84847135 25.21855933 -29.9453125 23.63671875 C-22.59280887 17.53127118 -15.22095254 11.52509944 -7.515625 5.8671875 C-4.92431879 3.99518102 -4.92431879 3.99518102 -2.359375 1.6953125 C-1.58078125 1.13585937 -0.8021875 0.57640625 0 0 Z " fill="#B2E0ED" transform="translate(338,81)"/>
<path d="M0 0 C7.45135192 5.0657011 12.8590234 11.12409197 15 20 C16.21697481 29.40557569 15.8775074 38.66251078 11 47 C10.38125 48.07314453 10.38125 48.07314453 9.75 49.16796875 C4.907995 56.49975473 -2.63471493 60.71099165 -11 63 C-21.47829905 64.00125969 -30.12560771 63.33971796 -38.69140625 57.01171875 C-43.92248865 52.60298992 -47.68818855 48.4650076 -50 42 C-50.4125 40.948125 -50.825 39.89625 -51.25 38.8125 C-53.53876339 27.17795275 -51.9543632 17.67279736 -45.4375 7.8125 C-33.85258644 -6.72022871 -15.66611429 -8.38274536 0 0 Z " fill="#405560" transform="translate(344,162)"/>
<path d="M0 0 C-0.65226563 0.83402344 -1.30453125 1.66804687 -1.9765625 2.52734375 C-2.85953607 3.66393739 -3.7423393 4.80066337 -4.625 5.9375 C-5.05167969 6.48212891 -5.47835937 7.02675781 -5.91796875 7.58789062 C-6.34980469 8.14541016 -6.78164062 8.70292969 -7.2265625 9.27734375 C-7.68611328 9.86217529 -8.14566406 10.44700684 -8.61914062 11.04956055 C-10.07242023 13.0053873 -10.07242023 13.0053873 -11.20898438 15.35083008 C-13.23771695 19.12267104 -14.71337843 21.48079916 -18.77392578 23.11938477 C-22.26196201 23.88618532 -25.7040421 24.38778299 -29.25 24.8125 C-31.20466588 25.09724591 -33.15932966 25.38200875 -35.11378479 25.66819763 C-37.10985634 25.95375268 -39.10758272 26.2208887 -41.10693359 26.48242188 C-46.93859053 27.25773309 -52.74934425 28.16033807 -58.5625 29.0625 C-59.6242041 29.22693604 -60.6859082 29.39137207 -61.77978516 29.56079102 C-63.85463213 29.8831488 -65.92918648 30.20739668 -68.00341797 30.53369141 C-69.98030753 30.84132209 -71.95850748 31.14066181 -73.93798828 31.43115234 C-88.40744424 33.4978494 -88.40744424 33.4978494 -99 43 C-100.22068068 44.1364958 -101.47211653 45.24072677 -102.75 46.3125 C-106.18508812 49.26936997 -109.54065389 52.30552693 -112.875 55.375 C-116.56536755 58.77053049 -120.267055 62.15115224 -124 65.5 C-127.6883049 68.81001722 -131.35065765 72.147145 -135 75.5 C-140.30123193 80.36944212 -145.64204923 85.1931043 -151 90 C-152.87525615 91.68721535 -154.75026187 93.37470907 -156.625 95.0625 C-158.8125 97.03125 -158.8125 97.03125 -161 99 C-163.45669601 96.54330399 -164.06709106 94.46783087 -165.1875 91.1875 C-165.55230469 90.14980469 -165.91710937 89.11210937 -166.29296875 88.04296875 C-167.08081343 84.65218973 -167.09177554 83.28308581 -166 80 C-164.18618065 77.80670685 -162.40177884 75.865037 -160.38208008 73.88037109 C-159.796604 73.28949203 -159.21112793 72.69861298 -158.60791016 72.08982849 C-156.67156882 70.14098983 -154.72109265 68.2070257 -152.76953125 66.2734375 C-151.41704151 64.92079277 -150.06521869 63.5674809 -148.71403503 62.21353149 C-145.87970374 59.37781563 -143.03852335 56.54920163 -140.19213867 53.72558594 C-136.54974505 50.11153581 -132.92307615 46.48218225 -129.30121326 42.84757042 C-126.5109597 40.05034935 -123.71336443 37.26056673 -120.91342735 34.47304153 C-119.57377789 33.13789899 -118.23620115 31.8006733 -116.90076637 30.46131516 C-115.02939477 28.587022 -113.14856662 26.72275807 -111.26489258 24.86083984 C-110.71764023 24.30908585 -110.17038788 23.75733185 -109.60655212 23.18885803 C-103.63051763 17.32663679 -97.64640496 15.47369597 -89.55395508 14.08300781 C-88.62155502 13.91515274 -87.68915497 13.74729767 -86.72850037 13.57435608 C-83.66042207 13.0246181 -80.59014453 12.48850731 -77.51953125 11.953125 C-75.38284225 11.57447946 -73.24626223 11.19521845 -71.10978699 10.81536865 C-66.639735 10.02277517 -62.16858922 9.23677113 -57.6965332 8.45556641 C-51.95761477 7.45263971 -46.2214848 6.43469051 -40.48605824 5.41200638 C-36.07850774 4.62755415 -31.66970574 3.85033839 -27.26047325 3.07540131 C-25.14414491 2.70268082 -23.02818652 2.32785355 -20.91260719 1.95090485 C-17.96224335 1.42647488 -15.01036653 0.91163062 -12.05786133 0.39941406 C-11.18040253 0.24156937 -10.30294373 0.08372467 -9.39889526 -0.0789032 C-3.34297345 -1.11432448 -3.34297345 -1.11432448 0 0 Z " fill="#C92C30" transform="translate(182,205)"/>
<path d="M0 0 C14.0703307 -0.60903762 25.39712593 4.02247118 35.95703125 13.22265625 C44.91211407 21.77761835 49.99353532 33.26463062 50.33203125 45.59765625 C49.95065814 59.13640173 45.29918017 71.41461092 35.98828125 81.37890625 C25.94362184 90.49636633 14.00182807 95.05283145 0.4765625 94.60546875 C-9.42662736 93.52831824 -17.93874507 89.91712846 -26.04296875 84.22265625 C-26.67847656 83.78308594 -27.31398438 83.34351563 -27.96875 82.890625 C-36.97655857 75.9600051 -41.95015367 65.16968896 -44.04296875 54.22265625 C-45.41001474 40.86224804 -42.76516284 28.91584805 -35.14453125 17.79296875 C-27.6455331 8.62133161 -18.10880672 3.16443206 -6.66796875 0.41015625 C-4.44408448 0.29512775 -2.22091975 0.16250632 0 0 Z M-24.04296875 25.22265625 C-30.82132377 35.163327 -32.63787524 44.48299972 -30.46484375 56.390625 C-27.9670299 65.16703459 -23.1291868 72.03274493 -15.33984375 76.91796875 C-6.18287921 81.60355002 3.35046603 82.97835285 13.3671875 80.31640625 C23.43897279 76.34371724 29.54120853 71.14585338 33.95703125 61.22265625 C37.22793214 53.01650914 37.41898027 43.19772991 34.9296875 34.7265625 C30.56512144 25.2357471 24.19196433 19.3225707 14.64453125 15.22265625 C-0.15797554 10.13321627 -13.26301245 14.03450884 -24.04296875 25.22265625 Z " fill="#DEDFDF" transform="translate(323.04296875,143.77734375)"/>
<path d="M0 0 C0.86625 0.763125 1.7325 1.52625 2.625 2.3125 C13.70862978 11.76815197 25.17699782 20.0917531 37.65625 27.59765625 C39.46387912 28.68923511 41.23759671 29.83681383 43 31 C43 31.66 43 32.32 43 33 C40.70476859 34.8025051 38.4021225 36.47389459 36 38.125 C35.25177979 38.64489502 34.50355957 39.16479004 33.73266602 39.70043945 C31.16229039 41.47765279 28.58231839 43.24018759 26 45 C24.56309814 45.98250732 24.56309814 45.98250732 23.09716797 46.98486328 C-14.17663 72.39689083 -14.17663 72.39689083 -27 75 C-32.30540405 73.77312531 -35.73866586 71.23861395 -40 68 C-39.42905698 64.17641187 -37.76488572 62.37762105 -35.125 59.625 C-29.87866134 53.95530173 -25.12184173 48.00201565 -20.43359375 41.87060547 C-19.46767351 40.61023747 -18.49618823 39.3541173 -17.51953125 38.10205078 C-8.16812341 26.09678212 -2.99127046 15.07794866 0 0 Z " fill="#8CAEBE" transform="translate(229,290)"/>
<path d="M0 0 C0.94101562 -0.02578125 1.88203125 -0.0515625 2.8515625 -0.078125 C5.375 0.25 5.375 0.25 7.2109375 1.6484375 C8.375 3.25 8.375 3.25 8.375 5.125 C3.91788369 14.59637216 -8.73283129 19.94409679 -17.375 24.8125 C-33.09286254 33.67291467 -48.39945346 43.12923544 -62.625 54.25 C-65.4909265 56.4495777 -68.36928577 58.63234485 -71.25 60.8125 C-71.95044434 61.3502002 -72.65088867 61.88790039 -73.37255859 62.44189453 C-74.02562988 62.9367334 -74.67870117 63.43157227 -75.3515625 63.94140625 C-75.93502441 64.38685791 -76.51848633 64.83230957 -77.11962891 65.29125977 C-78.625 66.25 -78.625 66.25 -80.625 66.25 C-81.77947871 63.71195542 -82.92368427 61.17006371 -84.0625 58.625 C-84.38798828 57.91214844 -84.71347656 57.19929688 -85.04882812 56.46484375 C-86.86271104 52.38828214 -88.12305744 48.73213493 -88.625 44.25 C-28.26117847 0.46712692 -28.26117847 0.46712692 0 0 Z " fill="#EC6964" transform="translate(428.625,35.75)"/>
<path d="M0 0 C2.58322859 1.0039859 3.79362004 1.66431407 5.265625 4.05859375 C5.75289062 5.23615234 5.75289062 5.23615234 6.25 6.4375 C6.58515625 7.21996094 6.9203125 8.00242187 7.265625 8.80859375 C8 11 8 11 8 14 C8.65226562 13.97679687 9.30453125 13.95359375 9.9765625 13.9296875 C15.08698903 13.82416247 19.20425033 13.98073698 24 16 C23.9375 18.0625 23.9375 18.0625 23 21 C21.80576188 21.9553905 20.59528702 22.89061319 19.375 23.8125 C17.29379119 25.70296666 16.11670927 27.0419388 15.77099609 29.87988281 C15.750289 34.62943562 16.32923747 39.30466227 17 44 C12.94787321 45.35070893 11.66921917 44.06189663 7.875 42.25 C3.21060524 40.23352373 3.21060524 40.23352373 -1.64453125 40.7421875 C-3.946463 42.08992544 -3.946463 42.08992544 -6.05859375 43.640625 C-8.61667827 45.43179887 -10.91093421 45.84554671 -14 46 C-15 45 -15 45 -15.1875 42.0625 C-15.13753336 37.26570271 -14.0505076 32.66162747 -13 28 C-13.55429688 27.51789062 -14.10859375 27.03578125 -14.6796875 26.5390625 C-15.40414062 25.90742187 -16.12859375 25.27578125 -16.875 24.625 C-17.59429687 23.99851562 -18.31359375 23.37203125 -19.0546875 22.7265625 C-20.4076598 21.52573166 -21.7208345 20.2791655 -23 19 C-22.625 16.875 -22.625 16.875 -22 15 C-18.68929162 13.99890485 -15.69915231 13.89643866 -12.25 13.9375 C-11.26515625 13.94652344 -10.2803125 13.95554687 -9.265625 13.96484375 C-8.14414063 13.98224609 -8.14414063 13.98224609 -7 14 C-6.82984375 13.40832031 -6.6596875 12.81664062 -6.484375 12.20703125 C-4.99889662 7.36342355 -3.53140647 3.77495174 0 0 Z " fill="#FFFFFF" transform="translate(229,33)"/>
<path d="M0 0 C0.65742188 0.54527344 0.65742188 0.54527344 1.328125 1.1015625 C9.62872114 7.68130334 18.52044487 12.25340748 29 14 C28.42766866 17.72640869 26.92954626 19.44517771 24.2890625 22.07421875 C23.53882813 22.82380859 22.78859375 23.57339844 22.015625 24.34570312 C21.22671875 25.11849609 20.4378125 25.89128906 19.625 26.6875 C18.84382813 27.47189453 18.06265625 28.25628906 17.2578125 29.06445312 C11.40065607 34.86644798 11.40065607 34.86644798 8 36 C-2.75280112 34.12515262 -12.32624999 29.88490071 -22 25 C-16.91590438 18.96708404 -11.56347222 13.23627079 -6.12695312 7.52148438 C-5.48048828 6.83763672 -4.83402344 6.15378906 -4.16796875 5.44921875 C-3.58297607 4.83393311 -2.9979834 4.21864746 -2.39526367 3.5847168 C-0.91110346 2.03503969 -0.91110346 2.03503969 0 0 Z " fill="#858584" transform="translate(188,356)"/>
<path d="M0 0 C5.28476131 0.27565819 9.43307386 2.48068768 14.0625 4.8125 C21.23480117 8.32073335 28.26381139 10.95495536 36 13 C36 16 36 16 34.12890625 18.05078125 C32.35476785 19.61429135 30.55883772 21.15329337 28.74609375 22.671875 C26.02409181 24.87035501 26.02409181 24.87035501 24.03515625 27.203125 C21.61501627 29.55892588 20.35938175 30.40795943 17 31 C9.947208 29.576769 3.4242951 26.12475079 -3 23 C-4.45781671 22.31790516 -5.9161123 21.63683239 -7.375 20.95703125 C-16.75675912 16.48648176 -16.75675912 16.48648176 -18 14 C-17.52578613 13.64695801 -17.05157227 13.29391602 -16.56298828 12.93017578 C-14.41573606 11.33012824 -12.27035107 9.72759558 -10.125 8.125 C-9.37863281 7.56941406 -8.63226563 7.01382812 -7.86328125 6.44140625 C-7.14785156 5.90644531 -6.43242187 5.37148438 -5.6953125 4.8203125 C-5.03547363 4.32805176 -4.37563477 3.83579102 -3.69580078 3.32861328 C-1.88280739 1.96315594 -1.88280739 1.96315594 0 0 Z " fill="#3F5460" transform="translate(291,307)"/>
<path d="M0 0 C2.55114095 2.55114095 2.60457039 4.85350453 3.3046875 8.29296875 C5.16889565 15.55081284 8.66501951 22.33003901 12 29 C5.07 35.93 -1.86 42.86 -9 50 C-12.22163056 46.77836944 -13.32546134 44.35905831 -15.0625 40.1875 C-15.56910156 38.98480469 -16.07570313 37.78210938 -16.59765625 36.54296875 C-20.67273177 26.2474437 -20.67273177 26.2474437 -20 22 C-18.61806665 19.73010096 -17.27887977 17.80014083 -15.625 15.75 C-14.95911865 14.90272339 -14.95911865 14.90272339 -14.27978516 14.03833008 C-10.02367333 8.76269621 -5.23425676 4.30990929 0 0 Z " fill="#868584" transform="translate(144,298)"/>
<path d="M0 0 C2.89743762 4.34615644 2.6666476 7.89576886 2 13 C-0.56666291 21.73278934 -3.86322115 31.0800872 -12 36 C-17.90265487 36.81415929 -17.90265487 36.81415929 -20.9375 34.5625 C-23.7514554 27.77590167 -21.87944223 21.23315989 -19.26953125 14.6484375 C-15.35026047 6.47223568 -9.88394493 -1.30542669 0 0 Z " fill="#B2DFEC" transform="translate(179,244)"/>
<path d="M0 0 C3.16771848 2.58589264 4.64793729 4.04492835 5.3671875 8.0390625 C5.49180724 11.73611468 5.36967424 15.09176344 3 18 C-0.42126917 20.36230491 -3.0301481 21.25836526 -7.125 20.9375 C-11.22903565 19.94458815 -12.70219958 19.49265664 -15 16 C-16.13028081 11.93098907 -16.26787933 9.73314342 -14.8125 5.75 C-11.00473254 -0.02730235 -6.79551807 -1.46309197 0 0 Z " fill="#FFFFFF" transform="translate(88,145)"/>
<path d="M0 0 C3.56352884 3.04384755 4.81458415 4.94312966 5.625 9.5625 C5 13 5 13 3 15.9375 C-0.33758138 18.2320872 -2.10183315 18.75776403 -6.06640625 18.48046875 C-9.54565017 17.61592935 -10.98608141 15.86830829 -13 13 C-14.0625 9.5 -14.0625 9.5 -14 6 C-10.46815502 0.39776314 -6.58897897 -1.31023674 0 0 Z " fill="#FFFFFF" transform="translate(397,365)"/>
<path d="M0 0 C3.33443684 0.69329875 4.85232439 1.75974142 6.97265625 4.41015625 C7.77981812 8.1976081 7.45183556 11.31086253 5.91015625 14.84765625 C2.9898359 17.20275331 0.6780343 17.34627042 -3.02734375 17.41015625 C-6.60121977 15.82176691 -7.83823947 14.69381267 -10.02734375 11.41015625 C-10.50828665 7.72292734 -10.25651874 5.84940831 -8.52734375 2.53515625 C-5.65147434 0.09066725 -3.7575519 -0.273915 0 0 Z " fill="#FFFFFF" transform="translate(451.02734375,258.58984375)"/>
<path d="M0 0 C2.9236459 2.5488195 3.84909176 4.19515606 4.5625 8 C3.78594456 12.14162899 2.42784786 13.59321321 -1 16 C-4.51955419 16 -6.84920059 15.63108355 -9.9375 13.9375 C-11.69366901 10.73507415 -11.62026592 7.50309274 -11 4 C-8.17436748 -0.52101204 -5.09523334 -0.81887679 0 0 Z " fill="#FFFFFF" transform="translate(173,140)"/>
</svg>
