<?xml version="1.0" encoding="UTF-8"?>
<svg version="1.1" xmlns="http://www.w3.org/2000/svg" width="500" height="500">
<path d="M0 0 C0.33 0 0.66 0 1 0 C1.06957695 9.93588364 1.12285037 19.8717091 1.15543652 29.80778694 C1.17107796 34.42175032 1.19228842 39.03554675 1.22631836 43.64941406 C1.25896611 48.10386669 1.27686446 52.55815895 1.28463173 57.01272202 C1.29016552 58.71035155 1.30097173 60.40797252 1.31719017 62.1055336 C1.33903674 64.4873766 1.34196395 66.86856086 1.34057617 69.25048828 C1.351362 69.94892349 1.36214783 70.6473587 1.3732605 71.36695862 C1.34396809 76.0274561 0.15307692 78.93180013 -2 83 C-2.39460523 85.47545065 -2.39460523 85.47545065 -2.26464844 87.95361328 C-2.24762878 88.88964386 -2.23060913 89.82567444 -2.21307373 90.79006958 C-2.16174286 92.29003983 -2.16174286 92.29003983 -2.109375 93.8203125 C-2.08530579 94.87419159 -2.06123657 95.92807068 -2.03643799 97.0138855 C-1.95557778 100.3848113 -1.85283312 103.75468066 -1.75 107.125 C-1.69523762 109.33720593 -1.64183952 111.54944607 -1.58984375 113.76171875 C-1.35161223 123.35266567 -1.0270947 132.92952593 -0.48046875 142.5078125 C0.20513748 155.00802088 0.32492532 167.52541999 0.39287758 180.04180336 C0.41336269 183.79396855 0.44608261 187.54513707 0.50756836 191.296875 C0.567914 194.98995792 0.59851111 198.68218791 0.60820198 202.37574005 C0.61669426 203.76477415 0.63535652 205.153789 0.6649456 206.54253387 C0.82126416 214.2703342 0.6701171 219.75691372 -4.51402283 225.76031494 C-6 227 -6 227 -8 227 C-8.268125 227.721875 -8.53625 228.44375 -8.8125 229.1875 C-10 232 -10 232 -11.4375 234.125 C-15.71741623 242.00004586 -17.18315427 251.13298993 -16 260 C-13.63708106 264.45319339 -10.62711655 266.1666142 -6 268 C-3.62741767 268.59511616 -1.2580593 269.11152637 1.14453125 269.5703125 C3 270 3 270 4 271 C5.55378384 285.03210976 5.55378384 285.03210976 2.28515625 289.171875 C-0.47076898 290.86629557 -2.73567191 292 -6 292 C-6 292.66 -6 293.32 -6 294 C-6.66 294 -7.32 294 -8 294 C-8 294.66 -8 295.32 -8 296 C-8.66 296 -9.32 296 -10 296 C-10 296.66 -10 297.32 -10 298 C-10.66 298 -11.32 298 -12 298 C-12.25265625 298.68835938 -12.5053125 299.37671875 -12.765625 300.0859375 C-14.17959304 303.42397597 -15.92187228 306.50353239 -17.75 309.625 C-18.46442765 310.85886243 -19.17795787 312.09324488 -19.890625 313.328125 C-20.24447266 313.94107422 -20.59832031 314.55402344 -20.96289062 315.18554688 C-23.38132257 319.41666415 -25.68854579 323.7098009 -28 328 C-28.99 328 -29.98 328 -31 328 C-30.68806536 326.27073126 -30.37542638 324.54158956 -30.0625 322.8125 C-29.88847656 321.84957031 -29.71445313 320.88664062 -29.53515625 319.89453125 C-29.20288924 318.09737905 -28.84661271 316.30427908 -28.453125 314.51953125 C-26.73865133 304.98646644 -28.06731423 296.76075983 -32 288 C-34.9254644 287.7763932 -34.9254644 287.7763932 -37 289 C-37.39832031 287.93458984 -37.39832031 287.93458984 -37.8046875 286.84765625 C-38.15789062 285.92855469 -38.51109375 285.00945312 -38.875 284.0625 C-39.22304687 283.14597656 -39.57109375 282.22945313 -39.9296875 281.28515625 C-40.7819086 278.85058944 -40.7819086 278.85058944 -43 278 C-42.98354975 284.8466158 -42.92818003 291.69217389 -42.84741211 298.53833008 C-42.8244041 300.86085143 -42.80987737 303.18347456 -42.80444336 305.50610352 C-42.76274228 320.4062217 -42.19212602 332.8144787 -35.33520508 346.26586914 C-34 349 -34 349 -34 351 C-42.23139325 348.68492065 -47.65095771 341.55057855 -52.45703125 334.91796875 C-57.56748234 325.25339415 -57.62137579 315.05352361 -58 304.375 C-58.56955408 288.5301379 -59.2781015 272.25581262 -67 258 C-67.99 258.33 -68.98 258.66 -70 259 C-70.103125 259.763125 -70.20625 260.52625 -70.3125 261.3125 C-71.04364039 264.17059424 -71.76951913 265.15742885 -74 267 C-74.66 266.67 -75.32 266.34 -76 266 C-75.99907821 266.6999858 -75.99815641 267.3999716 -75.99720669 268.12116909 C-75.9751521 285.12903758 -75.95858876 302.13690245 -75.94818783 319.14478207 C-75.94302473 327.36955719 -75.93598177 335.59432279 -75.92456055 343.8190918 C-75.91461414 350.98520446 -75.90814668 358.15131023 -75.90591151 365.3174296 C-75.90460432 369.11416989 -75.90151802 372.91089045 -75.89426994 376.70762444 C-75.8875104 380.27718902 -75.8853829 383.84672563 -75.88689232 387.41629601 C-75.88648364 389.35914846 -75.8810881 391.30199784 -75.87557983 393.24484253 C-75.8769545 394.39054214 -75.87832916 395.53624176 -75.87974548 396.71665955 C-75.87882369 397.71864852 -75.8779019 398.72063749 -75.87695217 399.75298977 C-76 402 -76 402 -77 403 C-79.46252639 403.11337072 -81.89592406 403.16417634 -84.359375 403.16796875 C-85.47146332 403.17296135 -85.47146332 403.17296135 -86.60601807 403.17805481 C-88.17972186 403.18312881 -89.75343647 403.18546299 -91.32714844 403.18530273 C-93.7260948 403.18747832 -96.12457327 403.2055982 -98.5234375 403.22460938 C-100.05208176 403.22754545 -101.58072821 403.22952881 -103.109375 403.23046875 C-103.82414001 403.23765427 -104.53890503 403.24483978 -105.27532959 403.25224304 C-109.26118174 403.234132 -112.49995437 402.99325889 -116 401 C-116.85319222 398.52974673 -117.37338134 396.42032852 -117.8125 393.875 C-119.1282794 387.58482754 -121.06708415 382.09543124 -124 376.375 C-124.49850464 375.40022705 -124.49850464 375.40022705 -125.00708008 374.40576172 C-126.60697302 371.37277068 -128.30752659 368.4905665 -130.25 365.6640625 C-132 363 -132 363 -132 361 C-132.66 361 -133.32 361 -134 361 C-138 356.52941176 -138 356.52941176 -138 354 C-138.66 354 -139.32 354 -140 354 C-140 353.34 -140 352.68 -140 352 C-140.66 352 -141.32 352 -142 352 C-142 351.34 -142 350.68 -142 350 C-142.71929687 349.73316406 -143.43859375 349.46632813 -144.1796875 349.19140625 C-147.02481555 347.98951698 -149.5051535 346.56789377 -152.125 344.9375 C-154.80251948 343.27320598 -156.99972402 342.00009199 -160 341 C-160 339.68 -160 338.36 -160 337 C-150.44065126 332.67158583 -139.5414688 332.11185549 -129.55078125 334.98046875 C-126.83079819 336.0676289 -124.46444368 337.42364413 -122 339 C-122.54140625 337.96939453 -122.54140625 337.96939453 -123.09375 336.91796875 C-123.78984375 335.56638672 -123.78984375 335.56638672 -124.5 334.1875 C-124.9640625 333.29417969 -125.428125 332.40085937 -125.90625 331.48046875 C-127 329 -127 329 -127 326 C-120.92849777 327.366088 -117.37640054 330.83776374 -113 335 C-112.175 335.763125 -111.35 336.52625 -110.5 337.3125 C-109 339 -109 339 -109 341 C-108.34 341 -107.68 341 -107 341 C-104.03 346.445 -104.03 346.445 -101 352 C-97.9304403 352.32348872 -97.9304403 352.32348872 -95.9375 350.25 C-90.91268914 344.41473577 -90.44743163 337.50926253 -91 330 C-91.80038724 324.79241717 -93.61201891 320.38594218 -96.09765625 315.76171875 C-97 314 -97 314 -98 311 C-98.66 311 -99.32 311 -100 311 C-100 310.34 -100 309.68 -100 309 C-100.66 309 -101.32 309 -102 309 C-102 308.34 -102 307.68 -102 307 C-102.88558594 306.63068359 -102.88558594 306.63068359 -103.7890625 306.25390625 C-107.90630589 303.91886185 -110.26848138 299.77750497 -113 296 C-113.49628906 295.3296875 -113.99257812 294.659375 -114.50390625 293.96875 C-120.46214585 285.52655765 -124.63284164 275.94865024 -129.078125 266.65625 C-135.47541246 252.93361463 -135.47541246 252.93361463 -147.875 245.0625 C-149.90970982 244.35467589 -151.9493505 243.66022395 -154 243 C-153.60968637 240.62263514 -153.28887585 239.29524226 -151.58203125 237.55078125 C-147.69463794 234.83046408 -144.84819437 233.27970352 -140 233 C-139.16210938 232.94972656 -138.32421875 232.89945313 -137.4609375 232.84765625 C-131.20434988 232.63220902 -126.70017974 233.41878653 -121 236 C-121 236.66 -121 237.32 -121 238 C-120.40703125 238.2578125 -119.8140625 238.515625 -119.203125 238.78125 C-116.82339035 240.09769895 -115.49021208 241.42580782 -113.75 243.5 C-113.22921875 244.1084375 -112.7084375 244.716875 -112.171875 245.34375 C-111 247 -111 247 -111 249 C-109.68 249 -108.36 249 -107 249 C-106.38853097 231.67504417 -108.34736535 213.1047943 -115 197 C-115.33644531 196.07316406 -115.67289063 195.14632812 -116.01953125 194.19140625 C-118.31234479 187.92642744 -120.92355347 181.94259268 -123.9375 176 C-124.28167969 175.32130859 -124.62585938 174.64261719 -124.98046875 173.94335938 C-125.66437473 172.59748403 -126.34861337 171.25177766 -127.03320312 169.90625 C-138.08491008 148.11540962 -146.4458917 121.56622865 -139.1875 97.1875 C-135.94956427 88.88796359 -131.14562872 81.36906285 -126.27294922 73.94091797 C-125.44816298 72.6833325 -124.63635651 71.41709862 -123.84033203 70.14111328 C-122.94564526 68.72642346 -121.97979514 67.35713418 -121 66 C-120.34 66 -119.68 66 -119 66 C-118.62875 65.1646875 -118.62875 65.1646875 -118.25 64.3125 C-116.77075182 61.57589087 -115.06532561 59.32349131 -113 57 C-112.34 57 -111.68 57 -111 57 C-111 56.34 -111 55.68 -111 55 C-110.34 55 -109.68 55 -109 55 C-109 54.34 -109 53.68 -109 53 C-101.9040417 46.30424759 -90.25323724 36 -80 36 C-81.37961752 39.07865388 -83.00123131 41.24298744 -85.3125 43.6875 C-93.73032909 53.20558476 -98.43963592 65.20170985 -98 78 C-97.06800781 77.11828125 -96.13601562 76.2365625 -95.17578125 75.328125 C-90.63712762 71.44403015 -85.60058627 69.18575365 -80.1875 66.75 C-65.86560931 60.0919973 -52.18180296 52.94076024 -39.40625 43.6171875 C-37 42 -37 42 -35 42 C-35 41.34 -35 40.68 -35 40 C-33.30725716 38.43567213 -31.54430148 36.94671428 -29.75 35.5 C-28.77546875 34.7059375 -27.8009375 33.911875 -26.796875 33.09375 C-24.55105238 31.41251966 -22.5534197 30.11864101 -20 29 C-20 28.34 -20 27.68 -20 27 C-19.34 27 -18.68 27 -18 27 C-18 26.34 -18 25.68 -18 25 C-17.34 25 -16.68 25 -16 25 C-15.74863281 24.43539062 -15.49726563 23.87078125 -15.23828125 23.2890625 C-13.82352151 20.67376531 -12.11505977 18.6379478 -10.1875 16.375 C-6.71745343 12.12892483 -4.19803329 7.90487912 -1.91015625 2.93359375 C-1 1 -1 1 0 0 Z M-92 141 C-95.74279369 149.90577786 -98.27589034 158.48244871 -100 168 C-100.18304688 168.88171875 -100.36609375 169.7634375 -100.5546875 170.671875 C-103.16363192 190.1703017 -100.14995883 209.25766589 -95.18237305 228.1015625 C-93.65369565 233.93242064 -92.72350809 239.23774482 -92.4375 245.25 C-92.08234011 249.39402326 -91.53688794 252.34337446 -88.828125 255.65625 C-86.30360326 257.65794179 -83.75312526 259.33243987 -81 261 C-79.31710832 262.31279517 -77.6457105 263.6408854 -76 265 C-75.69998037 256.6522316 -76.46501546 249.08415393 -78.25 240.9375 C-78.47671387 239.85984375 -78.70342773 238.7821875 -78.93701172 237.671875 C-79.39755879 235.48710435 -79.86282363 233.30332241 -80.33300781 231.12060547 C-80.94834739 228.24166311 -81.53892296 225.35923908 -82.1171875 222.47265625 C-82.45291103 220.81506082 -82.78883543 219.15750605 -83.125 217.5 C-83.27098633 216.76644287 -83.41697266 216.03288574 -83.56738281 215.27709961 C-84.50071274 210.78273317 -85.77259177 206.50782157 -87.25976562 202.16650391 C-91.42329018 189.98077935 -92.36574024 178.2327843 -92.3125 165.4375 C-92.30995209 164.74163788 -92.30740417 164.04577576 -92.30477905 163.3288269 C-92.25761703 155.83249555 -92.01059343 148.43566711 -91 141 C-91.33 141 -91.66 141 -92 141 Z M-79.25 152.375 C-85.71515639 163.56678333 -83.23315531 180.22688985 -80.1796875 192.22265625 C-78.17098732 197.68328236 -75.08477485 202.82808328 -71 207 C-70.01 207.33 -69.02 207.66 -68 208 C-68 208.66 -68 209.32 -68 210 C-53.62376449 218.03923134 -42.82449963 222.66315546 -26 222 C-26.3305965 212.19781375 -28.18243825 203.37498063 -31 194 C-31.27585938 193.00355469 -31.55171875 192.00710937 -31.8359375 190.98046875 C-36.52697312 175.25043645 -45.47689341 158.73442437 -59 149 C-66.60551765 145.50146188 -73.36991899 146.16824782 -79.25 152.375 Z " fill="#F7F6F6" transform="translate(236,40)"/>
<path d="M0 0 C3.74961114 1.68940097 4.77511554 2.95355105 6.4375 6.75 C7.96095453 10.02400788 9.42994888 12.78093036 11.8125 15.5 C14 18 14 18 14 20 C14.66 20 15.32 20 16 20 C17.5859375 21.64453125 17.5859375 21.64453125 19.375 23.8125 C21.23566282 26.06250857 22.86872703 27.90350285 25.2265625 29.63671875 C25.81179688 30.08660156 26.39703125 30.53648438 27 31 C27 31.66 27 32.32 27 33 C27.80630859 33.34417969 27.80630859 33.34417969 28.62890625 33.6953125 C31.08764879 35.04822849 33.11664061 36.67780121 35.26147461 38.47729492 C44.71079941 46.35746746 55.22056515 52.14842786 66 58 C67.07894531 58.59022949 67.07894531 58.59022949 68.1796875 59.19238281 C76.0433567 63.48756788 84.01439572 67.54332249 92.07421875 71.45703125 C94.62944703 72.80458155 96.84215626 74.08366675 99 76 C99 76.66 99 77.32 99 78 C99.66 78 100.32 78 101 78 C98.22942635 61.85047199 93.15198519 47.54438593 81 36 C82.58984375 35.2890625 82.58984375 35.2890625 85 35 C87.34978905 36.02372975 89.38187608 37.06519905 91.5625 38.375 C92.17875244 38.737146 92.79500488 39.09929199 93.42993164 39.47241211 C101.9881762 44.63742268 110.66344523 51.19284549 117 59 C117 59.66 117 60.32 117 61 C117.66 61 118.32 61 119 61 C120.20166016 62.33837891 120.20166016 62.33837891 121.5390625 64.2265625 C122.03349854 64.92201172 122.52793457 65.61746094 123.03735352 66.33398438 C123.56127686 67.09001953 124.0852002 67.84605469 124.625 68.625 C125.42925415 69.77838867 125.42925415 69.77838867 126.24975586 70.95507812 C139.19520359 89.74954802 145.9071197 107.06539616 142.1809082 130.14086914 C139.47307471 144.72440974 133.99463309 157.41226079 127.52368164 170.65112305 C118.53558062 189.05413823 110.93364898 207.77462308 108.875 228.3125 C108.74762451 229.54383667 108.74762451 229.54383667 108.61767578 230.80004883 C107.99266546 237.21049167 107.76859194 243.55914229 108 250 C108.66 250 109.32 250 110 250 C110 249.34 110 248.68 110 248 C110.66 248 111.32 248 112 248 C112 247.34 112 246.68 112 246 C112.66 246 113.32 246 114 246 C114 245.34 114 244.68 114 244 C114.66 244 115.32 244 116 244 C116.226875 243.443125 116.45375 242.88625 116.6875 242.3125 C119.55269753 237.26429483 123.26232163 234.29572733 128.69921875 232.50390625 C136.33468568 230.83162232 143.96417474 231.57677239 151 235 C153.625 236.9375 153.625 236.9375 155 239 C154.67 240.32 154.34 241.64 154 243 C150.04 243.99 146.08 244.98 142 246 C142 246.66 142 247.32 142 248 C141.25105469 248.71929687 140.50210938 249.43859375 139.73046875 250.1796875 C136.77035526 253.237201 135.08120483 256.3216695 133.3125 260.125 C132.62007596 261.55285372 131.92599169 262.97990322 131.23046875 264.40625 C130.86872559 265.15390625 130.50698242 265.9015625 130.13427734 266.671875 C115.48313318 296.74361645 115.48313318 296.74361645 105 306 C104.34 306 103.68 306 103 306 C103 306.66 103 307.32 103 308 C102.34 308 101.68 308 101 308 C100.62875 308.7734375 100.62875 308.7734375 100.25 309.5625 C98.93953365 312.11790939 97.48920874 314.56856998 96 317.0234375 C93.37220534 322.21743788 92.61271083 327.10660079 92.625 332.875 C92.62516113 333.57955322 92.62532227 334.28410645 92.62548828 335.01000977 C92.75136486 340.73871898 93.75814476 344.32791451 97 349 C97.66 349.33 98.32 349.66 99 350 C99 350.66 99 351.32 99 352 C99.99 352 100.98 352 102 352 C102.38671875 351.26394531 102.7734375 350.52789062 103.171875 349.76953125 C108.69198312 339.42616034 108.69198312 339.42616034 112 336 C112.66 336 113.32 336 114 336 C114 335.34 114 334.68 114 334 C114.66 334 115.32 334 116 334 C116.309375 333.13375 116.309375 333.13375 116.625 332.25 C118.88227332 328.55628003 122.28661096 326.54107022 126.375 325.25 C126.91125 325.1675 127.4475 325.085 128 325 C128 328.55157911 127.00581762 330.48763755 125.5 333.6875 C125.0359375 334.68136719 124.571875 335.67523438 124.09375 336.69921875 C123.7328125 337.45847656 123.371875 338.21773438 123 339 C123.40992188 338.53851563 123.81984375 338.07703125 124.2421875 337.6015625 C129.14981175 333.13017152 137.54869607 331.98975984 144 332 C150.49370353 332.61245524 156.39225946 333.57304745 162 337 C162 337.99 162 338.98 162 340 C159.71070947 341.17154293 157.41881638 342.33738074 155.125 343.5 C154.47402344 343.83386719 153.82304687 344.16773438 153.15234375 344.51171875 C148.2265625 347 148.2265625 347 146 347 C146 347.66 146 348.32 146 349 C145.34 349 144.68 349 144 349 C144 349.66 144 350.32 144 351 C142.33788683 352.33900536 140.67033784 353.67126863 139 355 C127.51446784 367.94957665 120.19103778 384.05342072 117 401 C104.38400227 404.15399943 91.0042728 402 78 402 C77.67 357.12 77.34 312.24 77 266 C75.68 265.34 74.36 264.68 73 264 C71.37283346 261.78022342 70.27351115 259.45605722 69 257 C60.0328206 273.66541832 59.86678465 289.39256722 59.5703125 308.0703125 C59.20286404 321.42093994 55.9718293 332.86404073 47 343 C44.51563202 345.30246821 42.06073191 347.51920055 39 349 C36.7578125 348.65234375 36.7578125 348.65234375 35 348 C35.31453125 347.5359375 35.6290625 347.071875 35.953125 346.59375 C44.87153999 332.19534507 44.53222853 316.32665409 44.25 300 C44.22988187 297.95314269 44.2116406 295.90626605 44.1953125 293.859375 C44.15178968 288.90576135 44.08306285 283.9531019 44 279 C43.34 279 42.68 279 42 279 C41.01 281.64 40.02 284.28 39 287 C37.35 286.67 35.7 286.34 34 286 C30.25659914 292.20000768 29.61396327 297.40545077 29.625 304.5 C29.62371094 305.29446533 29.62242187 306.08893066 29.62109375 306.9074707 C29.70943674 311.78791919 30.35098929 316.24908688 31.57568359 320.97460938 C32 323 32 323 32 327 C31.01 327 30.02 327 29 327 C28.5153125 325.91203125 28.030625 324.8240625 27.53125 323.703125 C21.01150157 309.304457 14.22915391 296.45707917 0.5 287.6875 C-2 286 -2 286 -3 283 C-3.06937062 280.77181559 -3.08457084 278.54165476 -3.0625 276.3125 C-3.04896484 274.54326172 -3.04896484 274.54326172 -3.03515625 272.73828125 C-3.02355469 271.83464844 -3.01195312 270.93101562 -3 270 C-0.36223964 268.58418653 2.0111999 267.67093863 4.9375 267.0625 C8.41124909 266.25389919 10.99107022 264.94695456 14 263 C14.66 263 15.32 263 16 263 C19.39801125 254.29259618 17.83599125 246.65427487 15 238 C12.64017529 232.76905522 9.62828952 228.43457607 6 224 C6 223.34 6 222.68 6 222 C5.34 222 4.68 222 4 222 C4 221.34 4 220.68 4 220 C3.34 220 2.68 220 2 220 C1.97663522 209.26279541 1.95896369 198.52559706 1.94818783 187.78837204 C1.94301106 182.80047445 1.93601036 177.81259448 1.92456055 172.82470703 C1.91354367 167.99414145 1.90768419 163.16359263 1.90512276 158.33301544 C1.90330184 156.50742581 1.89974801 154.6818369 1.89426994 152.85625458 C1.86228221 141.73465208 2.12618469 130.67793438 2.7648468 119.57389832 C3.14988582 112.6580832 3.22205988 105.73749432 3.24023438 98.81225586 C3.25023105 96.50927239 3.28158686 94.20708402 3.3125 91.90429688 C3.31900852 90.41667179 3.32426734 88.92904057 3.328125 87.44140625 C3.3374707 86.12857666 3.34681641 84.81574707 3.35644531 83.46313477 C3.27577604 80.03422432 3.27577604 80.03422432 1.49900818 77.74932861 C-0.3837187 74.29622211 -0.40099567 71.37544517 -0.34057617 67.54760742 C-0.34101425 66.8153595 -0.34145233 66.08311157 -0.34190369 65.32867432 C-0.33982217 62.92066305 -0.3165221 60.51335761 -0.29296875 58.10546875 C-0.28737051 56.43110026 -0.28310149 54.75672685 -0.28010559 53.08235168 C-0.26867474 48.6846042 -0.23922285 44.28715597 -0.20599365 39.88952637 C-0.17525473 35.3983973 -0.1615921 30.90721967 -0.14648438 26.41601562 C-0.11435133 17.61054006 -0.06317645 8.8053073 0 0 Z M92 140 C93 142 93 142 93 142 Z M93 142 C93.0721875 143.14855469 93.144375 144.29710937 93.21875 145.48046875 C94.47526802 166.17053596 93.85958348 184.82380864 87.87109375 204.7578125 C84.63475146 215.58169975 82.39481193 226.54280462 80.25 237.625 C80.09534271 238.42143921 79.94068542 239.21787842 79.78134155 240.03845215 C79.334368 242.35036995 78.89245117 244.66318023 78.453125 246.9765625 C78.32104141 247.6656369 78.18895782 248.3547113 78.0528717 249.06466675 C77.18503312 253.69809177 76.54728835 258.3206193 76 263 C76.66 263.33 77.32 263.66 78 264 C78.99 263.505 78.99 263.505 80 263 C80 262.34 80 261.68 80 261 C80.66 261 81.32 261 82 261 C82 260.34 82 259.68 82 259 C82.53625 258.773125 83.0725 258.54625 83.625 258.3125 C89.39876223 255.19835607 89.39876223 255.19835607 92.76416016 249.85522461 C93.29236352 247.17996749 93.66795273 244.51915369 94 241.8125 C94.30139228 239.73982545 94.61028486 237.66823084 94.92578125 235.59765625 C95.09029785 234.51758301 95.25481445 233.43750977 95.42431641 232.32470703 C96.39283202 226.73130346 97.81895929 221.25626341 99.1875 215.75 C104.61887301 193.0253088 105.25151781 167.90715494 96 146 C94.46408995 143.65934889 94.46408995 143.65934889 93 142 Z M60 148 C60 148.66 60 149.32 60 150 C58.35 150.66 56.7 151.32 55 152 C55 152.66 55 153.32 55 154 C54.34 154 53.68 154 53 154 C53 154.66 53 155.32 53 156 C52.34 156 51.68 156 51 156 C49.32631176 158.30093886 47.80364116 160.58324636 46.3125 163 C45.86624268 163.7226001 45.41998535 164.4452002 44.96020508 165.18969727 C34.55103227 182.4410541 28.80449102 200.98900261 27 221 C41.54238037 221.79563175 53.604174 218.83824813 66 211 C66.74121094 210.53722656 67.48242188 210.07445312 68.24609375 209.59765625 C77.62163081 203.19960544 80.8943979 194.84612303 83 184 C83.18433594 183.23816406 83.36867188 182.47632813 83.55859375 181.69140625 C84.18813529 177.85287423 84.22434229 174.07143628 84.25 170.1875 C84.270625 169.41857422 84.29125 168.64964844 84.3125 167.85742188 C84.36426921 160.18910788 82.48733363 153.65361647 77 148 C71.61963543 144.2337448 65.75232076 146.15925736 60 148 Z " fill="#F7F6F6" transform="translate(246,41)"/>
<path d="M0 0 C1.375 2.0625 1.375 2.0625 2 4 C2.66 4 3.32 4 4 4 C4.48198463 5.24891614 4.96045677 6.49918808 5.4375 7.75 C5.70433594 8.44609375 5.97117187 9.1421875 6.24609375 9.859375 C9.02883106 17.76061877 8.51020494 24.55847298 5.45703125 32.3046875 C2.64587543 37.50494893 -1.54535925 41.76619973 -7.1875 43.78125 C-11.23100796 44.45516799 -14.51488524 44.12979235 -18 42 C-22.63376555 37.36623445 -23.79543555 32.53659922 -24.3125 26.125 C-23.99932702 17.09517902 -19.96761 10.5591132 -14 4 C-9.33483885 -0.24105559 -6.24794466 -1.7281549 0 0 Z " fill="#EDECEC" transform="translate(308,207)"/>
<path d="M0 0 C4 2 4 2 5.25 5.125 C5.4975 6.07375 5.745 7.0225 6 8 C5.01 8.66 4.02 9.32 3 10 C2.52089939 12.86748316 2.52089939 12.86748316 2.56762695 16.28564453 C2.5574353 16.92967224 2.54724365 17.57369995 2.53674316 18.23724365 C2.50651239 20.36918725 2.49733249 22.50068236 2.48828125 24.6328125 C2.47144191 26.10970566 2.45329268 27.58658442 2.43388367 29.06344604 C2.38629601 32.95305889 2.35654375 36.84261339 2.33044434 40.73242188 C2.30068271 44.70063811 2.25413743 48.66865308 2.20898438 52.63671875 C2.12285173 60.4243795 2.05555121 68.21205472 2 76 C1.34 75.67 0.68 75.34 0 75 C0 50.25 0 25.5 0 0 Z " fill="#918D8F" transform="translate(246,41)"/>
<path d="M0 0 C0.33 0 0.66 0 1 0 C1.04965857 5.97736416 1.08584173 11.95460663 1.10986328 17.93212891 C1.11988386 19.96307468 1.13350401 21.99400617 1.15087891 24.02490234 C1.17530117 26.95413758 1.18652279 29.88318106 1.1953125 32.8125 C1.20563507 33.71178223 1.21595764 34.61106445 1.22659302 35.53759766 C1.22756281 41.0605093 0.45480321 45.67842621 -1 51 C-1 52.32 -1 53.64 -1 55 C-0.01 55.33 0.98 55.66 2 56 C2 55.34 2 54.68 2 54 C2.66 54 3.32 54 4 54 C4.2475 53.05125 4.495 52.1025 4.75 51.125 C6 48 6 48 8.125 46.625 C8.74375 46.41875 9.3625 46.2125 10 46 C8.83238986 54.40974896 2.35406249 60.12864435 -4.10546875 65.1015625 C-6 66 -6 66 -8.23828125 65.6484375 C-8.81964844 65.43445313 -9.40101563 65.22046875 -10 65 C-9.52820313 64.30390625 -9.52820313 64.30390625 -9.046875 63.59375 C-0.59493625 49.9484513 -0.37064476 34.53231149 -0.25 19 C-0.22175861 17.14580656 -0.19182023 15.29163816 -0.16015625 13.4375 C-0.087276 8.95837988 -0.0371163 4.47955332 0 0 Z " fill="#B4B0B0" transform="translate(291,324)"/>
<path d="M0 0 C0.66 0.66 1.32 1.32 2 2 C0.02 5.63 -1.96 9.26 -4 13 C-6.475 11.515 -6.475 11.515 -9 10 C-10.27280294 11.41489734 -11.5431583 12.83199666 -12.8125 14.25 C-13.52019531 15.03890625 -14.22789062 15.8278125 -14.95703125 16.640625 C-17.00584152 18.93174458 -17.00584152 18.93174458 -18.63671875 21.296875 C-19.08660156 21.85890625 -19.53648437 22.4209375 -20 23 C-20.66 23 -21.32 23 -22 23 C-20.50328459 18.50985376 -18.16631659 14.52151236 -15 11 C-14.34 11 -13.68 11 -13 11 C-13 10.34 -13 9.68 -13 9 C-12.34 9 -11.68 9 -11 9 C-10.690625 8.13375 -10.690625 8.13375 -10.375 7.25 C-7.98035626 3.33149206 -4.27248678 1.42416226 0 0 Z " fill="#C2BEBF" transform="translate(373,366)"/>
<path d="M0 0 C0.33 0 0.66 0 1 0 C1.0462752 10.00499195 1.08184462 20.00995858 1.10362434 30.01503563 C1.11407582 34.66045274 1.12825979 39.30579681 1.15087891 43.95117188 C1.1725588 48.43153225 1.18455834 52.91182222 1.18975449 57.39223099 C1.19345899 59.10431655 1.20069266 60.81639812 1.21146011 62.52845383 C1.22591068 64.92058486 1.22798067 67.31242242 1.22705078 69.70458984 C1.23424133 70.41740616 1.24143188 71.13022247 1.24884033 71.86463928 C1.22810432 76.77189568 1.22810432 76.77189568 -1 79 C-1 55.57 -1 32.14 -1 8 C-3.7839183 9.39195915 -3.97898997 11.15575779 -5 14 C-5.66 14 -6.32 14 -7 14 C-5.56032356 8.76481294 -3.18303389 4.36973991 0 0 Z " fill="#C7C4C5" transform="translate(236,40)"/>
<path d="M0 0 C0.99 0 1.98 0 3 0 C1.42102753 4.9123588 -0.2771799 9.73738027 -2.1550293 14.54443359 C-6.71325473 26.30053077 -10.39042758 38.32089375 -11 51 C-11.33 51 -11.66 51 -12 51 C-12.08115993 47.93696422 -12.14057409 44.87609185 -12.1875 41.8125 C-12.21263672 40.94818359 -12.23777344 40.08386719 -12.26367188 39.19335938 C-12.32133315 34.17682828 -12.05384768 31.17566928 -9 27 C-8.28598768 23.80604974 -8.28598768 23.80604974 -8 21 C-7.34 21 -6.68 21 -6 21 C-6 18.69 -6 16.38 -6 14 C-5.34 14 -4.68 14 -4 14 C-3.67 12.02 -3.34 10.04 -3 8 C-2.34 8 -1.68 8 -1 8 C-1.20625 7.05125 -1.4125 6.1025 -1.625 5.125 C-1.74875 4.09375 -1.8725 3.0625 -2 2 C-1.34 1.34 -0.68 0.68 0 0 Z " fill="#A59D9C" transform="translate(366,219)"/>
<path d="M0 0 C-1.37961752 3.07865388 -3.00123131 5.24298744 -5.3125 7.6875 C-8.5128934 11.24127017 -10.78777615 14.8675205 -12.95703125 19.1171875 C-14 21 -14 21 -16 23 C-16 21.02 -16 19.04 -16 17 C-15.34 17 -14.68 17 -14 17 C-14 16.01 -14 15.02 -14 14 C-13.505 13.525625 -13.01 13.05125 -12.5 12.5625 C-10.53831211 10.88006936 -10.53831211 10.88006936 -11 7 C-10.67 6.67 -10.34 6.34 -10 6 C-10.66 5.67 -11.32 5.34 -12 5 C-3.29032258 0 -3.29032258 0 0 0 Z " fill="#AEA9A8" transform="translate(156,76)"/>
<path d="M0 0 C5.19822672 1.36144033 8.09543873 3.46730171 12 7 C11.01 7.495 11.01 7.495 10 8 C9.34 7.67 8.68 7.34 8 7 C8 7.66 8 8.32 8 9 C7.34 9 6.68 9 6 9 C6.22816406 9.54269531 6.45632812 10.08539063 6.69140625 10.64453125 C6.97886719 11.35996094 7.26632813 12.07539063 7.5625 12.8125 C7.85253906 13.52019531 8.14257812 14.22789062 8.44140625 14.95703125 C9 17 9 17 8 20 C6.5625 18.9375 6.5625 18.9375 5 17 C4.855625 15.9275 4.71125 14.855 4.5625 13.75 C4.0572524 10.38168265 3.6195135 9.02591038 1.9375 6.25 C0 3 0 3 0 0 Z " fill="#BDB8B7" transform="translate(109,366)"/>
<path d="M0 0 C4.14298667 0.59834725 7.18194377 2.00664285 10.8125 4.0625 C11.78832031 4.61035156 12.76414062 5.15820312 13.76953125 5.72265625 C14.50558594 6.14417969 15.24164063 6.56570312 16 7 C15.01 7.495 15.01 7.495 14 8 C13.01 7.67 12.02 7.34 11 7 C11 8.98 11 10.96 11 13 C7.09674955 9.21155103 3.3553356 5.289295 0 1 C0 0.67 0 0.34 0 0 Z " fill="#A39F9E" transform="translate(327,76)"/>
<path d="M0 0 C0.99 0.33 1.98 0.66 3 1 C2.85991329 4.5210863 2.71189018 8.04179712 2.5625 11.5625 C2.52318359 12.55314453 2.48386719 13.54378906 2.44335938 14.56445312 C2.21827654 19.77598637 1.85894761 24.85353238 1 30 C0.67 30 0.34 30 0 30 C0 20.1 0 10.2 0 0 Z " fill="#B4AFB0" transform="translate(250,121)"/>
<path d="M0 0 C0 0.33 0 0.66 0 1 C-0.59014893 1.0501123 -1.18029785 1.10022461 -1.78833008 1.15185547 C-4.46390702 1.38405648 -7.13812341 1.62937528 -9.8125 1.875 C-10.74126953 1.95363281 -11.67003906 2.03226562 -12.62695312 2.11328125 C-13.51962891 2.19707031 -14.41230469 2.28085937 -15.33203125 2.3671875 C-16.56530151 2.47716064 -16.56530151 2.47716064 -17.82348633 2.58935547 C-20.28335387 2.90664263 -20.28335387 2.90664263 -23 5 C-20.69 6.65 -18.38 8.3 -16 10 C-19.86695678 10 -22.5088452 8.58090029 -26 7 C-26 5.68 -26 4.36 -26 3 C-17.52181329 -0.66666104 -9.05685605 -1.50947601 0 0 Z " fill="#817F7E" transform="translate(102,374)"/>
<path d="M0 0 C0.66 0.33 1.32 0.66 2 1 C0.75314243 2.58580914 -0.49763026 4.1685404 -1.75 5.75 C-2.44609375 6.63171875 -3.1421875 7.5134375 -3.859375 8.421875 C-5.81611341 10.77853075 -7.68846238 12.9891502 -10 15 C-10.99 15 -11.98 15 -13 15 C-13 14.34 -13 13.68 -13 13 C-12.34 13 -11.68 13 -11 13 C-11 12.34 -11 11.68 -11 11 C-10.34 11 -9.68 11 -9 11 C-9 10.34 -9 9.68 -9 9 C-8.34 9 -7.68 9 -7 9 C-6.773125 8.443125 -6.54625 7.88625 -6.3125 7.3125 C-4.64103234 4.36753316 -2.44723648 2.31843456 0 0 Z " fill="#B7B5B4" transform="translate(369,276)"/>
<path d="M0 0 C0.99 0 1.98 0 3 0 C0.94235079 6.45353615 -1.42383482 12.7361263 -4 19 C-4.66 19 -5.32 19 -6 19 C-6 17.35 -6 15.7 -6 14 C-5.34 14 -4.68 14 -4 14 C-3.67 12.02 -3.34 10.04 -3 8 C-2.34 8 -1.68 8 -1 8 C-1.20625 7.05125 -1.4125 6.1025 -1.625 5.125 C-1.74875 4.09375 -1.8725 3.0625 -2 2 C-1.34 1.34 -0.68 0.68 0 0 Z " fill="#B0ADAE" transform="translate(366,219)"/>
<path d="M0 0 C0.33 0 0.66 0 1 0 C1.33 2.64 1.66 5.28 2 8 C2.66 7.67 3.32 7.34 4 7 C2.79157144 11.43090471 1.48331435 13.98112756 -2 17 C-3.44715727 13.12813552 -2.5441918 10.1767672 -1.5625 6.25 C-1.27503906 5.07953125 -0.98757812 3.9090625 -0.69140625 2.703125 C-0.46324219 1.81109375 -0.23507813 0.9190625 0 0 Z " fill="#8D8A85" transform="translate(208,352)"/>
<path d="M0 0 C4.75 1.875 4.75 1.875 7 3 C6.835 3.5775 6.67 4.155 6.5 4.75 C5.85537969 7.26664369 5.85537969 7.26664369 6 11 C6.66 11 7.32 11 8 11 C8 13.97 8 16.94 8 20 C7.67 20 7.34 20 7 20 C6.61908203 18.67935547 6.61908203 18.67935547 6.23046875 17.33203125 C5.88628906 16.17058594 5.54210937 15.00914063 5.1875 13.8125 C4.85105469 12.66394531 4.51460938 11.51539062 4.16796875 10.33203125 C3.07989607 7.22793093 1.7235089 4.78033097 0 2 C0 1.34 0 0.68 0 0 Z " fill="#9B9896" transform="translate(338,89)"/>
<path d="M0 0 C0.66 0.33 1.32 0.66 2 1 C-1.21952199 4.49548102 -3.650975 6.26039 -8 8 C-9.68615782 9.64694485 -11.35570171 11.31126121 -13 13 C-13.66 13 -14.32 13 -15 13 C-15 12.34 -15 11.68 -15 11 C-12.98828125 9.16015625 -12.98828125 9.16015625 -10.3125 7.0625 C-9.44238281 6.37285156 -8.57226562 5.68320313 -7.67578125 4.97265625 C-5.17473339 3.12881805 -2.76209433 1.42574886 0 0 Z " fill="#ABA7A8" transform="translate(142,82)"/>
<path d="M0 0 C0.66 0.33 1.32 0.66 2 1 C1.67 1.9075 1.34 2.815 1 3.75 C-0.63469058 9.45974067 -1.36123966 16.83250002 1.015625 22.36328125 C1.34046875 22.90339844 1.6653125 23.44351562 2 24 C-0.475 23.01 -0.475 23.01 -3 22 C-2.89008434 18.89510601 -2.75946585 15.79142006 -2.625 12.6875 C-2.5940625 11.80642578 -2.563125 10.92535156 -2.53125 10.01757812 C-2.47324219 8.74624023 -2.47324219 8.74624023 -2.4140625 7.44921875 C-2.3826416 6.66893311 -2.3512207 5.88864746 -2.31884766 5.0847168 C-2 3 -2 3 0 0 Z " fill="#8E8888" transform="translate(220,280)"/>
<path d="M0 0 C4.43568763 0.82142364 7.82341155 2.82341155 11 6 C10.625 8.125 10.625 8.125 10 10 C7.36 10.33 4.72 10.66 2 11 C3.65 9.35 5.3 7.7 7 6 C5.49336217 2.98672434 2.96833589 2.38943382 0 1 C0 0.67 0 0.34 0 0 Z " fill="#9B9594" transform="translate(390,274)"/>
<path d="M0 0 C0.66 0 1.32 0 2 0 C4.66590937 4.55426184 5.31563182 7.73946963 5 13 C5.66 13 6.32 13 7 13 C7.33 16.3 7.66 19.6 8 23 C5.51610685 20.51610685 5.33229956 18.84288451 4.5625 15.4375 C3.31548791 10.16314785 1.78978777 5.11367934 0 0 Z " fill="#94908E" transform="translate(119,230)"/>
<path d="M0 0 C2.46750766 4.38229361 2.63722336 8.06353549 2 13 C1.13917194 16.07217679 0.12796488 18.59607425 -2 21 C-5.75 22 -5.75 22 -9 22 C-4.25 18 -4.25 18 -2 18 C0.61281488 12.12116651 0.18328202 6.29268272 0 0 Z " fill="#999797" transform="translate(264,286)"/>
<path d="M0 0 C1.1646418 3.55431423 0.91740037 6.55202575 0.5625 10.25 C0.12707543 15.20155884 -0.09739828 20.03268757 0 25 C-0.33 25 -0.66 25 -1 25 C-2.1983581 20.27367566 -2.18363561 15.6545856 -2.1875 10.8125 C-2.19974609 9.99330078 -2.21199219 9.17410156 -2.22460938 8.33007812 C-2.22982258 6.21873064 -2.12276321 4.10778191 -2 2 C-1.34 1.34 -0.68 0.68 0 0 Z " fill="#B0ABA8" transform="translate(154,196)"/>
<path d="M0 0 C0.33 0 0.66 0 1 0 C1 2.97 1 5.94 1 9 C0.34 8.67 -0.32 8.34 -1 8 C-3.7839183 9.39195915 -3.97898997 11.15575779 -5 14 C-5.66 14 -6.32 14 -7 14 C-5.56032356 8.76481294 -3.18303389 4.36973991 0 0 Z " fill="#B8B5B6" transform="translate(236,40)"/>
<path d="M0 0 C2.56995074 1.28497537 2.90434463 2.49912373 4.125 5.0625 C4.47820312 5.79597656 4.83140625 6.52945312 5.1953125 7.28515625 C5.46085938 7.85105469 5.72640625 8.41695313 6 9 C7.32 9 8.64 9 10 9 C10 9.66 10 10.32 10 11 C8.02 11.33 6.04 11.66 4 12 C3.67 11.01 3.34 10.02 3 9 C2.34 8.67 1.68 8.34 1 8 C0.67 8.66 0.34 9.32 0 10 C0 6.7 0 3.4 0 0 Z " fill="#B2B0AE" transform="translate(129,383)"/>
<path d="M0 0 C0.33 0.99 0.66 1.98 1 3 C-0.3984375 5.48046875 -0.3984375 5.48046875 -2.375 8.1875 C-3.02210938 9.08855469 -3.66921875 9.98960937 -4.3359375 10.91796875 C-4.88507813 11.60503906 -5.43421875 12.29210937 -6 13 C-6.33 13 -6.66 13 -7 13 C-7 11.35 -7 9.7 -7 8 C-6.34 8 -5.68 8 -5 8 C-4.731875 7.05125 -4.46375 6.1025 -4.1875 5.125 C-3 2 -3 2 0 0 Z " fill="#A4A2A2" transform="translate(300,370)"/>
<path d="M0 0 C1.08062462 3.24187386 0.96405231 3.89709861 0.00390625 7.01171875 C-0.33930664 8.14770508 -0.33930664 8.14770508 -0.68945312 9.30664062 C-0.93630859 10.09232422 -1.18316406 10.87800781 -1.4375 11.6875 C-1.68048828 12.48478516 -1.92347656 13.28207031 -2.17382812 14.10351562 C-2.77479738 16.07139534 -3.3863905 18.03602495 -4 20 C-4.33 20 -4.66 20 -5 20 C-4.58997722 5.03416856 -4.58997722 5.03416856 0 0 Z " fill="#9A9997" transform="translate(280,226)"/>
<path d="M0 0 C0.33 0.66 0.66 1.32 1 2 C0.071875 3.7325 0.071875 3.7325 -0.875 5.5 C-3.39241666 10.22232642 -3.78346156 14.71646203 -4 20 C-4.66 20 -5.32 20 -6 20 C-6.72384406 12.29508216 -5.42022077 7.3622194 -1 1 C-0.67 0.67 -0.34 0.34 0 0 Z " fill="#B2A7A7" transform="translate(150,170)"/>
<path d="M0 0 C1.875 0.625 1.875 0.625 4 2 C5.25 5.125 5.25 5.125 6 8 C4.02 8.99 4.02 8.99 2 10 C-0.4294516 6.3558226 -0.16179575 4.28758728 0 0 Z " fill="#B7B3B1" transform="translate(246,41)"/>
<path d="M0 0 C0.66 0.33 1.32 0.66 2 1 C1.68289063 1.63292969 1.36578125 2.26585937 1.0390625 2.91796875 C-0.35504247 7.05311469 -0.46070521 10.97580212 -0.625 15.3125 C-0.66367187 16.14845703 -0.70234375 16.98441406 -0.7421875 17.84570312 C-0.83595159 19.89679259 -0.91904245 21.94836515 -1 24 C-1.33 24 -1.66 24 -2 24 C-2.33 17.4 -2.66 10.8 -3 4 C-2.01 3.67 -1.02 3.34 0 3 C0 2.01 0 1.02 0 0 Z " fill="#928F8F" transform="translate(276,330)"/>
<path d="M0 0 C0.66 0 1.32 0 2 0 C2.3690205 9.41002278 2.3690205 9.41002278 0 14 C-0.33 14 -0.66 14 -1 14 C-0.67 9.38 -0.34 4.76 0 0 Z " fill="#A9A7A5" transform="translate(146,370)"/>
<path d="M0 0 C0.33 0 0.66 0 1 0 C1.33872513 1.41538717 1.67074624 2.83237963 2 4.25 C2.185625 5.03890625 2.37125 5.8278125 2.5625 6.640625 C3 9 3 9 3 13 C2.01 13 1.02 13 0 13 C-0.66 11.02 -1.32 9.04 -2 7 C-1.34 7 -0.68 7 0 7 C0 4.69 0 2.38 0 0 Z " fill="#7C7674" transform="translate(275,355)"/>
<path d="M0 0 C0.8125 1.6875 0.8125 1.6875 1 4 C-1.75432581 7.383886 -3.73936041 9.1697683 -8 10 C-7.04367001 8.70684939 -6.08486149 7.41553147 -5.125 6.125 C-4.59132812 5.40570313 -4.05765625 4.68640625 -3.5078125 3.9453125 C-2 2 -2 2 0 0 Z " fill="#B1AEAF" transform="translate(228,54)"/>
<path d="M0 0 C4.12751449 0.60698743 7.3321148 2.03810791 11 4 C10.01 4.33 9.02 4.66 8 5 C7.34 4.67 6.68 4.34 6 4 C5.67 4.66 5.34 5.32 5 6 C3.31237149 4.3545622 1.6459651 2.68711423 0 1 C0 0.67 0 0.34 0 0 Z " fill="#918A8A" transform="translate(327,76)"/>
<path d="M0 0 C0.33 0.66 0.66 1.32 1 2 C0.01 3.485 0.01 3.485 -1 5 C-1.99 5 -2.98 5 -4 5 C-4.66 6.32 -5.32 7.64 -6 9 C-6.99 8.67 -7.98 8.34 -9 8 C-6.03 5.36 -3.06 2.72 0 0 Z " fill="#B1AEAF" transform="translate(212,71)"/>
<path d="M0 0 C-1.36983503 3.16115776 -1.9890638 3.9927092 -5 6 C-5 5.34 -5 4.68 -5 4 C-6.32 3.67 -7.64 3.34 -9 3 C-3.375 0 -3.375 0 0 0 Z " fill="#817574" transform="translate(156,76)"/>
<path d="M0 0 C2.15377564 2.62198774 3.40072174 4.64404172 4 8 C0.62496331 6.8141763 -1.64722731 5.72426311 -4 3 C-2.68 3.33 -1.36 3.66 0 4 C0 2.68 0 1.36 0 0 Z " fill="#938D8C" transform="translate(198,383)"/>
<path d="M0 0 C0.66 0.66 1.32 1.32 2 2 C0.515 4.475 0.515 4.475 -1 7 C-2.65 5.68 -4.3 4.36 -6 3 C-4.02 2.01 -2.04 1.02 0 0 Z " fill="#9C9899" transform="translate(373,366)"/>
<path d="M0 0 C2.475 0.495 2.475 0.495 5 1 C5 1.66 5 2.32 5 3 C5.66 3 6.32 3 7 3 C7 3.66 7 4.32 7 5 C7.66 5 8.32 5 9 5 C9 5.66 9 6.32 9 7 C9.66 7 10.32 7 11 7 C10.67 7.99 10.34 8.98 10 10 C10 9.34 10 8.68 10 8 C9.34 8 8.68 8 8 8 C8 7.34 8 6.68 8 6 C7.34 6 6.68 6 6 6 C6 5.34 6 4.68 6 4 C5.195625 3.71125 4.39125 3.4225 3.5625 3.125 C1 2 1 2 0 0 Z " fill="#9C989B" transform="translate(88,386)"/>
<path d="M0 0 C2.3129482 2.3129482 2.49580975 3.47904875 3.125 6.625 C3.29257813 7.44226563 3.46015625 8.25953125 3.6328125 9.1015625 C3.81457031 10.04128906 3.81457031 10.04128906 4 11 C3.34 10.67 2.68 10.34 2 10 C2 9.34 2 8.68 2 8 C1.34 8 0.68 8 0 8 C-0.79953138 4.71303767 -1.09658936 3.28976808 0 0 Z " fill="#B1A8A8" transform="translate(194,372)"/>
<path d="M0 0 C0.66 0.33 1.32 0.66 2 1 C-0.97 5.95 -0.97 5.95 -4 11 C-4.66 9.68 -5.32 8.36 -6 7 C-4.02 4.69 -2.04 2.38 0 0 Z " fill="#969493" transform="translate(292,202)"/>
<path d="M0 0 C0.33 0 0.66 0 1 0 C1 5.28 1 10.56 1 16 C0.01 16 -0.98 16 -2 16 C-1.34 10.72 -0.68 5.44 0 0 Z " fill="#ABA5A2" transform="translate(130,277)"/>
<path d="M0 0 C2.96909598 3.27301919 3.34354794 5.38065762 3.1875 9.75 C3.16042969 10.73484375 3.13335937 11.7196875 3.10546875 12.734375 C3.07066406 13.48203125 3.03585938 14.2296875 3 15 C2.67 15 2.34 15 2 15 C1.66048381 13.43883181 1.32867456 11.87598662 1 10.3125 C0.814375 9.44238281 0.62875 8.57226562 0.4375 7.67578125 C0.01027953 5.06287036 -0.07616201 2.64186962 0 0 Z " fill="#8C8A88" transform="translate(154,263)"/>
<path d="M0 0 C0.66 0 1.32 0 2 0 C1.32829194 3.8063457 0.27253436 7.35206816 -1 11 C-1.66 11 -2.32 11 -3 11 C-3 9.35 -3 7.7 -3 6 C-2.34 6 -1.68 6 -1 6 C-0.67 4.02 -0.34 2.04 0 0 Z " fill="#BEB9B9" transform="translate(363,227)"/>
<path d="M0 0 C0.66 1.32 1.32 2.64 2 4 C0 7 0 7 -2.125 7.6875 C-2.74375 7.790625 -3.3625 7.89375 -4 8 C-2.87548273 5.0280615 -1.77706209 2.66559313 0 0 Z " fill="#D6D2D1" transform="translate(110,114)"/>
<path d="M0 0 C1.98362069 2.91708924 1.9876191 4.12380904 1.625 7.75 C1.41875 8.8225 1.2125 9.895 1 11 C0.01 11.33 -0.98 11.66 -2 12 C-1 3.42857143 -1 3.42857143 0 0 Z " fill="#9E9B9B" transform="translate(345,254)"/>
<path d="M0 0 C0.33 0 0.66 0 1 0 C1.33 2.97 1.66 5.94 2 9 C1.01 9.33 0.02 9.66 -1 10 C-1.33 10.66 -1.66 11.32 -2 12 C-1.33333333 8 -0.66666667 4 0 0 Z " fill="#9C9A9B" transform="translate(328,225)"/>
<path d="M0 0 C5.75 1.75 5.75 1.75 8 4 C6.35 4 4.7 4 3 4 C2.67 4.66 2.34 5.32 2 6 C0 3 0 3 0 0 Z " fill="#7C7B78" transform="translate(109,366)"/>
<path d="M0 0 C1.65 0 3.3 0 5 0 C5.33 3.3 5.66 6.6 6 10 C3.8276509 6.74147635 1.92880342 3.40755272 0 0 Z " fill="#B3AEAE" transform="translate(138,352)"/>
<path d="M0 0 C2.6815279 3.07692746 3.42087807 5.19734663 3.6875 9.25 C3.75324219 10.14203125 3.81898438 11.0340625 3.88671875 11.953125 C3.92410156 12.62859375 3.96148437 13.3040625 4 14 C0.7354972 10.7354972 0.06763945 6.58952701 -0.125 2.0625 C-0.08375 1.381875 -0.0425 0.70125 0 0 Z " fill="#A19C9F" transform="translate(145,228)"/>
<path d="M0 0 C2.74277578 3.19990508 4.6302836 6.00499382 6 10 C4.68 9.34 3.36 8.68 2 8 C2 6.68 2 5.36 2 4 C1.34 4 0.68 4 0 4 C0 2.68 0 1.36 0 0 Z " fill="#A8A5A3" transform="translate(376,119)"/>
<path d="M0 0 C4.75 1.875 4.75 1.875 7 3 C6.34 4.32 5.68 5.64 5 7 C4.34 7 3.68 7 3 7 C0 2.61538462 0 2.61538462 0 0 Z " fill="#B4B1B1" transform="translate(338,89)"/>
<path d="M0 0 C1.98 1.65 3.96 3.3 6 5 C5.01 5.495 5.01 5.495 4 6 C3.34 5.67 2.68 5.34 2 5 C1.67 5.66 1.34 6.32 1 7 C-0.0625 4.625 -0.0625 4.625 -1 2 C-0.67 1.34 -0.34 0.68 0 0 Z " fill="#C9C7C4" transform="translate(262,63)"/>
<path d="M0 0 C1.98 0.66 3.96 1.32 6 2 C6 2.99 6 3.98 6 5 C4.68 5.33 3.36 5.66 2 6 C1.34 4.02 0.68 2.04 0 0 Z " fill="#8C8B88" transform="translate(402,376)"/>
<path d="M0 0 C1.9375 0.5625 1.9375 0.5625 4 2 C4.75 5.625 4.75 5.625 5 9 C2.38952199 7.694761 2.31933577 6.64173426 1.375 3.9375 C1.11460938 3.20402344 0.85421875 2.47054687 0.5859375 1.71484375 C0.39257812 1.14894531 0.19921875 0.58304688 0 0 Z " fill="#A6A2A2" transform="translate(112,215)"/>
<path d="M0 0 C0.99 0.66 1.98 1.32 3 2 C1.68 3.32 0.36 4.64 -1 6 C-1.33 4.35 -1.66 2.7 -2 1 C-1.34 0.67 -0.68 0.34 0 0 Z " fill="#C9C6C5" transform="translate(382,289)"/>
<path d="M0 0 C0.66 0 1.32 0 2 0 C2.185625 1.7015625 2.185625 1.7015625 2.375 3.4375 C2.684375 5.2009375 2.684375 5.2009375 3 7 C3.66 7.33 4.32 7.66 5 8 C4.34 8.66 3.68 9.32 3 10 C0.96564469 6.27034861 0 4.33094958 0 0 Z " fill="#A6A2A2" transform="translate(102,191)"/>
<path d="M0 0 C0.66 0.33 1.32 0.66 2 1 C0.515 3.475 0.515 3.475 -1 6 C-2.32 5.67 -3.64 5.34 -5 5 C-3.35 3.35 -1.7 1.7 0 0 Z " fill="#B5B1B3" transform="translate(335,294)"/>
<path d="M0 0 C1.65 0.33 3.3 0.66 5 1 C3.02 1.99 3.02 1.99 1 3 C1 3.66 1 4.32 1 5 C0.01 5.33 -0.98 5.66 -2 6 C-1.49396008 3.83125748 -1.00016187 2.00032373 0 0 Z " fill="#AFAEAC" transform="translate(387,284)"/>
<path d="M0 0 C0.96661363 3.12180401 0.98988909 5.52083795 0.5625 8.75 C0.40974609 9.94882813 0.40974609 9.94882813 0.25390625 11.171875 C0.12822266 12.07679688 0.12822266 12.07679688 0 13 C-0.33 13 -0.66 13 -1 13 C-1.22151549 11.20991533 -1.42682213 9.41781838 -1.625 7.625 C-1.74101562 6.62726563 -1.85703125 5.62953125 -1.9765625 4.6015625 C-1.98429688 3.74304688 -1.99203125 2.88453125 -2 2 C-1.34 1.34 -0.68 0.68 0 0 Z " fill="#908988" transform="translate(154,196)"/>
<path d="M0 0 C1 4 1 4 -0.4375 6.75 C-1.2109375 7.86375 -1.2109375 7.86375 -2 9 C-2.66 8.67 -3.32 8.34 -4 8 C-2.68 5.36 -1.36 2.72 0 0 Z " fill="#9E9C97" transform="translate(103,125)"/>
</svg>
