<?xml version="1.0" encoding="UTF-8"?>
<svg version="1.1" xmlns="http://www.w3.org/2000/svg" width="2000" height="2000">
<path d="M0 0 C3.59676759 1.19892253 4.01008567 2.44327491 5.65090942 5.70980835 C6.13308426 6.70810165 6.13308426 6.70810165 6.625 7.7265625 C7.13992508 8.76292343 7.13992508 8.76292343 7.66525269 9.82022095 C8.78666216 12.08377693 9.89343882 14.35415331 11 16.625 C11.77155736 18.19014406 12.54385951 19.75492118 13.31689453 21.31933594 C18.01019689 30.83848008 22.61532267 40.39959869 27.17553711 49.9831543 C46.31146147 90.19083382 70.5275141 121.55643463 101.875 153 C102.36723053 153.49490936 102.85946106 153.98981873 103.36660767 154.49972534 C108.50505308 159.65939736 113.68437317 164.72185074 119.21679688 169.46191406 C121.98963218 171.8535984 124.64232708 174.37013153 127.3125 176.875 C132.20824418 181.43389415 137.2464764 185.73997673 142.46484375 189.9296875 C144.81494786 191.84887884 147.06860185 193.8335899 149.3125 195.875 C155.29272569 201.23294471 161.62168757 206.13066894 168 211 C168.67756348 211.51804199 169.35512695 212.03608398 170.05322266 212.56982422 C188.12465918 226.30943722 207.08037949 239.42932065 226.78613281 250.72802734 C229.50798681 252.29186274 232.21790737 253.87579251 234.9296875 255.45703125 C252.71412472 265.77195306 270.80852213 275.45017559 289.02929688 284.96875 C290.88964969 285.94225474 292.74805631 286.91933637 294.60546875 287.8984375 C307.87705481 294.89312843 321.24821853 301.65047754 334.75 308.1875 C335.45247864 308.52762115 336.15495728 308.86774231 336.87872314 309.21817017 C343.75765606 312.54472058 350.64639668 315.84652746 357.57421875 319.0703125 C409.69128361 343.38256722 409.69128361 343.38256722 420 364 C430.54959777 332.35120668 412.0570294 283.80372508 398 255.5625 C396.69564321 253.02561781 395.35440656 250.51044383 394 248 C393.52892822 247.11006348 393.52892822 247.11006348 393.04833984 246.20214844 C386.24647546 233.41562968 377.91005089 221.7754771 368.03125 211.18359375 C366.19840303 209.21328326 364.47336079 207.19049859 362.75 205.125 C354.96347775 196.21837478 345.95311809 188.38078 336 182 C336.66 181.67 337.32 181.34 338 181 C340.11621094 181.76928711 340.11621094 181.76928711 342.734375 183.02734375 C344.1730896 183.71461548 344.1730896 183.71461548 345.64086914 184.41577148 C346.66688232 184.91794189 347.69289551 185.4201123 348.75 185.9375 C349.8011499 186.44676025 350.8522998 186.95602051 351.93530273 187.48071289 C358.54501807 190.71354324 364.9717084 194.10909195 371.3046875 197.85546875 C375.09160297 200.0860153 378.96496398 202.14632521 382.83886719 204.22094727 C405.79665599 216.54393589 427.57488678 230.57920801 447 248 C447.93457031 248.82371094 448.86914062 249.64742187 449.83203125 250.49609375 C462.57927763 261.9240447 475.50057214 273.91465874 486.01953125 287.45703125 C487.90024539 289.87191272 489.86277708 292.19728163 491.86230469 294.51416016 C535.04669394 344.64269645 580.37362375 411.53144184 587 479 C587.16435547 480.485 587.16435547 480.485 587.33203125 482 C590.36645201 515.01449785 586.5991267 548.64092349 580 581 C579.67684814 582.59569824 579.67684814 582.59569824 579.34716797 584.22363281 C572.01541911 619.12901554 559.20365039 653.78772039 544 686 C543.71576172 686.60249573 543.43152344 687.20499146 543.13867188 687.82574463 C539.36313109 695.81606766 535.50170209 703.76252346 531.61083984 711.69726562 C529.26404085 716.50895049 526.97826732 721.34897152 524.6875 726.1875 C521.55047317 732.80558801 518.32164143 739.36959256 514.99609375 745.89453125 C476.27716866 821.96294073 450.46346183 905.35147528 449 1048 C449.33 1048.99 449.66 1049.98 450 1051 C457.03533331 1045.58483488 463.54089991 1039.84396789 469.8125 1033.5625 C471.11779663 1032.25913696 471.11779663 1032.25913696 472.44946289 1030.92944336 C478.33744045 1024.94550469 483.5171438 1018.71615252 488.48193359 1011.96118164 C504.70375704 990.0442407 525.18618131 979.11396731 551.8125 974.3125 C577.14186732 971.82715498 604.68037841 977.42577495 624.98046875 993.3359375 C631.06635142 998.62266386 635.03995336 1002.74359887 636 1011 C634.88625 1011.30292969 633.7725 1011.60585937 632.625 1011.91796875 C627.74281488 1013.25339156 622.87001317 1014.62091522 618 1016 C617.2589502 1016.20818359 616.51790039 1016.41636719 615.75439453 1016.63085938 C602.88496751 1020.28503162 592.30815585 1025.36043053 582 1034 C581.28328125 1034.55945312 580.5665625 1035.11890625 579.828125 1035.6953125 C556.36293387 1054.91679885 544.5703009 1089.35255912 532.4375 1116.25 C523.98569679 1134.92104574 514.3467724 1152.98961007 504.05078125 1170.703125 C501.87237358 1174.45777888 499.75472151 1178.24052241 497.66796875 1182.046875 C490.21075126 1195.62940056 482.27293673 1208.73562311 473.62011719 1221.59130859 C472.22626585 1223.66360173 470.84827119 1225.74506639 469.4765625 1227.83203125 C463.92736439 1236.11576201 457.62452779 1243.57344605 451 1251 C450.24299805 1251.85972412 450.24299805 1251.85972412 449.47070312 1252.73681641 C442.84057461 1260.25224201 436.04714638 1266.96722274 428 1273 C427.44908691 1273.42539063 426.89817383 1273.85078125 426.33056641 1274.2890625 C411.03995771 1286.03493475 393.80190668 1294.71608337 376.8359375 1303.75 C350.18001596 1318.06511053 326.77523585 1337.57419651 304.85644531 1358.25683594 C301.3644232 1361.53577306 297.83178919 1364.77089825 294.29882812 1368.00561523 C288.58023941 1373.26167104 283.23764929 1378.82915372 277.9375 1384.5 C276.95112549 1385.55405029 276.95112549 1385.55405029 275.94482422 1386.62939453 C266.87054748 1396.33568861 257.8407616 1406.07984309 249 1416 C248.39671875 1416.67417969 247.7934375 1417.34835937 247.171875 1418.04296875 C243.42559715 1422.27018767 239.86436579 1426.61808819 236.359375 1431.046875 C234.57408686 1433.28144095 232.77312664 1435.49713041 230.953125 1437.703125 C224.39834616 1445.66103771 218.15453629 1453.72820215 212.27001953 1462.19287109 C210.95983548 1464.05715066 209.62219631 1465.89887917 208.27734375 1467.73828125 C199.10694537 1480.36106491 191.05065001 1493.6471158 183 1507 C182.50725586 1507.81001465 182.01451172 1508.6200293 181.50683594 1509.45458984 C174.61436863 1520.7873479 168.48800216 1532.47517834 162.41992188 1544.26611328 C161.16149611 1546.6890589 159.8796319 1549.09610203 158.578125 1551.49609375 C152.24367887 1563.20957028 146.60210138 1575.21782582 140.97827148 1587.28320312 C136.63567479 1596.58995004 132.13705093 1605.79633183 127.46923828 1614.9453125 C124.51844593 1620.78964473 122.02790513 1626.63180882 119.90234375 1632.83203125 C119 1635 119 1635 117 1636 C113.98087036 1636.0983324 110.98475503 1636.13450505 107.96533203 1636.12698364 C106.54380923 1636.12932363 106.54380923 1636.12932363 105.0935688 1636.13171089 C101.89830117 1636.13571931 98.70308054 1636.13253183 95.5078125 1636.12939453 C93.22507703 1636.13074864 90.94234177 1636.13252863 88.65960693 1636.13470459 C82.44490782 1636.13927776 76.23022524 1636.13748983 70.01552582 1636.1343255 C63.52483575 1636.13180131 57.03414715 1636.13413961 50.54345703 1636.13571167 C38.94244005 1636.13765001 27.34143065 1636.13453395 15.74041486 1636.12945233 C5.21430929 1636.12498437 -5.31178525 1636.12576033 -15.83789062 1636.13037109 C-28.05110201 1636.13571834 -40.26430555 1636.1377169 -52.47751808 1636.13475883 C-58.94642019 1636.13319633 -65.41531469 1636.13300156 -71.88421631 1636.13629532 C-77.9645641 1636.13917474 -84.04489099 1636.137197 -90.12523651 1636.13140106 C-92.36262731 1636.13007385 -94.60001986 1636.13046692 -96.83740997 1636.13266373 C-99.88007478 1636.13537673 -102.92267161 1636.1319922 -105.96533203 1636.12698364 C-107.30859715 1636.13032973 -107.30859715 1636.13032973 -108.67899895 1636.13374341 C-114.7717 1636.11415 -114.7717 1636.11415 -117 1635 C-118.04928167 1632.61693755 -119.0073743 1630.24201015 -119.9375 1627.8125 C-122.73810415 1620.74585929 -125.92394108 1613.95867849 -129.375 1607.1875 C-132.99739579 1600.0733177 -136.45734888 1592.92601684 -139.6875 1585.625 C-143.20108477 1577.69863015 -146.94688107 1569.93483301 -150.8828125 1562.2109375 C-152.13562209 1559.73160105 -153.36582572 1557.24175279 -154.59375 1554.75 C-160.4077124 1542.97135814 -166.46458189 1531.39385942 -173 1520 C-173.45503906 1519.19755859 -173.91007812 1518.39511719 -174.37890625 1517.56835938 C-190.9169883 1488.48026138 -209.92074599 1460.46479492 -231.453125 1434.85107422 C-233.58414918 1432.30097552 -235.66502273 1429.71286791 -237.75 1427.125 C-241.5673934 1422.44904787 -245.58653834 1417.98545908 -249.671875 1413.54296875 C-251.60694262 1411.42932946 -253.50208297 1409.29340152 -255.375 1407.125 C-259.90718893 1401.91668032 -264.61700094 1396.8708213 -269.31591797 1391.81347656 C-271.05792173 1389.93762792 -272.7965171 1388.05865457 -274.53515625 1386.1796875 C-281.21935869 1378.97089518 -287.99153496 1371.8956275 -295 1365 C-295.81984375 1364.17242188 -296.6396875 1363.34484375 -297.484375 1362.4921875 C-299.82887063 1360.169535 -302.22576768 1357.94724868 -304.6875 1355.75 C-307.29490289 1353.42030866 -309.90078884 1351.09047559 -312.484375 1348.734375 C-321.36221936 1340.64818555 -330.60901396 1333.20987762 -340.25 1326.0625 C-340.98726318 1325.51376221 -341.72452637 1324.96502441 -342.48413086 1324.3996582 C-354.84546442 1315.31351586 -367.48714721 1307.38856594 -381.125 1300.375 C-391.00530967 1295.26864096 -400.62261595 1289.99907587 -410 1284 C-410.76473633 1283.51112305 -411.52947266 1283.02224609 -412.31738281 1282.51855469 C-421.03104984 1276.85613807 -428.99626741 1270.8314282 -436.42675781 1263.53808594 C-438.13965944 1261.86346144 -439.87820514 1260.21781762 -441.6171875 1258.5703125 C-465.87608172 1235.28526993 -482.27368054 1205.52838337 -498.4453125 1176.3828125 C-500.72377308 1172.27710858 -503.02888106 1168.18908949 -505.3671875 1164.1171875 C-518.51976122 1141.12829542 -530.30992827 1117.39141386 -541.23120117 1093.26733398 C-555.04119544 1062.79791796 -570.57686713 1032.65733187 -603.34375 1019.6015625 C-611.92232433 1016.47475656 -620.93090248 1014.56024553 -629.82373047 1012.55322266 C-632 1012 -632 1012 -634 1011 C-631.32188722 999.98147887 -625.08225627 994.14125004 -615.671875 988.22583008 C-593.2356298 974.79160132 -564.41695651 970.2151102 -539.02148438 976.48876953 C-516.24908584 982.59670672 -498.80778643 995.21234989 -484.7824707 1014.07495117 C-480.98689533 1019.1445236 -476.78573609 1023.7375862 -472.4453125 1028.34375 C-470 1031 -470 1031 -467.90625 1033.640625 C-466.17549776 1035.78278555 -464.47400135 1037.48147971 -462.375 1039.25 C-459.04010539 1042.10039105 -455.75732832 1044.99852247 -452.5 1047.9375 C-451.6440625 1048.70964844 -450.788125 1049.48179688 -449.90625 1050.27734375 C-449.2771875 1050.84582031 -448.648125 1051.41429687 -448 1052 C-426.94431953 977.6605567 -457.72629432 876.4374564 -494 786 C-494.38687988 785.09040527 -494.77375977 784.18081055 -495.17236328 783.24365234 C-504.44323051 761.61162881 -515.16393787 740.52562876 -525.77978516 719.52856445 C-555.42245816 660.87818098 -579.30074866 599.00528297 -585 533 C-585.11085938 531.81921875 -585.22171875 530.6384375 -585.3359375 529.421875 C-592.85583863 437.15065577 -543.25858194 358.21787082 -486 290 C-483.76266031 287.43772142 -481.50050358 284.90742899 -479.1953125 282.40625 C-477.38510819 280.42211147 -475.63244476 278.40796757 -473.8828125 276.37109375 C-469.38642515 271.22225649 -464.58025063 266.39623566 -459.75 261.5625 C-458.87214844 260.67240234 -457.99429688 259.78230469 -457.08984375 258.86523438 C-451.04189548 252.80400364 -444.70643194 247.31745123 -438 242 C-436.86568429 241.07084251 -435.73260187 240.14017417 -434.6015625 239.20703125 C-411.43427367 220.56982908 -385.3889987 206.59288307 -359.22509766 192.71679688 C-356.34464965 191.18346528 -353.47293921 189.63554754 -350.60546875 188.078125 C-349.82381348 187.65611816 -349.0421582 187.23411133 -348.23681641 186.79931641 C-346.841962 186.045976 -345.44947851 185.28821936 -344.06005859 184.52490234 C-340.7272624 182.73672389 -337.7618472 181.4996761 -334 181 C-336.69405457 183.86243298 -339.36870068 186.33133201 -342.5625 188.625 C-387.52581878 221.7780662 -409.76881108 276.46411007 -418.6484375 329.90234375 C-419.33118333 336.02541994 -419.14388797 342.22381839 -419.125 348.375 C-419.12886719 349.65761719 -419.13273438 350.94023437 -419.13671875 352.26171875 C-419.13542969 353.48246094 -419.13414062 354.70320313 -419.1328125 355.9609375 C-419.13112061 357.62842041 -419.13112061 357.62842041 -419.12939453 359.32958984 C-419.18123722 361.97369297 -419.18123722 361.97369297 -418 364 C-417.6596875 363.5153125 -417.319375 363.030625 -416.96875 362.53125 C-405.25034561 346.32494606 -388.49753031 336.3441484 -371.08886719 327.11425781 C-369.19544566 326.10425596 -367.31824565 325.07079445 -365.4453125 324.0234375 C-357.96945474 319.9040873 -350.33233245 316.28119515 -342.5625 312.75 C-317.42281707 301.3026676 -292.64335252 288.88225082 -268.53271484 275.40087891 C-265.80228578 273.89064159 -263.05439636 272.41673634 -260.30078125 270.94921875 C-230.32304401 254.95846648 -201.0510893 237.60460175 -174 217 C-172.77213542 216.07161458 -171.54427083 215.14322917 -170.31640625 214.21484375 C-163.41274126 208.96972884 -156.66029431 203.55024525 -150 198 C-149.2265625 197.35611328 -149.2265625 197.35611328 -148.4375 196.69921875 C-141.64198391 191.03084355 -134.99220769 185.24266692 -128.47265625 179.2578125 C-126.38132061 177.34818849 -124.26741136 175.47668748 -122.125 173.625 C-111.84790524 164.66938437 -102.06005482 155.22425031 -92.44091797 145.57128906 C-90.60889005 143.7338424 -88.77149395 141.9018835 -86.93359375 140.0703125 C-81.07859968 134.21926651 -75.30203645 128.36526491 -70 122 C-69.22487061 121.08492676 -69.22487061 121.08492676 -68.43408203 120.15136719 C-52.88895187 101.69001881 -40.82329963 82.05442522 -30.20751953 60.44287109 C-28.81642105 57.62861081 -27.40724379 54.82379043 -25.99609375 52.01953125 C-20.09696352 40.28922904 -14.27143718 28.53371058 -8.69018555 16.64819336 C-6.00699692 10.96753111 -3.12390843 5.45105404 0 0 Z M0 305 C-9.51453228 321.04473578 -18.41203404 337.21893088 -26.53955078 354.02001953 C-27.92451765 356.84598168 -29.35666303 359.64157788 -30.80859375 362.43359375 C-31.6436558 364.08051291 -32.47831863 365.72763459 -33.3125 367.375 C-33.69196777 368.08068115 -34.07143555 368.7863623 -34.46240234 369.51342773 C-36.50029044 373.63042726 -37.18892291 376.94473469 -37.12753296 381.55050659 C-37.11361385 382.61336758 -37.09969475 383.67622856 -37.08535385 384.77129745 C-36.95450153 389.72108242 -36.73352741 394.66154265 -36.47119141 399.60595703 C-36.35273659 401.97790358 -36.23497072 404.3498846 -36.11776733 406.72189331 C-36.05430492 407.99690578 -35.99084251 409.27191826 -35.925457 410.58556747 C-34.32037527 443.08351035 -33.22681386 475.5962181 -32.2109375 508.1171875 C-32.15468248 509.91806242 -32.15468248 509.91806242 -32.09729099 511.75531864 C-31.63245967 526.66231135 -31.17618314 541.56956077 -30.72278714 556.47690511 C-30.41315115 566.64833094 -30.09871357 576.81960362 -29.78291738 586.99083984 C-29.39725747 599.41260812 -29.01440616 611.83446173 -28.63263369 624.25635004 C-28.52554275 627.73627731 -28.41801748 631.21619094 -28.31040573 634.69610214 C-25.83091168 715.00336703 -25.83091168 715.00336703 -25.8671875 750.640625 C-25.8661229 753.0288647 -25.86473404 755.41710428 -25.86305237 757.80534363 C-25.8603252 764.01851786 -25.86451149 770.23166515 -25.87122726 776.44483566 C-25.87505045 780.30088076 -25.87708088 784.15692336 -25.87869263 788.01296997 C-25.89356984 818.15629025 -25.95655833 848.29755945 -26.4375 878.4375 C-26.4570575 879.70509155 -26.47661499 880.97268311 -26.49676514 882.27868652 C-26.61372237 889.52089976 -26.76445506 896.76061625 -27 904 C-27.0245929 904.77063782 -27.04918579 905.54127563 -27.07452393 906.33526611 C-27.44590698 916.54844479 -28.99914793 921.35349503 -36.5 928.4375 C-43.02899547 934.79546482 -48.57113398 941.69614413 -54 949 C-54.43586426 949.58040039 -54.87172852 950.16080078 -55.32080078 950.75878906 C-61.58210031 959.13056021 -67.13798368 967.73714751 -72 977 C-72.32709961 977.61617187 -72.65419922 978.23234375 -72.99121094 978.8671875 C-87.40881669 1006.43646288 -101.6252701 1049.16810116 -92.03125 1080.4375 C-85.45452135 1096.77967421 -72.08541627 1106.00710526 -56.5 1113.125 C-50.58573478 1115.54357103 -44.56921978 1117.4593887 -38.4375 1119.25 C-37.59960938 1119.49637207 -36.76171875 1119.74274414 -35.8984375 1119.99658203 C-23.93610058 1123.34076702 -12.20620442 1124.36630213 0.1875 1124.3125 C0.86664459 1124.31034485 1.54578918 1124.3081897 2.24551392 1124.30596924 C13.09243742 1124.25090306 23.4667849 1123.66988577 34 1121 C34.79905762 1120.80132324 35.59811523 1120.60264648 36.42138672 1120.39794922 C55.8344042 1115.42264142 78.71881509 1106.87369376 89.828125 1089.0703125 C94.53610447 1080.08858468 96.38316393 1071.71479968 96.3125 1061.625 C96.30404053 1060.32526245 96.30404053 1060.32526245 96.29541016 1058.99926758 C95.40093143 1010.19703974 72.0814973 966.09240502 40.1875 930.625 C39.11048828 929.42037109 39.11048828 929.42037109 38.01171875 928.19140625 C36.76133547 926.82933824 35.47695211 925.49677287 34.14453125 924.21484375 C30.90249734 920.95740825 29.68797402 918.67101416 29.36297607 914.04415894 C29.29409935 913.06590023 29.22522263 912.08764153 29.15425873 911.07973862 C28.89800255 905.96364536 28.76767333 900.85269438 28.69238281 895.73095703 C28.67222862 894.55995831 28.65207443 893.38895958 28.63130951 892.18247604 C28.5669857 888.33264928 28.50951038 884.48276325 28.453125 880.6328125 C28.43233596 879.27874709 28.41143279 877.92468343 28.39041901 876.57062149 C27.93480229 847.01363111 27.75467007 817.45670354 27.75031233 787.89619064 C27.74999477 785.84116351 27.74932719 783.78613666 27.74866104 781.73110962 C27.73739672 732.74739387 28.58920808 683.82976947 30.24136353 634.87200928 C30.85850126 616.57279377 31.42284329 598.27238183 31.97003561 579.9709661 C32.39536212 565.74658035 32.82771171 551.52240589 33.25973779 537.2982223 C33.41773026 532.09433105 33.57487477 526.89041506 33.73139483 521.68647933 C34.05343762 510.98607585 34.38171173 500.28587956 34.71875 489.5859375 C34.74368916 488.79314424 34.76862832 488.00035097 34.79432321 487.18353367 C35.61580956 461.15718349 36.67627723 435.14660239 37.96159935 409.1390028 C38.05851719 407.17737373 38.15451956 405.21569949 38.25050354 403.25402451 C38.36650992 400.89641297 38.48492712 398.53891806 38.60643005 396.1815834 C39.92289544 383.19300936 39.92289544 383.19300936 37.11083984 370.81762695 C36.69509201 369.95421692 36.27934418 369.09080688 35.85099792 368.20123291 C35.39227798 367.30595886 34.93355804 366.41068481 34.4609375 365.48828125 C33.98775589 364.52412292 33.51457428 363.5599646 33.02705383 362.56658936 C31.49878468 359.47014211 29.93864492 356.39121344 28.375 353.3125 C27.31791269 351.19565716 26.26168073 349.07838697 25.20629883 346.96069336 C14.94423093 325.16933068 14.94423093 325.16933068 2 305 C1.34 305 0.68 305 0 305 Z M-368 568 C-389.84097813 600.80298997 -406.15997138 635.76320976 -416 674 C-416.2160791 674.8343457 -416.4321582 675.66869141 -416.65478516 676.52832031 C-425.00108338 709.37097226 -429.19909926 744.16194378 -430 778 C-430.02191406 778.87624023 -430.04382813 779.75248047 -430.06640625 780.65527344 C-431.06755332 828.0595872 -423.27863622 874.23822564 -412.1328125 920.14453125 C-411.95999756 920.85633671 -411.78718262 921.56814217 -411.60913086 922.30151749 C-409.86624753 929.47073567 -408.10914393 936.6362415 -406.32133865 943.79439545 C-400.28416098 967.98168407 -394.66537089 992.33379725 -391.75 1017.125 C-391.58419434 1018.39432373 -391.41838867 1019.66364746 -391.24755859 1020.97143555 C-390.51484285 1026.74732492 -389.92293118 1032.43868654 -389.8046875 1038.26171875 C-389.92590568 1046.8953874 -389.92590568 1046.8953874 -386.77441406 1054.64648438 C-383.55835573 1057.68237717 -379.82533283 1059.72214977 -375.96533203 1061.828125 C-372.55914848 1063.85914128 -369.65480122 1066.447548 -366.6875 1069.0625 C-365.81097778 1069.82276489 -365.81097778 1069.82276489 -364.91674805 1070.59838867 C-360.75030202 1074.24602324 -356.80783979 1078.07804203 -352.94921875 1082.05078125 C-351.16137639 1083.83862361 -349.32541312 1085.4565307 -347.375 1087.0625 C-343.46610107 1090.33192468 -340.28830891 1094.12449306 -337 1098 C-336.15753471 1098.79813614 -336.15753471 1098.79813614 -335.29804993 1099.61239624 C-331.7500244 1103.16493627 -329.56031127 1105.787168 -329.23706055 1110.90527344 C-329.25156324 1112.72393376 -329.30334731 1114.54256876 -329.38671875 1116.359375 C-329.40136673 1117.34383606 -329.41601471 1118.32829712 -329.43110657 1119.34259033 C-329.48319471 1122.48014612 -329.5827342 1125.61380072 -329.6875 1128.75 C-329.79175887 1132.84869702 -329.87648688 1136.94750208 -329.94921875 1141.046875 C-329.96749725 1142.05085327 -329.98577576 1143.05483154 -330.00460815 1144.0892334 C-330.08426123 1150.77359463 -329.83923708 1157.36043996 -329.20703125 1164.015625 C-329.1357048 1164.80894226 -329.06437836 1165.60225952 -328.9908905 1166.4196167 C-326.94613127 1185.08275099 -310.51722908 1196.91032301 -296.87890625 1208.20703125 C-296.25886719 1208.79871094 -295.63882813 1209.39039063 -295 1210 C-294.48969238 1210.43280273 -293.97938477 1210.86560547 -293.45361328 1211.31152344 C-289.66400657 1214.95961881 -288.59705869 1217.63774161 -288.484375 1222.9140625 C-288.5463627 1225.15193491 -288.63599233 1227.38917405 -288.75 1229.625 C-288.8074316 1231.95817912 -288.85829438 1234.29152987 -288.90234375 1236.625 C-288.9266748 1237.73230469 -288.95100586 1238.83960938 -288.97607422 1239.98046875 C-289.11209508 1257.14685724 -280.83400504 1266.01569174 -269.36328125 1277.7265625 C-259.59367084 1288.54617008 -259.59367084 1288.54617008 -248 1297 C-247.41518801 1256.9088886 -249.05898736 1216.80177362 -254 1177 C-254.09216797 1176.25747986 -254.18433594 1175.51495972 -254.27929688 1174.74993896 C-256.78484495 1154.82437078 -260.45394344 1135.33039877 -266 1116 C-266.23267578 1115.18192871 -266.46535156 1114.36385742 -266.70507812 1113.52099609 C-270.06950025 1102.06438552 -275.53011696 1091.78591684 -281.1953125 1081.3125 C-284.55985837 1075.05378807 -287.43525413 1068.6255935 -290 1062 C-302.83814465 1074.12999076 -310.58011663 1091.12551671 -315 1108 C-319.15912938 1093.80214538 -321.14558987 1079.21009673 -323.37359619 1064.61877441 C-330.5887857 1017.43786322 -339.12749278 970.48574893 -350 924 C-350.16463745 923.29266724 -350.3292749 922.58533447 -350.49890137 921.85656738 C-355.23424391 901.55531005 -360.78371711 881.49071174 -366.4239502 861.42565918 C-388.27112677 783.70457596 -388.27112677 783.70457596 -391 744 C-391.08612549 742.75420166 -391.17225098 741.50840332 -391.26098633 740.22485352 C-391.91406218 730.29095133 -392.20147471 720.39186995 -392.1875 710.4375 C-392.18722809 709.69420441 -392.18695618 708.95090881 -392.18667603 708.18508911 C-392.11228105 663.25230739 -389.76168888 613.75836149 -368.5625 573.1875 C-367.7890625 571.6096875 -367.7890625 571.6096875 -367 570 C-367.495 569.01 -367.495 569.01 -368 568 Z M369 568 C370 570 370 570 370 570 Z M370 570 C371.30358694 574.2034028 372.92182859 578.15340932 374.71557617 582.16088867 C386.820708 609.5338573 390.88972752 639.84565319 392.83691406 669.52099609 C392.98638267 671.79300841 393.1587834 674.06204776 393.3359375 676.33203125 C395.59988611 708.02731175 394.56708677 740.35815829 389.8125 771.75 C389.64081299 772.90024658 389.46912598 774.05049316 389.29223633 775.2355957 C385.05986494 801.44380954 378.28789086 827.03838032 371.06802368 852.54989624 C368.70152867 860.91585755 366.3787941 869.2940589 364.0546875 877.671875 C363.82798937 878.48844763 363.60129124 879.30502026 363.36772346 880.14633751 C353.66451795 915.11917411 345.9118709 950.37473709 339 986 C338.70899414 987.4969339 338.70899414 987.4969339 338.41210938 989.02410889 C332.94990566 1017.18859681 328.23142072 1045.44020862 324.00561523 1073.81420898 C323.82658157 1075.00358063 323.64754791 1076.19295227 323.46308899 1077.41836548 C323.13103427 1079.62762098 322.80369461 1081.83759332 322.48234558 1084.0484314 C321.25774061 1092.17640397 319.60272004 1100.19183989 317 1108 C316.75507812 1107.13761719 316.51015625 1106.27523437 316.2578125 1105.38671875 C311.36167119 1089.39828488 303.65762156 1074.89726667 293 1062 C291.13608696 1064.79586956 290.08028889 1067.19813466 288.875 1070.3125 C286.94742998 1075.03504654 284.71985286 1079.35987103 282.125 1083.75 C264.26881719 1114.28210117 259.00036891 1150.38277256 255 1185 C254.85820313 1186.20462891 254.71640625 1187.40925781 254.5703125 1188.65039062 C250.46334803 1224.50883986 249.41601044 1260.92741425 250 1297 C277.42860102 1275.25125718 277.42860102 1275.25125718 290.82568359 1244.66870117 C291.01740883 1241.73347907 290.96050047 1238.87285037 290.8515625 1235.93359375 C290.81675781 1234.87076172 290.78195312 1233.80792969 290.74609375 1232.71289062 C290.6651838 1230.52440701 290.56089915 1228.33666606 290.43359375 1226.15039062 C290.2938914 1220.6720629 290.37459982 1216.96556753 294.02734375 1212.6953125 C295.32399359 1211.43455325 296.64923509 1210.20260086 298 1209 C298.64259766 1208.37134033 299.28519531 1207.74268066 299.94726562 1207.0949707 C301.913008 1205.17316787 303.91729954 1203.30185086 305.9375 1201.4375 C306.60201172 1200.81681641 307.26652344 1200.19613281 307.95117188 1199.55664062 C311.95785318 1195.82976636 316.03495772 1192.20505703 320.20385742 1188.66040039 C328.08814009 1181.37196674 330.11914903 1173.38477996 331.14453125 1163.046875 C331.2304805 1162.18414978 331.31642975 1161.32142456 331.40498352 1160.43255615 C332.00121436 1153.69314382 332.08009516 1147.02680994 331.94921875 1140.265625 C331.93126251 1139.28033813 331.91330627 1138.29505127 331.89480591 1137.27990723 C331.81283224 1133.2383954 331.7199211 1129.19822361 331.58178711 1125.15820312 C331.48480928 1122.15212854 331.43249602 1119.14785665 331.38671875 1116.140625 C331.34431564 1115.23846252 331.30191254 1114.33630005 331.25822449 1113.40679932 C331.21634203 1108.27473388 331.92550243 1105.51550995 335.33544922 1101.59106445 C336.54202749 1100.37898652 337.76327431 1099.18130165 339 1098 C340.09054874 1096.80852164 341.17396307 1095.61042199 342.24609375 1094.40234375 C352.28516852 1083.45653381 352.28516852 1083.45653381 357.87890625 1078.81640625 C359.55899506 1077.37765617 361.17992481 1075.86986105 362.77734375 1074.33984375 C363.28724854 1073.85233643 363.79715332 1073.3648291 364.32250977 1072.86254883 C365.41363999 1071.81529474 366.49600332 1070.75884088 367.57006836 1069.6940918 C370.69581612 1066.71439445 373.49483914 1064.63807924 377.4765625 1062.9296875 C382.76376566 1060.48110801 386.92752754 1058.09987998 390 1053 C393.20725784 1043.05746727 393.01066968 1031.81205541 393.54656982 1021.46864319 C393.95044346 1013.87692127 394.8870516 1006.49658087 396.1875 999 C396.39334717 997.80745605 396.59919434 996.61491211 396.8112793 995.38623047 C400.61746296 974.31463898 405.90723112 953.5176899 411.00390625 932.73046875 C431.85908685 847.5080843 438.87095323 764.76244307 380.3503418 583.96142578 C377.42804147 579.15405989 374.39401505 574.48905377 371 570 C370.67 570 370.34 570 370 570 Z M-337 646 C-353.85713961 667.60881654 -354.41589136 699.26542454 -354.3125 725.375 C-354.31067719 726.33533142 -354.30885437 727.29566284 -354.30697632 728.28509521 C-354.14241836 780.00989583 -345.33422974 830.36467775 -308.625 868.6875 C-295.06679368 881.86107635 -278.46022957 891.97463611 -261.92919922 900.94287109 C-260.11844164 901.93509842 -258.32602939 902.96059869 -256.53515625 903.98828125 C-225.63940505 921.33021584 -190.67179747 931.27448119 -155.25 931.125 C-154.11344971 931.12234131 -152.97689941 931.11968262 -151.8059082 931.11694336 C-136.81545538 931.04474469 -136.81545538 931.04474469 -122 929 C-122.51348539 917.59169427 -124.22238219 906.54408895 -126.1875 895.3125 C-126.343396 894.41159637 -126.49929199 893.51069275 -126.65991211 892.58248901 C-129.31457087 877.2760664 -132.27550474 862.08719977 -136 847 C-136.25185059 845.97084473 -136.50370117 844.94168945 -136.76318359 843.88134766 C-153.22962311 777.51035755 -182.28037415 705.44476364 -232 657 C-232.75023437 656.1646875 -232.75023437 656.1646875 -233.515625 655.3125 C-248.47411076 639.18335013 -268.58997361 629.53057596 -290.3359375 627.72265625 C-308.64185738 627.15765872 -324.36083929 632.33544 -337 646 Z M222 669 C217.3253169 674.41755422 213.12088275 680.15556372 209 686 C208.45311523 686.76699219 207.90623047 687.53398438 207.34277344 688.32421875 C160.24513763 754.88525794 136.97356652 834.95950743 124 929 C162.70384836 933.51544897 198.79995522 929.91271855 235 915 C235.61504395 914.7534668 236.23008789 914.50693359 236.86376953 914.25292969 C253.30647229 907.63507102 269.40038246 899.0456084 284 889 C284.52432617 888.64260742 285.04865234 888.28521484 285.58886719 887.91699219 C323.26205374 862.12254516 342.91558865 829.50744493 351.46826172 784.98779297 C353.00069366 776.37718596 354.08987098 767.69661344 355 759 C355.09571289 758.13197754 355.19142578 757.26395508 355.29003906 756.36962891 C356.25575306 746.51692319 356.24355899 736.64077537 356.25 726.75 C356.25067474 725.81824951 356.25134949 724.88649902 356.25204468 723.92651367 C356.22000504 696.035855 355.18285821 662.52545041 334.51171875 641.1875 C324.98514082 632.89063587 313.51083037 628.78341063 301 628 C300.22785156 627.94714844 299.45570313 627.89429688 298.66015625 627.83984375 C266.91530969 626.74190169 242.40657148 646.71823006 222 669 Z M-192 1147 C-200.57771799 1161.42616207 -198.27381328 1182.47942044 -198.5625 1198.6875 C-198.58334656 1199.81019287 -198.60419312 1200.93288574 -198.62567139 1202.08959961 C-199.03460642 1224.81802762 -199.10938469 1247.54673839 -199.12293625 1270.27835464 C-199.1249898 1272.98654733 -199.12874792 1275.69473329 -199.13284302 1278.40292358 C-199.13876351 1282.725462 -199.13880342 1287.04796451 -199.13438225 1291.37050438 C-199.13335531 1292.96807013 -199.13387886 1294.56563781 -199.13614082 1296.16320229 C-199.14496338 1303.70322367 -199.07335915 1311.2371723 -198.71435547 1318.76953125 C-198.66407196 1319.8572583 -198.61378845 1320.94498535 -198.5619812 1322.06567383 C-197.70967323 1326.51591093 -195.24985666 1328.98534549 -192.26171875 1332.2578125 C-177.87228413 1349.70407002 -175.64792727 1373.36728418 -177.4921875 1395.015625 C-178.05541654 1402.01048478 -178.22030414 1408.98045659 -178.24023438 1415.9934082 C-178.25000879 1418.0643634 -178.28121053 1420.13435067 -178.3125 1422.20507812 C-178.40280429 1433.52257038 -177.51175756 1444.95118314 -170 1454 C-167.04206277 1455.47896861 -165.29779776 1455.4355582 -162 1455 C-151.93291666 1449.68367509 -148.63693513 1436.57174723 -145.49417114 1426.44189453 C-144.80179117 1424.17159876 -144.11885885 1421.89862527 -143.4375 1419.625 C-142.52431378 1416.61571707 -141.60533568 1413.60823508 -140.68359375 1410.6015625 C-140.46182465 1409.87672668 -140.24005554 1409.15189087 -140.01156616 1408.40509033 C-134.03441498 1389.03441498 -134.03441498 1389.03441498 -132 1387 C-131.95512451 1388.15709473 -131.91024902 1389.31418945 -131.86401367 1390.50634766 C-132.36065573 1437.1083222 -132.36065573 1437.1083222 -113.4375 1477.8125 C-112.633125 1478.534375 -111.82875 1479.25625 -111 1480 C-109.824375 1481.11375 -109.824375 1481.11375 -108.625 1482.25 C-105.23903721 1484.50730852 -103.07190179 1485 -99 1485 C-85.85576845 1479.74230738 -78.78703254 1464.52755073 -73.3125 1452.3125 C-65.47093716 1432.22014538 -62.5891319 1410.48768081 -63 1389 C-42.7566596 1383.59827963 -22.93516382 1382.66520419 -2.03637695 1382.73925781 C1.5612061 1382.74999614 5.15829116 1382.73928773 8.75585938 1382.7265625 C25.16733134 1382.71634655 41.6418337 1382.83946633 57.5546875 1387.31640625 C60.02176151 1388.00608349 62.48664341 1388.51034773 65 1389 C64.98622314 1389.64324219 64.97244629 1390.28648437 64.95825195 1390.94921875 C64.58883277 1422.1026437 70.97193756 1456.595546 92.89453125 1480.171875 C96.27037419 1483.10303362 99.53402002 1484.61974446 104 1485 C111.44646894 1483.30168252 116.55477227 1477.66503098 120.69921875 1471.453125 C122.28617994 1468.68693572 123.67751732 1465.90156648 125 1463 C125.38027344 1462.16597656 125.76054688 1461.33195312 126.15234375 1460.47265625 C134.92071428 1437.9395984 133.21519361 1409.81475912 133 1386 C133.66 1386 134.32 1386 135 1386 C135.153479 1386.60336182 135.30695801 1387.20672363 135.46508789 1387.82836914 C137.74275288 1396.49341638 140.57571696 1404.95343601 143.4375 1413.4375 C144.15899415 1415.58693616 144.87963784 1417.73665627 145.6002655 1419.88638306 C146.06936871 1421.28357715 146.53965937 1422.68037317 147.01118469 1424.07675171 C148.07310111 1427.2225403 149.11920331 1430.37075791 150.13549805 1433.53173828 C150.64463745 1435.11124268 150.64463745 1435.11124268 151.1640625 1436.72265625 C151.59452881 1438.08209351 151.59452881 1438.08209351 152.03369141 1439.46899414 C154.35606759 1445.55188295 158.27190202 1451.70634366 164 1455 C167 1455.75 167 1455.75 170 1455 C176.04682019 1450.82481463 177.88617101 1443.61601265 179.54150391 1436.75585938 C180.07874448 1433.52669454 180.1297087 1430.46156787 180.1328125 1427.1875 C180.13376923 1426.5373291 180.13472595 1425.8871582 180.13571167 1425.21728516 C180.13638996 1423.84228417 180.1345602 1422.46727993 180.13037109 1421.09228516 C180.12508754 1419.03410214 180.13029159 1416.9761444 180.13671875 1414.91796875 C180.14028088 1407.5276679 179.86794543 1400.21308094 179.23583984 1392.84570312 C177.3898077 1370.57101297 181.38865777 1350.76456855 194 1332 C195.10617755 1330.93836651 196.22952871 1329.89411235 197.375 1328.875 C200.39101807 1325.43593513 200.50172959 1321.9909686 200.65625 1317.60546875 C200.69096405 1316.82800797 200.7256781 1316.05054718 200.76144409 1315.24952698 C201.224812 1303.34671931 201.15298709 1291.42673891 201.12897491 1279.51709747 C201.12495548 1277.41421 201.12246659 1275.3113252 201.12030029 1273.20843506 C201.09498379 1251.71244884 200.94065715 1230.21791966 200.6521225 1208.72386551 C200.62533024 1206.65055568 200.60157673 1204.57723186 200.57867432 1202.50387573 C200.38677035 1184.25853381 200.38677035 1184.25853381 199.09375 1166.06640625 C199.01871246 1165.3294754 198.94367493 1164.59254456 198.86636353 1163.83328247 C198.16347186 1157.86659357 196.51839759 1152.4402278 194 1147 C191.51988679 1147.38412528 190.25107524 1147.75289262 188.43969727 1149.53564453 C184.88113365 1154.42360183 182.2066211 1159.27615204 179.9375 1164.875 C179.60024902 1165.68928467 179.26299805 1166.50356934 178.91552734 1167.3425293 C176.04818471 1174.4656337 173.90762183 1181.71229123 172.0078125 1189.14453125 C171.13320253 1192.49042289 170.13756044 1195.73591892 169 1199 C168.99742187 1198.443125 168.99484375 1197.88625 168.9921875 1197.3125 C168.6643222 1190.84262476 166.81071368 1186.44065878 162 1182 C159.07665737 1180.51204276 159.07665737 1180.51204276 156 1181 C153.51070875 1182.18807082 152.04431822 1183.21236748 150 1185 C149.28070312 1185.62648438 148.56140625 1186.25296875 147.8203125 1186.8984375 C135.49221955 1198.43879288 126.82532763 1213.18459081 119 1228 C118.66548828 1228.61601074 118.33097656 1229.23202148 117.98632812 1229.86669922 C97.18568492 1268.23435738 88.0281534 1314.34475058 83.19042969 1357.43310547 C83.05797852 1358.61146973 82.92552734 1359.78983398 82.7890625 1361.00390625 C82.68287598 1362.02299072 82.57668945 1363.0420752 82.46728516 1364.09204102 C81.96517011 1367.21674962 81.07606599 1370.02852143 80 1373 C77.11568252 1362.41249319 75.23426481 1351.73788171 73.6328125 1340.88671875 C73.53118553 1340.19971012 73.42955856 1339.51270149 73.32485199 1338.80487442 C72.47565141 1333.04730782 71.64240218 1327.28745174 70.81445312 1321.52679443 C63.17287303 1268.36922297 54.04595451 1219.33809514 8.625 1185.25 C8.04210205 1184.79496094 7.4592041 1184.33992188 6.85864258 1183.87109375 C4.99324914 1182.45226752 4.99324914 1182.45226752 2 1181 C-11.42139794 1183.55353842 -29.86460388 1204.12030378 -37.14404297 1214.65576172 C-58.45201963 1247.185046 -63.82397404 1285.49581806 -69.125 1323.25 C-69.85122215 1328.41206933 -70.58474878 1333.57296105 -71.33230209 1338.731987 C-71.62107108 1340.74622556 -71.89879908 1342.76203762 -72.17605591 1344.77789307 C-75.60955417 1368.60955417 -75.60955417 1368.60955417 -79 1372 C-79.15855469 1370.75992187 -79.31710937 1369.51984375 -79.48046875 1368.2421875 C-85.86678927 1319.30394523 -94.81968198 1270.06700458 -118 1226 C-118.47824219 1225.05253906 -118.95648437 1224.10507813 -119.44921875 1223.12890625 C-126.72484484 1209.09883072 -139.4677328 1186.60368999 -155.0625 1180.875 C-158.17057063 1180.72090591 -158.17057063 1180.72090591 -160.625 1183.0625 C-162.98593571 1185.98260469 -165.18028121 1188.71050835 -167 1192 C-166.77242269 1194.16299211 -166.77242269 1194.16299211 -166 1196 C-166.33 1196.99 -166.66 1197.98 -167 1199 C-168.47357855 1194.747304 -169.66096146 1190.49070713 -170.75 1186.125 C-176.3033439 1164.5495364 -176.3033439 1164.5495364 -189 1147 C-189.99 1147 -190.98 1147 -192 1147 Z " fill="#FEFEFE" transform="translate(966,119)"/>
<path d="M0 0 C17.87494626 10.81572912 26.71002162 30.063618 31.65234375 49.6328125 C37.99225831 77.9553101 34.89965714 109.63017187 19.5 134.625 C8.28581678 151.37398355 -7.82668515 166.25100234 -27.8359375 171.203125 C-39.66310843 173.07604943 -50.71871416 171.87314751 -60.6875 164.9375 C-76.64220985 151.80979577 -84.80654355 131.89348303 -87.1015625 111.69335938 C-89.65301819 83.21134857 -78.93889221 55.56092796 -61.5 33.3125 C-60.1809213 31.73794756 -58.84744744 30.17534493 -57.5 28.625 C-56.79101562 27.79484375 -56.08203125 26.9646875 -55.3515625 26.109375 C-42.73797137 11.68119707 -20.67681274 -10.12151673 0 0 Z M-39.5 81.625 C-45.95881331 90.80706572 -48.5822663 98.33469108 -47.5 109.625 C-46.25670529 114.28231478 -44.40962359 117.61703872 -41.1875 121.1875 C-37.60921998 123.10146373 -35.5173883 123.17912252 -31.5 122.625 C-23.74951976 119.30336561 -18.48248592 113.45888464 -15.125 105.75 C-12.47198478 98.25035093 -11.45340171 91.24375087 -14.33984375 83.671875 C-16.66371413 79.57184779 -20.32203153 76.71398423 -24.5 74.625 C-31.63642055 73.48317271 -35.02772325 76.50864283 -39.5 81.625 Z " fill="#FEFEFE" transform="translate(1225.5,829.375)"/>
<path d="M0 0 C27.98541184 13.68290431 48.87031429 41.0234889 59.03515625 70.1328125 C67.01047908 94.50777877 65.58304433 118.69591232 55.0546875 142.0859375 C48.62920924 154.62088689 39.32141355 165.78090568 25.578125 170.21484375 C11.03363036 173.33415796 -2.20075044 169.52333306 -14.58984375 161.8515625 C-37.00296719 146.6286894 -50.69690178 124.36788025 -55.7890625 98.00390625 C-56.68725939 92.96783286 -57.31926818 87.99049635 -57.5 82.875 C-57.53996094 81.98425781 -57.57992187 81.09351563 -57.62109375 80.17578125 C-58.18864965 55.70410631 -52.55745017 29.91410436 -36.5 10.875 C-35.88511719 10.13636719 -35.27023437 9.39773438 -34.63671875 8.63671875 C-24.59724878 -2.40046252 -13.4968911 -6.21388233 0 0 Z M-8.4375 82.125 C-11.55579802 90.19588899 -10.8940107 98.35107648 -7.49609375 106.19140625 C-4.13437423 112.74842354 0.51039006 118.9929643 7.5 121.875 C12.4940319 122.43884231 14.47630892 122.49307763 18.8125 119.875 C23.85971572 114.9240527 24.69216927 109.21970762 24.9375 102.4375 C24.62197174 91.03904158 18.76121801 83.26774846 11 75.3125 C2.99986942 70.71242492 -3.2389242 76.08794423 -8.4375 82.125 Z " fill="#FEFEFE" transform="translate(731.5,830.125)"/>
<path d="M0 0 C0.6875 1.8125 0.6875 1.8125 1 4 C-0.4375 5.75 -0.4375 5.75 -2 7 C-1.125 2.25 -1.125 2.25 0 0 Z " fill="#F6F6F6" transform="translate(1226,1394)"/>
<path d="M0 0 C1.5625 1.8125 1.5625 1.8125 3 4 C2.67 4.99 2.34 5.98 2 7 C0 4 0 4 0 0 Z " fill="#F9F9F9" transform="translate(707,1394)"/>
<path d="M0 0 C0.66 0.66 1.32 1.32 2 2 C1.67 2.66 1.34 3.32 1 4 C0.34 4 -0.32 4 -1 4 C-0.67 2.68 -0.34 1.36 0 0 Z " fill="#D7D7D7" transform="translate(881,1510)"/>
<path d="M0 0 C0.99 0.495 0.99 0.495 2 1 C2 1.99 2 2.98 2 4 C1.34 4 0.68 4 0 4 C0 2.68 0 1.36 0 0 Z " fill="#E9E9E9" transform="translate(1052,1510)"/>
<path d="M0 0 C0.99 0.495 0.99 0.495 2 1 C2 1.66 2 2.32 2 3 C1.34 3 0.68 3 0 3 C0 2.01 0 1.02 0 0 Z " fill="#FFFFFF" transform="translate(1045,1501)"/>
<path d="M0 0 C0.33 0.99 0.66 1.98 1 3 C0.34 3 -0.32 3 -1 3 C-0.67 2.01 -0.34 1.02 0 0 Z " fill="#EEEEEE" transform="translate(888,1501)"/>
<path d="M0 0 C0.33 0 0.66 0 1 0 C1 1.65 1 3.3 1 5 C0.67 5 0.34 5 0 5 C0 3.35 0 1.7 0 0 Z " fill="#666666" transform="translate(888,1493)"/>
<path d="M0 0 C0.99 0 1.98 0 3 0 C3 0.66 3 1.32 3 2 C2.01 1.67 1.02 1.34 0 1 C0 0.67 0 0.34 0 0 Z " fill="#F2F2F2" transform="translate(990,1026)"/>
<path d="M0 0 C0.99 0.33 1.98 0.66 3 1 C2.01 1.33 1.02 1.66 0 2 C0 1.34 0 0.68 0 0 Z " fill="#FFFFFF" transform="translate(941,1026)"/>
<path d="" fill="#AAAAAA" transform="translate(0,0)"/>
<path d="" fill="#FFFFFF" transform="translate(0,0)"/>
<path d="" fill="#FFFFFF" transform="translate(0,0)"/>
<path d="M0 0 C2 1 2 1 2 1 Z " fill="#FFFFFF" transform="translate(1295,1197)"/>
<path d="M0 0 C2 1 2 1 2 1 Z " fill="#FFFFFF" transform="translate(637,1197)"/>
<path d="" fill="#7F7F7F" transform="translate(0,0)"/>
<path d="" fill="#FFFFFF" transform="translate(0,0)"/>
</svg>
